<mxfile host="app.diagrams.net" modified="2022-02-17T10:23:02.135Z" agent="5.0 (Macintosh; Intel Mac OS X 10_15_7) AppleWebKit/537.36 (KHTML, like Gecko) Chrome/98.0.4758.80 Safari/537.36" etag="safxOvVcgtMgRH-StDU7" version="16.5.6" type="github">
  <diagram id="nEW6zTNpTvKfGlAyqj5V" name="Page-1">
    <mxGraphModel dx="1376" dy="1963" grid="1" gridSize="10" guides="1" tooltips="1" connect="1" arrows="1" fold="1" page="1" pageScale="1" pageWidth="827" pageHeight="1169" background="none" math="0" shadow="0">
      <root>
        <mxCell id="0" />
        <mxCell id="1" parent="0" />
        <mxCell id="dRZYSQgJwG55mgxKp0y3-32" value="" style="group" vertex="1" connectable="0" parent="1">
          <mxGeometry x="369.22" y="220" width="186.89" height="117.32" as="geometry" />
        </mxCell>
        <mxCell id="dRZYSQgJwG55mgxKp0y3-36" value="" style="rounded=1;whiteSpace=wrap;html=1;fontSize=11;fontColor=#1C1C1C;gradientColor=#D9D9D9;glass=0;strokeColor=#696969;" vertex="1" parent="dRZYSQgJwG55mgxKp0y3-32">
          <mxGeometry x="-20" y="-20" width="206.89" height="137.32" as="geometry" />
        </mxCell>
        <mxCell id="dRZYSQgJwG55mgxKp0y3-18" value="" style="shape=image;verticalLabelPosition=bottom;labelBackgroundColor=default;verticalAlign=top;aspect=fixed;imageAspect=0;image=https://upload.wikimedia.org/wikipedia/commons/thumb/1/17/GraphQL_Logo.svg/1200px-GraphQL_Logo.svg.png;" vertex="1" parent="dRZYSQgJwG55mgxKp0y3-32">
          <mxGeometry x="36.620000000000005" y="49.25" width="40.75" height="40.75" as="geometry" />
        </mxCell>
        <mxCell id="dRZYSQgJwG55mgxKp0y3-30" value="" style="shape=image;verticalLabelPosition=bottom;labelBackgroundColor=default;verticalAlign=top;aspect=fixed;imageAspect=0;image=https://cdn-ak.f.st-hatena.com/images/fotolife/t/tikasan0804/20170719/20170719172956.png;" vertex="1" parent="dRZYSQgJwG55mgxKp0y3-32">
          <mxGeometry x="60" y="44.629999999999995" width="89.97" height="50" as="geometry" />
        </mxCell>
        <mxCell id="dRZYSQgJwG55mgxKp0y3-31" value="" style="shape=image;verticalLabelPosition=bottom;labelBackgroundColor=default;verticalAlign=top;aspect=fixed;imageAspect=0;image=https://user-images.githubusercontent.com/980499/133180111-d064b38c-6eb9-444b-a60f-7005a6e68222.png;" vertex="1" parent="dRZYSQgJwG55mgxKp0y3-32">
          <mxGeometry width="163.78" height="40" as="geometry" />
        </mxCell>
        <mxCell id="dRZYSQgJwG55mgxKp0y3-11" value="" style="group" vertex="1" connectable="0" parent="1">
          <mxGeometry x="262.37" y="-195" width="66.11" height="100" as="geometry" />
        </mxCell>
        <mxCell id="dRZYSQgJwG55mgxKp0y3-6" value="" style="shape=image;verticalLabelPosition=bottom;labelBackgroundColor=default;verticalAlign=top;aspect=fixed;imageAspect=0;image=https://2.bp.blogspot.com/-PPJ11CQ_PWM/Wn1VxOyMjvI/AAAAAAABKFA/HzJIje8elW8vhC4iqY1Ad4Hnv7L-RK7UACLcBGAs/s800/computer_man4_laugh.png;" vertex="1" parent="dRZYSQgJwG55mgxKp0y3-11">
          <mxGeometry x="4.611172499999987" y="17.355371900826448" width="56.89591875" height="82.63750000000002" as="geometry" />
        </mxCell>
        <mxCell id="dRZYSQgJwG55mgxKp0y3-10" value="&lt;b&gt;Web Client&lt;/b&gt;" style="text;html=1;resizable=0;autosize=1;align=center;verticalAlign=middle;points=[];fillColor=none;strokeColor=none;rounded=0;" vertex="1" parent="dRZYSQgJwG55mgxKp0y3-11">
          <mxGeometry x="-5" y="-1" width="80" height="20" as="geometry" />
        </mxCell>
        <mxCell id="dRZYSQgJwG55mgxKp0y3-12" value="" style="group" vertex="1" connectable="0" parent="1">
          <mxGeometry x="567" y="-197" width="59.57" height="97" as="geometry" />
        </mxCell>
        <mxCell id="dRZYSQgJwG55mgxKp0y3-5" value="" style="shape=image;verticalLabelPosition=bottom;labelBackgroundColor=default;verticalAlign=top;aspect=fixed;imageAspect=0;image=https://4.bp.blogspot.com/-LfVYPIyZAZI/XNE_Zg_EqNI/AAAAAAABSxU/lN708p3VtrMCZFtiW8mN0dzWgBc8sLW2wCLcBGAs/s800/smartphone_photo_woman_tate.png;" vertex="1" parent="dRZYSQgJwG55mgxKp0y3-12">
          <mxGeometry y="15.487394957983193" width="59.5688785046729" height="81.51187534848509" as="geometry" />
        </mxCell>
        <mxCell id="dRZYSQgJwG55mgxKp0y3-9" value="&lt;b&gt;Mobile&lt;/b&gt;" style="text;html=1;resizable=0;autosize=1;align=center;verticalAlign=middle;points=[];fillColor=none;strokeColor=none;rounded=0;" vertex="1" parent="dRZYSQgJwG55mgxKp0y3-12">
          <mxGeometry x="3.151340996168585" y="-3" width="50" height="20" as="geometry" />
        </mxCell>
        <mxCell id="dRZYSQgJwG55mgxKp0y3-13" value="Cloud Run" style="sketch=0;html=1;fillColor=#5184F3;strokeColor=none;verticalAlign=top;labelPosition=center;verticalLabelPosition=bottom;align=center;spacingTop=-6;fontSize=11;fontStyle=1;fontColor=#999999;shape=mxgraph.gcp2.hexIcon;prIcon=cloud_run" vertex="1" parent="1">
          <mxGeometry x="416.89" y="311.63" width="66" height="58.5" as="geometry" />
        </mxCell>
        <mxCell id="dRZYSQgJwG55mgxKp0y3-40" style="edgeStyle=orthogonalEdgeStyle;rounded=0;orthogonalLoop=1;jettySize=auto;html=1;fontSize=11;fontColor=#1C1C1C;entryX=0.999;entryY=0.455;entryDx=0;entryDy=0;entryPerimeter=0;fillColor=#dae8fc;strokeColor=#6c8ebf;" edge="1" parent="1" source="dRZYSQgJwG55mgxKp0y3-16" target="dRZYSQgJwG55mgxKp0y3-36">
          <mxGeometry relative="1" as="geometry">
            <mxPoint x="653" y="390" as="targetPoint" />
            <Array as="points">
              <mxPoint x="650" y="263" />
            </Array>
          </mxGeometry>
        </mxCell>
        <mxCell id="dRZYSQgJwG55mgxKp0y3-16" value="Container&#xa;Registry" style="sketch=0;html=1;fillColor=#5184F3;strokeColor=none;verticalAlign=top;labelPosition=center;verticalLabelPosition=bottom;align=center;spacingTop=-6;fontSize=11;fontStyle=1;fontColor=#999999;shape=mxgraph.gcp2.hexIcon;prIcon=container_registry" vertex="1" parent="1">
          <mxGeometry x="618" y="444" width="66" height="58.5" as="geometry" />
        </mxCell>
        <mxCell id="dRZYSQgJwG55mgxKp0y3-27" style="edgeStyle=orthogonalEdgeStyle;rounded=0;orthogonalLoop=1;jettySize=auto;html=1;exitX=1;exitY=0.5;exitDx=0;exitDy=0;fontSize=10;fontColor=#1C1C1C;fillColor=#dae8fc;strokeColor=#6c8ebf;" edge="1" parent="1" source="dRZYSQgJwG55mgxKp0y3-19" target="dRZYSQgJwG55mgxKp0y3-21">
          <mxGeometry relative="1" as="geometry" />
        </mxCell>
        <mxCell id="dRZYSQgJwG55mgxKp0y3-19" value="" style="shape=image;verticalLabelPosition=bottom;labelBackgroundColor=default;verticalAlign=top;aspect=fixed;imageAspect=0;image=https://4.bp.blogspot.com/-OtfkvQ6YhEI/V5XczoV8lOI/AAAAAAAA8uM/ks16au6Xssw78rdg9F6VDRhv6naz2jqlgCLcB/s800/job_it_dokata.png;" vertex="1" parent="1">
          <mxGeometry x="40" y="590" width="90" height="90" as="geometry" />
        </mxCell>
        <mxCell id="dRZYSQgJwG55mgxKp0y3-20" value="&lt;div style=&quot;text-align: center&quot;&gt;&lt;span&gt;&lt;font color=&quot;#000000&quot; face=&quot;helvetica&quot;&gt;&lt;b&gt;Developer&lt;/b&gt;&lt;/font&gt;&lt;/span&gt;&lt;/div&gt;" style="text;whiteSpace=wrap;html=1;fontColor=#1C1C1C;" vertex="1" parent="1">
          <mxGeometry x="40" y="570" width="60" height="30" as="geometry" />
        </mxCell>
        <mxCell id="dRZYSQgJwG55mgxKp0y3-28" value="" style="group" vertex="1" connectable="0" parent="1">
          <mxGeometry x="205" y="610" width="115" height="50" as="geometry" />
        </mxCell>
        <mxCell id="dRZYSQgJwG55mgxKp0y3-21" value="" style="dashed=0;outlineConnect=0;html=1;align=center;labelPosition=center;verticalLabelPosition=bottom;verticalAlign=top;shape=mxgraph.weblogos.github;fontColor=#1C1C1C;" vertex="1" parent="dRZYSQgJwG55mgxKp0y3-28">
          <mxGeometry width="50" height="50" as="geometry" />
        </mxCell>
        <mxCell id="dRZYSQgJwG55mgxKp0y3-24" value="" style="shape=image;verticalLabelPosition=bottom;labelBackgroundColor=default;verticalAlign=top;aspect=fixed;imageAspect=0;image=data:image/png,iVBORw0KGgoAAAANSUhEUgAAARgAAAEYCAYAAACHjumMAAAydklEQVR4nOydDYgdV3bnT82IpRIEWwKz8wxGLtUYRmaGdos4WGJadDWuME9kBrUYZ2WPO0hiJm2JJFgGx6omztZ9xLNd9jpIZj1Y7jhYYtuxRBzUghn0ZrdCV6c1SCYe1O51kMKa55IwzAsYpnZXJJVFUMvtvs9qtfrj3Vv31sd75wdNHM2rW7f7X+/Uueeee84W6AFMPzUAYDf7+QYA1Og/s5+1SADgKvvvGwDwzwDQjFztao7TRpCeRyt6AjwYjrcTAB7TLXtQt2z634+wH13ibT4HgE8BIEpa4adJK/wEAD6Og0Yk8R4I0heU3sBQo2I45AQA2Bt4JHmwAACnIlc7W+AcEKRSlM7A6NbwVt2yn9Qt26Y/APAtACjTUi6my6qkFQZJK/xZ0go/Slpzd4qeFIKUkVIZGNNPDwPAJIuhVAXq2bwQuVpY9EQQpGwUamB0a3iLbtlDhkMOAcDTkmMpeXM1Dsg5AJiLg8ZC0ZNBkDJQmIFhOz/vA0C9qDko5EzkakeKngSCFM1Xirip4Xi7AeCzHjUulMOmn84ajldkUBpBCic3D4Yth75vOKTeA8uhbvkCAN5pT9k/SVpznxc9GQTJm9wMjOmn7zPD0o+0AWBf5GoYm0H6CuVLpNr47PdNP/2sj40LsF2xa2zZ9O2iJ4MgeaHUgzH99CQAHFd5jw1YeRxgNTsL3Aqn83omcrWZgu6PILmhxMAYjmcaDnlLcRA3BoBP6E8ckPaKM0VRt2n9huMZzNDQn68bDnmEGZ9B1VnDSSt8M2mFfxIHjUTlfRCkSKQbGJYs967scVewAACNPDwA00+fZx6YKmMTxQHZEweNtqLxEaRQpBoYw/G+YzikKXPMFVDDMhG5mqrx18X000MAQBQZmtORqx1TMC6CFI4UA7NiC/qUxNgGXTo0k1b406QV/m0cNGJJ4wpjON6w4ZBRVhbicYlnpGbigDQwAxjpNaQYGLaUOCVjLAZdOhwo8xfO9NM6y0Q2ZI0ZB2RXmX9nBOHlq1kupp7LQyeiPwaAVwDg32WcC/VYgjggL7anRo4lrblSxyXioPEpALxBjeGWbeZ2GZ4bOz3+i7L/7gjSLZk8GMPxDhrO0gG/rNC39kjkaoUvg0Qx/XQSAFwZY6Eng/QKwh4MC+ieBoCtGe7/OQD85/aU/cdf/M2RyhoXWPZo/g4A5nTLTthWt7BHxzyZv01ac7flzhJB8kXIg5G0FR2zLdobGccpHZJ20+jf51HcwkaqDPdRAXZCOKtxoV+aHb1oXGDZm/k5ABxgcSVRDMMhByVOC0FyR8DALGXoZmGmPWXbVY63dEPkajNJK6yzDGNRXjYcz5Y4LQTJFa4lUsazRX17Bsf002vs+IEoI1iSE6kiXXswtfHZ72cxLkkrHOtH40JpT9nfo55bhiEuGY73mMQpIUgudO3BsJILIqny1HPZg7VQMgfHZyJXOyB5SgiilE09GN0a3mL66QVR48I8l743LrAclzmTtELRXJnvmn76nOQpIYhSujAwNl0ajQqO/0x7auRvBa/tSdpTI68CwBmBS7cAwGnW3RJBKsGmSyTTT6lLf1hgbOkuPTv/89yKei0xywKeiwNypkrtXTMsOd3I1V5VMCUEkc6GHgyr/i9S6rLdnrKlpM0bjvckXaKZfvorALjEvKnOF9NgLWU9wyH/y/TT2dr47CEZ91VN0gp/JJgnc5QVykKQ0rOuB8P6Fn0mcFqYehU7ZOS5mH5KqPEQuHSBncYutUeTIeiLfZeQSrCmB6Nbw1sESxF8HgdkjwzjUhufPSloXCiDhkPmTT89UeaYReRqZwBgWuDSw1g8HKkC6xgYe0iwnu6bMtL/TT89qVt21mLhDwGAbzjkepl3X+KA/JnIdYZDfiR/NggilzUNDOsVzctCe8p+O+uEDMf7joJOBG+afnrJcLxhyeNmhi3jRgXiMXWMxSBlZ80YjOmn/8rZeZF+OR6UFHe5kGFbvBsacUD8slXzF4zHYCwGKTX3eTDsQedt6xpKPLyo+nCfZzhkUvE9uGHxGN6g9CgLxiNIKbnHwOjW8FYA4P7yxcFS4anMmH76tMwatxtw3PTT66afero1/FAO9+uKpBW+w3kJ/VtlPd2OIMpYZWDsJwVqy0Zx0LgoaT55BmN3AgCpjYfzpp8qbbLWLUkr/InAZU+zGj0IUjpWGxje5UkSB0Rmtu5uiWN1C/1yflYbn32r6C8qa81yVODSJxVMB0Eyc0+QV6BuidTjAKafprLGysDTkaudL3ICAscIzkWu9ozCKSGIEF96MCwh7Vs8Fyet8KdKZtUdYdIKxzJWjFuLadNP3zcc75BuDfMGu6WQtMIPOC8ZUjQVBMnECgNDTvB2KkxaYaEnpdtTI+9FrvYoAIywIwoy2LIc1yBnauPhBUljcpG0wp9xXvKQ6acqt/YRRIiVMRje+MtCGdq5wvIWbyh44nsz6nTZaDierHa43SJSP6d0SYQIsmRg2PKIN8A5oWZKYkSudjEOyINJKzyVsZr/agYNh/yD6acndGv4AYnjrgsz3Lw1Yw4XtaRDkPXoeDC89V4XIlfL2vdHOnHQaLenRl4AgEclx2aWzjXlvKXd4Py8oVt2aQ92Iv3JkoHRLZu34j3vw58rkatF7Sl7LwAQALgqcWj6Bb7OzjUpPc1MfwcA+ITzsm8qmg6CCNExMDxvvrgK3QGS1twXkas1IlfbQ70PiUPrywcNyWXTT4nheCqXJR9xfv4RRfNAECE6SySeB5P3rVo4katNxAEZAQDZ2+qe4ZBZw/EOsho6UokDwhXsNRzClWaAIKrpCwMDy/GZMHK17wHAEclB4N2GQ87VxsP/JnHMDh9zfr4056oQhPIVdhq3azc/Dkilm7GzU8sqtrSfZrWDZR7W5P1b572djiAb8hWB8z+Vb1gfudr5OCA74oAcFyiRsBGjAHC9Nj4rJQCctELeuaGBQUqFiIH5Z0VzyZU4aERx0HgjDsgeAJDZ97mmW/abMgZKWnMJ59x000+z9MBGEKlQA/MNzmtKXamflzhotCNXG5F8rmnQ9NO3JAV+eeeEXgxSGr7C+0CWvRWIKCvONZ2SNORR3bIflzDOP3F+voiSFwiyJl/hPCJQqjq2KmhP2X8SB6QOAKcB4HaWsXTL/l0JU8K+3khl4TUwMrNiS0nSmrsTB42fR652LA7I72Q5pc3av+TNwwXcE0HWZNPm9/1MHDSoQd2VIe4k49wSrweD5TOR0oAGZhPYuabfZueaPue8PHPAVWK3BgTJHTQwXdA518SWTDxg+QSkr5F+fqYX0a3hrbplf99wyIucl95RNCUEqQRoYDaBpf5fEGwIx7ukWuv+GFNBKssWtvXcrSvfNwWNDMczdMv+QwB4MUMzOBmJe7wGpud3+pDqsIU9kN2+nfsiS9T00+MA4GXtMhkHRMYRBN45/JuEeyKIFLiDvPTNrmYq5cD0U2pYTkpqYSsjSQ7PFiGV5St41mWZ2vjsftNPr7DtaBk0k1Y4J2Ec3sQ5mQc3ESQTWwROR9d6oWRDB+qRGQ4RDeKuRztytX2SxuL1YPBoAVIaqIFpsnhDt3y9F96SrA/1d9jWs8xatknSCkX6S9+Hbg1v5TQwtzExDykTWyJXu2r63beENhzySByUuqnApph+ehAAzikYmnoPR9pTI1K8CN2yeQ3fFzLuiyCy6AR5efI1KrtVbTjeE6af0uXQtOSh20krfDEOyJ7I1WQuUXhr9fTM0hXpDTqJdp9yFIyu5K6G6aeEcynYLU2J8ZZ7MBzC+7fuyVo9SHXpGBieB7NymaWmn54EgOMKhg7jgDyjYNwOXH/rqhdkR3qPpSVS0go/5bnI9NPnlc1IEro1/JDpp57pp9cVGJerSSscjVxthPWRVgVvdTrcQUJKxZIHk7TCT3SLa5eWfmHfUDarjLDC1xcUeFvUQ9gnOc6yJux34J0/bx8lBFFKJ8j7S87rTNNPDymYTyYMx9tp+um7AHBNsnH5AgBIe8r+7TyMC2OS8/NRr9ZLRqrLkgcTB43PDWepTSlPUJEAwFl1U+PD9NPnWB1d2URxQEby/PKyHJ0652Wl9SiR/mXlWSTeavqm4XjDkufDhW4NG4bjPWf66SUAkNKLaAVR0gr/KA7Io3l7BgLFwpM4ICryehAkE9rK/8f0019zHvI7FbnaC7ImY/pp9xl/ywHNREGbDjrmMdZithCYweTxYK5GrrZH4ZQQRIjVBaducH5hi+zBoyof53DkaucVjd0tuHuE9AT3lGtIWmHAef3jpp/yxgo2orBzNEkrPB0HZEfRxoUFqblKRUiqO4Mg0lltYH7GeT31gN43HE9WcesivigRAOxoT40cK3oXxnA86pUdFrj05wqmgyCZWW1gPhJwtw3dsp+VNJ+3JY3TDVdXbD2XYntXt2yRrX9fcbIfggijrf4H009tAJjlHGchcrVdMiZk+ulnORxH8CNXm1B8Dy5YcfFfcbY6iSJX26FwWgiSiftKZkauFgoUjh40/ZQ3MWxNklaocrt1hp14LpVxMRyvxjKPeYzLHQA4onBaCJKZr67z71t1y+YN3g4BwFzSmsu03NiyzfxH3bJ5+w9tBl1CPBO5WiNpzWVuJSKb2ng4L7Bz9Pf091E0JQSRwnpFv4VqyRoOOZhtOktZxW0Fb+bDkavNSB5TCobj2YJb7rhzhJSeNQ1MHDQWAEAk0WzMcLzvZJ1U5GpnklboZxzmRhyQw3FAHoxc7WLWOanAcDzdcIhIjZokDsh7CqaEIFK5L8i7EtNPZwWLYR+Q4TGYfjoKAO8L9HieiQPyTBw0kqxzUAnLeRHZlm5Eriar+wGCKGO9GEyHOd2yxwDgNznHHdUt+/LtX569mWFu1JO6QY2Fbtn/jxmZBzZY1n0BAP89Dsjx9tTIj5PWXKn7QtfGZ3+4ZZv5nwQu/ShyNVlpAQiilA09GFh+y04CgCsw9o3I1R4Vm9baGI5nGg6hb/zHWLYr9VA+BICFOCDNsnssHVi/6esCnhksL/sapTnFjiAbsamB0a3hh2rj4T8INlxbaE/Z3yvjzk1R1MZnv61b9geCf8+wPWXvS1pzlTCkCLKpgYG71dWuCd5jJnK1A4LX9hwZEgnbkas9qGBKCKKMrnpTsypuotuio6afigQyew4W1BXNUi7lNjuCbMRmQd6VfKpb9g/WKPHQDaO6ZSe3f3n2FwLXVh66LHrg9878fYb2tFF7yj5y59c3/4/kqSGIUrpaInVg28YXMtzvTORqfZXezgK6VwRjLsCykHdgS1ikinS1ROoQudpM0gqzlKY8bPrpZ7Xx2SczjFEZauOzP2S7RaLG5dM4ILvQuCBVhcvAwPJhxD/J2EHQ1C37p70clzEcTzf99F3dst8R2YruEAfkxaJr1CBIFnhiMEuwBLbzumVvBYDHBe+7BQBGDYc8AgDXktZcz7yhDcezDYf8Jf39MgxzGwBeak+NYL4LUmm4YjCrYY3ks3yROoyW9bxQtxiOVzMccklSreDS1atBEBG4l0griQMiq1zAuSovmUw/NQyHvC/JuMRxQLDHEdITcC+RVpK05toAcFG3bJudExKls2Q6rFu2vmWb+Y9VyFY1HG/QcMiJLdvMcwDwiIQhL8cBGWYlKxCk8mRaInVgXzTRTN/1OBq5Wp41ernIcBJ6PWLW5A2NC9IzSDEwcNfI0GXCTlljsu6KH7BuBwtFFrc2HM/ULft3dcv+Lqs+x9VaZANuA8CbdFmExgXpNaQZGLgb6Lwu8cu3mjOsFkpuW7fsHNakQK/objkeuRrGXJCeRKqBgbtG5iAAvJwxLrMRnwDAR3Gw1LD/YwBoJ60wyhK30a3hrbplPwIA3zAcMsjODO1W2OHgU5bnUundMwTZCOkGpgPLB+Ftf5KVkLW//acV/Z0WVmbCstR9k3lZ1JA8zP6vqla0axHHAdmFSXRIr6PMwMDdHkuXsmSz9iDUqJQi/Z/pY68o4LV7Ha2osW6z4l4Ra7Z/o4Ap9x1V10ipgYFlT+YxwyEEAL4reBK7V6Diz7Sn7B/nXYCL9V36tuGQx5mntlPC0i9mS9VP4oBcpQ82K3GKCNCrGik3MB1MP30OAE7ndb+SEUauNpL3Tdly8KSkbOtuoA80waB19/S6RrkZGFi20jsNh+wHgKM5tIctAx/FAXkzaYXn80ocNBxvULfsZ3XLfqrAvzF9iD+IA/JB0grnqpA0mSf9pFGuBqaD4XiG4ZCTkhPVygQV69W8W4soSP6TAXXN95Uh5lQG+k2jQgxMB8Px6JrzRyzHRLRmSlm4AwCX6XIoDsh7cdD4NI+bUmOtW/bzumUfV5h/lBVqcK8mrfD19tTIz4qeTN70s0aFGpgOKzya0RILsBERAByJXC3Xdq6mn9IH1qvY36wSTfFk0e8alcLAdDD9lIrwFgA8XfRcOCiktILpp88DwKm87yuJviidihqVzMB0MBzPBIAnDYc4ADAEAA8VPSdGwvINFuKAUG/l53mfj9Kt4a/XxsNXAOCpim/7X40DcjwOGh8WPRHZoEZ3KaWBWQ0rNj7MgmNFuJp0CfRGHJBzRR5IZB7etR7agaMGew9ri9MToEb3UgkD00G3hnXdsncCwDeZdyMzGn+b9be+QQ1KHJA281Y+LkNKf218dr9u2ad7IBi+GvoAN9tT9jFWX6iyoEb3UykDsxKWQs171ulqJ1oOAP/G/i1cfV6pbLAT3VdyOHIRrVHQvSa5BMd6VLoDKGq0Nn1lYOKA1OOg8XN1s5KLbg1vrY2Hf84SE2U9uJ04UsTSx5dOo2+WQs5S2elD/DXdsgfpD4uPbZU0L2BHKSrlyaBGG9NvBsaNg8ar6mYlF9NPTwCAL2k4+tCeiwPSkLXkY+kFxwHgeYmxsUp5MqjRxvSVgQGA05GrHVM0JamwYGGWpm0rocu/ZyJXa0oY6z7YEZC3MrTGXUllAr+o0eYaZeoqUEGcoifQDbo1nLXdbIerSSs8HAfkQVUPLix5ho0bkauNxAHZkbRCnz2AotBlxhXD8Z6QOEXpoEbdadRvHgxlJO+MW14knFdps7MlhXgB7M1+idUuEeVq5Gp7JE5LKqjREptq1G8eDOWkbg2XtgCW6aeHAGBM8PI7AHCmPWUXusSIXC1uT9nfAwDCtv9F2E2/xIbjlU4r1OhLNtWoHw3MoG7Z3yl6EmtB18mssLlo9ufLkasdSVpzheftJK25LyJXa8QBEf0iUg6zThWlATW6jw016kcDA4ZDynZcfgnDIX8qeOkXAHC8PWX/heQpZSYOGhfjgFA3ekZwiNHa+Ox+ydMSBjVak3U16scYTIddZdqpYJXNPhO5Ng7I4TholL5RfoZe5oVUBFwNarQha2rUlx4M42TRE1jFu4LXUSN5XvJclBAHRDQHaTcLShYNarQ+a2rUzwbGptZat4ZlZjkKYfqpJ5CfcAcAfOraVqW2Shw0rsYBGRUIKurUWy0yOI8abcqaGvWzgYHltWP4wyInwEpTiJTW/GnkahNVeXA7sEZzrwtcOqhb9rCCKW0KatQ192nU7waG4hqOlyUXIBO6ZYsEMOM4IC8rmE4utKfsn7ADp1wYDnlKzYw2BjXqntUaoYEBqBkOuWI4Xp6dHb9Et2yRgNqROGj8o4Lp5ELSmvsCAPYJZJMWZWBQo+65R6N+3kVazQ1WhzS3nSV2PuQa5yncZuRq+xROq2tW1Od5mP3T/05a4UdJa66r9XttfHZSt2yX87bH8+y7hBpl06jK5fxk03mQduVlZAyHnOA94h8HpBTN69iOwewaPb0jADjQTQpA0grfFnh4CQDkaGBQoywa4RJpFYZDRLciRRBxvecUzIMLVnfk2hoPLrBSkbPdLDlZSQLec2EGy6bNC9Qog0ZoYO5n0PTTX5l+6unW8AOqbsJOovLmdhzPu8j4auiDazjkbzapOWsYDnmrm3NEcUCOsVIFPORy0ho1WiaLRmhg1oZaf1IbD+cVJnjxBpXbRfd8Nv100HDIdVYlbTN2Gw7ZtP0Mq9LG9XsZDslr1w81yqgRGpiNoW7er2rjs2/J3mUyHMI7XiDz/rzUxme/z+qf8Bhcr5sPxQE5xZnY9S2OzwqDGt1FVCM0MJuj65Z91HDINdNPL0j0aLjiCHFALku6Lzf0rahb9rRAzdmuWnewJQXP75eLgUGN7iKqERoYPkYB4Nemn16vjc/+V8PxDmYIOPJ+SQppULbirSiSpt918e6kFfLs3Bmmn+YR6EWNViCiEW5Ti7FTt2z680ew7EoDO+r+MTvY1k1AjCuAnGd+TgfWikPkrdjhXLcfpA+vbnEd9amzHlYqQY1WIKJRPxmYBgDsFwjcdcuo4JZmN+T+4LJtztmMrTh4AoP/zDn2SdNPy3QiHjW6H6OfDAy0p+yna+PhOYVGRhVd5yEYjrdbt+z9rCeOzrypG3FAprtNXV+xzSkcb0pa4en21AhP1TbV3ohqUKP7eaKfjgo0IlcjkK2oTlEciFxt02pjpp8+DwCn1vmfu2o1wVzu2Yw9dBZEShSYfppmuGfRoEZr3KMvg7ztKfv3WTpz4XVRu2TTmI7pp3UAeGWDjyy1mmABwTUR3OZczQcZ6p9U2YtBje5nsC8NTNKaux25GvVodmSoQ5obm7VZYdmYl7poEarrlj3N3oD3kGGbcyX0rfj7GeqfVKZl7GpQo7XpSwOzkvaU/UwcLBUB/6TouWTg2xyfXXpLmn56slPNL+M2J7AErONVqtxWAH2pUV8Fedciac0lSWvuLACcNxwySUUoek4CPMT5efqQHq+NL710z2bc5gTWiqPQFPkK0Jca9b0H04Fa9cjVXsjYrU8JCs9DHZWwzUld7rclzqmSoEZrgwZmFZGrnY0Dso0VPn5H4BSpCjbbVv9UcFy9wGDhWnSVtl5SUKM1QAOzBnHQiOOgcTFytT+IXG0b82qKNDSbifrLAuaXNVi4FlU2MKjR/YRoYLqAejXU0MQBGYwDQl1WHwB+yra57+QwhQ3rn9AHKA7Ivhx3YWS/FSHnIlIqQI3uJ+77IC8PcdD4GAA+joPGl/9mOJ7Oal8MMlf2sS5dWp5DHfUu5naVrtcNh6jedlfxVgRWg4eHKIc8JtToXng1+hgNTEaW30yNkLesoOmn/7eLnIgvP244Xi0OGhu+/Vg/m1HDWaoJy/swbMZtAHg5DsjbirY5H+P8/JHNck+yghrdB69GIRqY4vics94IdcEvbvYh9gCDgrek0m1O3ip1qo0LAzVagYhGGIMpDt61eNfBNfYAn+Gf0rrksc3JEzzM64gHanQv3BqhgSkIzuI99O3BVYgjcrUjbKs9a1BRerBwNaw1K88J91zOLKFGdxHVCA1MQfA+vN0EEVdD35Js10sUVcHCezAc4nEmkuVSewU1uouoRmhgioO3vKJu+ulbvDdhD7DIW1L5WxHunjDetLL9SuKAfKRuRveAGmXUCA1MQbBWELyxhKPMVeW9F+9b8kzkar+n/q24dML4fYE0+F8omtI9oEbZNUIDUyy8LTlBt+wfityoy7dkm34mcrUjIvfgRbfsgwJp8DObbQVLBjXKoBEamAKJXO08r1vcKTQuAnuAR9Z5K8dxQA50tlDzQLdskdjDCwqmsi6oUTaN0MAUz1XOzxumnxLRm1G3nxXaOgAAp1nBrWPLRyEavHMRhhVU4u3QGEWuVkQVQtSoe+7RCBPtCiZphTO6ZfPWB/Zq47Pz7amRvxO9L6sfW0g1P90aNll1Ny6SVviBmhltel/UqEtWa4QeTMEkrfC8yHW6Zb8ufzb5UBsPPZE0+aQVvqdmRpveFzXqktUaoYEpGLYLcJhVlOdh0PTTC6w3TiXQreEtpp+eAIAxgcvPFNHYDFAjHu7TCA1MCYhc7SwAvCpw6ajhkOtVeYBr4+EfslIXvEvzOK9dk/VAjTZlTY3QwJSEOCC+YOFxw3DI35T5AV4uaeEdEtnyhWW3e70+QrmCGq3PehphkLckMDf8dcMhIgfghuhbEgAezTlHZFNYvZwrGbppxkkrLEVBcdRoXdbVCD2YcnExQ1lF+pbkTlNXDTvDkqVVbyMOGmWoi9wBNbqfdTVCA1MilmsBL5VVFH2AR00/vVYbn31S8tS4MRzvm6xF74uCQ9wBgOORq5ViedQBNbqHTTVCA1MyWCJVli/VoG7ZQZZEr6yYfjpqOOQy6/8tugz/oKy9llCjL9lUIzQwJaQ9Zf+FhAQrz/TTX9fGZ/9c5PAdL4bjGYbj7Tf99BIAXMjYaiNqT9kvS5yedFCj7jTSMtygUEw/tVlDqm5pRK5W2BtDBOpKZ1wbr+R05GrHJI11D6afPp/xjb6SNgA8GrlameIu64IabQwamBKjW8PfqI2HocTi0AkANOOAhOww3YciOxqG49Ev1BOGQ4YAwJE5v6QVPt2eGsntMF9WUKONQQNTclhL0lmJb8nV0Ie4yYor0f9eWPlmMv10N3s4h1kbD1XzoF+sPZGrFZKtmwXUaH3QwFQA9gBfV9DmokycYr3BKwlqtDYY5K0A9G3VnrLtvGrR5gx1/0l7yv6zoieSBdRobdDAVISkNfdPkavtKur4viJusGBhI2nN3S56MllBje4HDUzFaE/Zv0/fJgU348/KHQA4056y91Vlt4gH1OguaGAqBn2L0LdJxmzSovlR5GpHktZcEdXplIMa3QUPO1YUlk26AwD2Gw55EQC+VfScumA6DsiPWbX+ngc1QgNTadgBs7MAcN5wiAsAJwTaS+RByJrV96THshH9rhFuU/cQpp8ektzvWAaELheKnkRZ6DeNMAbTQ0SudjYOyG8krfAw28koou5IAgBXk1b4YhyQHWhc7qXfNEIPpscx/fQgK4Go+jBdvNxwi7zaLzEWWfSyRhiD6XFY47DzhuPtBIAndMsepD8s4/QhANgqMOwXrHTkjTggC8sN2Bu8fZwRRi9rhB5Mn8Oaa+1kP/9+jXMsEQDcZP83ilwtLGiqfUuVNUIPps9hB9d6Mb29Z6iyRhjkRRBEGWhgEARRBhoYBEGUgQYGQRBloIFBEEQZaGAQBFEGGhgEQZSBBgZBEGWggUEQRBloYBAEUQYeFehzqnzOpV+YaPJpNFkvj0ZoYPoEWSd1TT+FspzU7TWGxpY12j5gDz48IK7RRPNejeanlzW6PI2nqbsGT1N3Ry/XGukVJpr5ajQ/TV69PJ2PRv1kYJQ1Fi8ThuPpumUf1C17FAB2F9BpsFMtbSZphRfjoNF3dXg3Y2jM07cP2AcfHihWo5uL4cytxfDi5Wl1GlXZwBgA8GuOS8LI1UYUTqlw+q3eaxWZaJZTo8m6Go0qa2Bg+QuVcnw8jlxtm8LpFAb1WvqxYn2VoF7L3rHyazRZl6vRV2UOljeGQ45yBMCoqD9JWnP/onhauWE4nkGXQ4ZD6BvxP5Y4aG8CwHHDIY8AwPWkNfdF0RPKi6Exz6DLob1j1dBo79iyRrcW5WhUdQ/m2hpbdusSB2QPa4ZVeQzH22045BL9z6LnIsDhyNXOFj0J1QyNebv3jlVXo8l6do2qnmjH6849pmgeuaFbw1tNP/UqbFwo75h++q5uDaveNSmE7QPDWyeaqVdh40J5Z6KZvrt9IJtGVfdgJgHA5bik8jtJpp9eAIDRouchiRsAsKfXGuBPNHtPo8m6mEaV9mDigPDu5e9WNBXl6NbwN9iSsFceXGCZqddNPz1BPbOiJ5OV7QPD35ho9qZGE830BPXMeC+utAdjON6g4ZBrnJftqNpuBtuSv15AvkSenIpc7YWiJyHKRLM/NJqs82lUaQ9GIAYDVXu7MOMyq/DBpX/D0wBwBABGAGBb5Gpa54f92wH6cClunXGUnYuqHMy45KrRZF3TOj95asTORXVNpT0YWP4CXgKAOsclcXvK3pG05kq/7qfLotp4GEp8cBMAaMYBCdlD+2EcNLh7I1PPEQCeMBwyBACOzPklrfDp9tTIRUnjKYcui559Tb5G89N3Nbo8za/R0NiyRnvH5Gt0czF8+q9f6k6jXjAw1CO5wHNNHJDDcdAo/TYp7zb8JigLcJt++jx7e8qAfpkerUrgl8VcpGk0WVej0URTvkbdBH6rvkSCyNVmAIArt8VwSKmXSWwr+oKEBzdOWuErcUB2qNw9i1ztjTgg2+Jg6e/azDgcfdNe063hr0uanhLYVrQUjW4uhq/MT5MdqowLZbKuvTE/TbbNT8vTaPvA5hpV3oOBuzVNeIO9u1hLztJh+qkHAFlPfhd2epx5le9mzAE5F7naMxKnJZWJphyNJuvFaDTRlKPRZH1jjSrvwcDd3r2fcF52wXC80iV6GY63GwCOZxhiIWmFTpGlKahXGQdLa3/qXd4RHOYptvQqHUNj2TW6uRg6RRkXWPZoZuans2vEll7r0hMeDIi/9aM4II/GQSNRNC0uDMczDId8luGtMhO52gHJ08qEQDLkal6IXE1W7CAzQ2OesXcsm0aT9XJpNNHMrtFkfW2NesKDgeXArchyh3owwwqmI8r+DA9uHAekdFnKcUAaGbdOPWp4JU4pK5k0mp8un0bz09k1ooZ3rf+h0qepV3Fz628d/i7vdpxu2Y8AwHtJa07UTZQCK7lwBgD+g8Dll+OADItsOauG/V3PJq3wU92yqUv+m5xD6HSY2788O6doil3DSi4IazQ/TYZFtpxVc2txWaNbi+GnDw+Ia/Q//8f9GvXMEgmW3XHqkXwmcGnhSwvTT+nyzhO4NGbLvNI9uKvJsJ1dilo+E01xjeanyaNlNC6rybCdHU/W79eoZ5ZIsBxcjFjQipfR2vhsYQFFVonuhMClM1UxLpT2lP0Tttbn9RYN00/fVTStrmCV6IQ0qopxobz3krhGE837NeopDwaWlxq24RCeWr0dEnayN9eta7Y0+leBSxciV9ulYErKYcbiMO91cUB2xUEj99QCtjQS0miyXk2NmLHg1mh+muy6PH1Xo57yYGBpzR9eZuc2eKHryCu18dnvK5jW+je17IMi1yWt8EX5s8mH9pTdYNmgXOiW/ayaGW3M9gExjW4uVlej914S02j7wL0a9aCBmbvDslZF2jLoumVP53nojlX/56XRnhr5OwXTyYWkNUeXsvt4r9Mt+yk1M9oYVv2fl8Zfv1RdjW4timn08MC9GvWcgVnBOcHrqCczm6OR4a1RE/dCfye2FOUtX2qyQH7ecGtUZBKdLCbrYhpNNO9q1LMGhgUURdfrBgBcq43P/qnkad0Da4rGta2etMI31c0oX5JWKLKUPalgKuvCmqJxaXRzsXc0urmYTaOeNTCscv1IlgQi3bJfMf10VmGil897QdIK/0rNVPInaYXnWbdBHkYNx8uzqBO3RrcWe0ejW4tiGg2NLWvUswYGlt3wOA7IvoxZiku7UobjHdStYWn9bFivaF53/3QvdUpkRzSeYTt4PHxb0ZTugfWK5tZIZafEvLk8nU2jnjYwsPwQtyWk0A8aDjlXGw+56s5swhOcn0+qXrB8LSJXa/LGywyHPK5uRvfArZHKkgtFMVnn12jv2LJGPW9gYNnIXGW1SrImO9VNP/216acXDMfbn2Ug3bJ5g8hZa3iUFnZeiecNmUsAfvsAatSBnVfi1qgvDAwsG5mLcUBkRPaN5TgAmTH99DNW+4QbXgPDylz2JGzZx7OM3alwOl/yMKeBYWUuexK27OPWqG8MDOOs5KLIdH1+gXo0pp/ybmXyBip7Zl2/Djy/X15b1ajRvXBr1FcGJg4aSRyQPYLboxtBvZgrpp9eN/30Um18dtJwvEOG4z2+QVGrhzjv8aGEeZaWOCBc+Ramn9rqZvMlqNEK5qf5NJpopnZZG3ErY3nnonHM9FNd5KzFJlC3cKdu2XXduvv8G87Syixa9QbgaWIViR5onGimdQB4ji3tYgB4mwXtMjM05g3uHSPPr/Ao5uanyWnBg30fc36e/oGFlyTsfNFuptlqT+Vr7N+5NKrKgcYMcGvUdwamQ+RqRwzHe8NwyF8CQB67EmYG157LIGwfGN6yfcD+4d4xcniNLNTRiWZ6dX6anLm1GP4VqwXCxfaB4a8/+1r4CvPcVm7d29Tg7B0jp997yf7xrcW52xzD8n45hfqMM6NIDe5TAPCAyBjr0LMB3hVwa9RXS6TVxEFjIQ7I7yhuViUDLtd7+4D9LP2Sb5Divpv+76sPpnXLs6+FrwPA06uMSwfqKbnPvhZyZUHHQYP37Bh38iMzLtcA4Khk4wK9vjyC5UAvt0Z9bWBg+cGOI1fblbTC4wIZi3nBFTzcO0a6Kkjd7edWwlLnv9vFR492sjk54Pk9uWMwe8fIf+G9hoNeD/B24NKo7w1Mh/bUyBsAsEPgcFcedO1hsdae3W6vDvK2AmWp890srY29Y+Qo59jKvqTsAJ6javwKeMGy4NIIDcwK2NGCA1mChyrg7HLI+2bn/TxPHKlMBdWVJud10+WwH0EDs4o4aLQjVxuJA7ILAN4ROINRNLyxia4/PzTmSTuLVQCVbKxfddDArEMcNBYiV/sDAHiwYjsEvN5X159nB9943tRlikv0yxKmVKCB2QS6PIlcbR/1aJJW6LMHNVevhiepjCVDfd7lxz/nTZ7iKF+QzE+TNzjHVlaGgaXxK1vGTDRzSfwrA1waoYHpEurRtKdGJlih7QdF6oRkoOtlDPMy3uny4++wz3fNZF17tctypDMriz93Cc8ZI66xL0834gxVDruhTM3hVMKlERoYAZhXMxEH5DfigAzFwdJ27xn20KvI5uQKlr73kv0XrLfNem9s+u+n2Oe4ubkY/mgDI3OHGpf3XrJf5hlToIgU99+ZFbIWaWvTDWUKaCtBIO2g3beZvDJgBZN+QX/ioPHlv9Mvi+EspaE/wZLdjIxBRi73+9bi3O3JuvYCALww0UzfYollHU5nrVny1y+N0N/50YlmeoL10Om8vSP6/0/WtfMCw/KekOZObLu1ONeerGsH2Nb8+5JPZffDEolbIzQwClguctWY2ehtafppyjGksHFixkRJESS2XHpV0nBf4/y8cDxlsq4tDI15u9hZJH2tmNpkXQsnmvloVCG4NUIDUxxf8KSrG443WETTsbzIuwDX5elGcnm6sdkOGpdGQ2PeoEDcqTKIFODCGExxfML5ed7yjZWC08DEkauJ9L3iBTVaAWcBrniyrt1AA1McXF8QwyFD6qZSLKxrA8/vx/vFF4VLo71jvavR0JiYRmhgCiIOCK8rrfIcTaEYztIuHE/tlVwMzPw0atSBHYzl1ggNTHHwPrw100+fVzSXwmDtW7h+L97qdxng1mii2XsasfYtXL9XJ4ETDUxBxEHjQ4GdkFMKm8AVguGQtwSS1HKpvXJ5WkwjtpzoGfaOiWuEBqZYRJK+eiahi9Ur5s0fiQWKU2WhrzUaGhPTqFOcCg1MgcQBeZX3XJPhcNdYKS26ZT8ncFmuTeXnp/k1EqiDU1q2D2TTSJM7HYQX00+vbFDacj0ORK6mKuU9F0w/pS73r9Ypu7keceRq2xROa00mmmIaTdarrdFEU0yjyfpdjdCDKZikFYocwHvXcLxvKphOLujW8AMAcInzwaV8oGhKG3JzUUyjobHqarR9QI5GaGAKJmmFFwUuMwyHvKJgOrlQGw//UMAjoEvKQgzMrUUxjfaOVVejZ18T02h+mqCBKROsbapIXOG7pp9OGk61qsyxnt4vCly6kLTCOQVT2hTWNlVIo4lmOlm1SoBDY+Ia3Vq8VyOMwZQE009nBU/kLsQB2cNOdpcaw/F2Gw65InAp/d0e5KxNLJ2JprhG89NkD2/tnSIYGvN27x0T12h1bWL0YMrDEcHrBgHgoOS5KMFwyAnBS68WbVwYPa/R3jFxjdYqfI4GpiRErkbd8GmRaw2HvG766fO6NVzK0/HUczH99ALrBMlN0gpPyZ8VP5N1cY32jpHXJ5rp89sHyqkR9VwmmuIa3VxcW6OvZp4ZIpPrumX/kcB1vwkA9a2/dfhf4qDxCwXzEsZwvP2GQ4IMxZ1mPn91R0PytLJw/eEBcY0Gfufwv1yeLpdGQ2Pe/r1j2TR669DaGqEHUyJYhuphVnZShFdMP31Xt4ZFe2BLQ7eGHzD91DMcIvTGZ5yJA/KMxGllhmWoZtJoopm+u32geI22Dww/MNFMvb1j2TSan15fIwzylhBqJNhDLEobAPZFrlZI8SOWRHdJZJtzBVcjV9sjcVpSoUZChkaT9WI0Ykl0mTWarG+sEXowJaQ9tVScOst5mxoAXDP99EptfPZQXlvZhuOZtfHZSZb9meXBTVgh9dLCCohn1miimV75wWuzh/Layh4a88wfvCZHo/npzTVCD6akMC/guqReQTEAPBO5mpIGcobj7WSnomUUvk4AYE9R3hcPzAuQqtFkXY1GQ2PeTnYqWppG3Xhf6MGUFLYtK2v3hH4RLtClFzvBLGdQxzNMPyUst0VWVf1mFYwL3O1HLVUjuvRiJ5ilMDTmGRPNlLDcFmkadbu0Qw+mxOjW8NbaePjnrO2ILBc6YYWUIla46WO6KtusBALrW7QTAL6mW/Ygq6E7xFnlbDNm2lP2saQ1p6K3lBK2DwxvffY1dRqxwk1LGnVKIKwH61u0pNH2AXuQ1dCVrtF7L9nHbi12pxEamApg+kt9fK5IfIDXI1qjn3RNcv+g9ZiJXO1ADvdRAuu11PMaTdb5NEIDUxFq47P7dcs+rbJ/c0HQt3Wzap7LWvzgtdn9Dw/0rkY8nksHNDAVggV+r9H/LHoukqhMQLdbWOC35zQS3U7HIG+FiFwtbk/ZDmviLproVRauxgGxe8m4AAv8vvdS72g0P03sLLk66MFUFNZhoBRndAQ4E7ma6MHBysA6DFRWo8l6do3Qg6kokau9AQAvZOnRXBAzcUCU9MouG5P16mo0Py1HIzzsWGHioHEVAN6m6+Qt28zBHHYwRKHr+MtJKzz++as7GklrrupLh665PH1XI+Nr5dfo5mJ4/K1DOxq3FuVohEukHkLCGSYV0PX7SEnquRSOhDNMKljSaK16LllBA9NjGI43qFv2s7plP1XgTgZ9UD+IA/JB0grnktZc6Su55cnQmDe4fcB+9uGB4jWanyYf3FoM524tqtEIDUwPY/opfXhPihYREoA+tITFh5AumGgWoxGLDykHDUwfwNL8v2045HFWvnGnhDdnzBqcf8KOHHyYc8fFnoKl+X9775gajdiRgw83O24gGzQwfYzppzY7APcYO2y33mG4BVa/pNOruRm5GhqTHJhoims0WS9eo/8fAAD//7BDnqfZ2hPbAAAAAElFTkSuQmCC;" vertex="1" parent="dRZYSQgJwG55mgxKp0y3-28">
          <mxGeometry x="55" width="50" height="50" as="geometry" />
        </mxCell>
        <mxCell id="dRZYSQgJwG55mgxKp0y3-29" value="&lt;div style=&quot;text-align: center&quot;&gt;&lt;span&gt;&lt;font color=&quot;#000000&quot; face=&quot;helvetica&quot; style=&quot;font-size: 11px&quot;&gt;push&lt;/font&gt;&lt;/span&gt;&lt;/div&gt;" style="text;whiteSpace=wrap;html=1;fontColor=#1C1C1C;" vertex="1" parent="1">
          <mxGeometry x="148" y="610" width="60" height="30" as="geometry" />
        </mxCell>
        <mxCell id="dRZYSQgJwG55mgxKp0y3-37" style="edgeStyle=orthogonalEdgeStyle;rounded=0;orthogonalLoop=1;jettySize=auto;html=1;fontSize=11;fontColor=#1C1C1C;startArrow=none;fillColor=#dae8fc;strokeColor=#6c8ebf;" edge="1" parent="1" source="dRZYSQgJwG55mgxKp0y3-44">
          <mxGeometry relative="1" as="geometry">
            <mxPoint x="650" y="540" as="targetPoint" />
          </mxGeometry>
        </mxCell>
        <mxCell id="dRZYSQgJwG55mgxKp0y3-44" value="" style="sketch=0;aspect=fixed;html=1;points=[];align=center;image;fontSize=12;image=img/lib/mscae/Docker.svg;fontColor=#1C1C1C;" vertex="1" parent="1">
          <mxGeometry x="437.62" y="605" width="73.17" height="60" as="geometry" />
        </mxCell>
        <mxCell id="dRZYSQgJwG55mgxKp0y3-45" value="" style="edgeStyle=orthogonalEdgeStyle;rounded=0;orthogonalLoop=1;jettySize=auto;html=1;fontSize=11;fontColor=#1C1C1C;endArrow=none;fillColor=#dae8fc;strokeColor=#6c8ebf;" edge="1" parent="1" source="dRZYSQgJwG55mgxKp0y3-24" target="dRZYSQgJwG55mgxKp0y3-44">
          <mxGeometry relative="1" as="geometry">
            <mxPoint x="650" y="540" as="targetPoint" />
            <mxPoint x="310" y="635" as="sourcePoint" />
          </mxGeometry>
        </mxCell>
        <mxCell id="dRZYSQgJwG55mgxKp0y3-46" value="&lt;div style=&quot;text-align: center&quot;&gt;&lt;font color=&quot;#000000&quot; face=&quot;helvetica&quot;&gt;&lt;span style=&quot;font-size: 11px&quot;&gt;test&lt;/span&gt;&lt;/font&gt;&lt;/div&gt;" style="text;whiteSpace=wrap;html=1;fontColor=#1C1C1C;" vertex="1" parent="1">
          <mxGeometry x="351" y="610" width="60" height="30" as="geometry" />
        </mxCell>
        <mxCell id="dRZYSQgJwG55mgxKp0y3-47" value="&lt;div style=&quot;text-align: center&quot;&gt;&lt;font color=&quot;#000000&quot; face=&quot;helvetica&quot;&gt;&lt;span style=&quot;font-size: 11px&quot;&gt;image push&lt;/span&gt;&lt;/font&gt;&lt;/div&gt;" style="text;whiteSpace=wrap;html=1;fontColor=#1C1C1C;" vertex="1" parent="1">
          <mxGeometry x="550" y="609" width="60" height="30" as="geometry" />
        </mxCell>
        <mxCell id="dRZYSQgJwG55mgxKp0y3-50" value="" style="group" vertex="1" connectable="0" parent="1">
          <mxGeometry x="180" y="430" width="356.89" height="108" as="geometry" />
        </mxCell>
        <mxCell id="dRZYSQgJwG55mgxKp0y3-48" value="" style="rounded=1;whiteSpace=wrap;html=1;fontSize=11;fontColor=#1C1C1C;gradientColor=#D9D9D9;glass=0;strokeColor=#696969;" vertex="1" parent="dRZYSQgJwG55mgxKp0y3-50">
          <mxGeometry width="356.89" height="108" as="geometry" />
        </mxCell>
        <mxCell id="dRZYSQgJwG55mgxKp0y3-14" value="Cloud&#xa;Functions" style="sketch=0;html=1;fillColor=#5184F3;strokeColor=none;verticalAlign=top;labelPosition=center;verticalLabelPosition=bottom;align=center;spacingTop=-6;fontSize=11;fontStyle=1;fontColor=#999999;shape=mxgraph.gcp2.hexIcon;prIcon=cloud_functions" vertex="1" parent="dRZYSQgJwG55mgxKp0y3-50">
          <mxGeometry x="20.89" y="11" width="66" height="58.5" as="geometry" />
        </mxCell>
        <mxCell id="dRZYSQgJwG55mgxKp0y3-34" style="edgeStyle=orthogonalEdgeStyle;rounded=0;orthogonalLoop=1;jettySize=auto;html=1;fontSize=11;fontColor=#1C1C1C;fillColor=#dae8fc;strokeColor=#6c8ebf;entryX=0.825;entryY=0.5;entryDx=0;entryDy=0;entryPerimeter=0;startArrow=none;exitX=0.175;exitY=0.5;exitDx=0;exitDy=0;exitPerimeter=0;" edge="1" parent="dRZYSQgJwG55mgxKp0y3-50" source="dRZYSQgJwG55mgxKp0y3-15" target="dRZYSQgJwG55mgxKp0y3-14">
          <mxGeometry relative="1" as="geometry">
            <mxPoint x="150.89" y="40" as="sourcePoint" />
            <mxPoint x="70.89" y="40" as="targetPoint" />
          </mxGeometry>
        </mxCell>
        <mxCell id="dRZYSQgJwG55mgxKp0y3-15" value="Cloud&#xa;Pub/Sub" style="sketch=0;html=1;fillColor=#5184F3;strokeColor=none;verticalAlign=top;labelPosition=center;verticalLabelPosition=bottom;align=center;spacingTop=-6;fontSize=11;fontStyle=1;fontColor=#999999;shape=mxgraph.gcp2.hexIcon;prIcon=cloud_pubsub" vertex="1" parent="dRZYSQgJwG55mgxKp0y3-50">
          <mxGeometry x="140.89" y="11" width="66" height="58.5" as="geometry" />
        </mxCell>
        <mxCell id="dRZYSQgJwG55mgxKp0y3-43" style="edgeStyle=orthogonalEdgeStyle;rounded=0;orthogonalLoop=1;jettySize=auto;html=1;entryX=0.825;entryY=0.5;entryDx=0;entryDy=0;entryPerimeter=0;fontSize=11;fontColor=#1C1C1C;fillColor=#dae8fc;strokeColor=#6c8ebf;" edge="1" parent="dRZYSQgJwG55mgxKp0y3-50" source="dRZYSQgJwG55mgxKp0y3-17" target="dRZYSQgJwG55mgxKp0y3-15">
          <mxGeometry relative="1" as="geometry" />
        </mxCell>
        <mxCell id="dRZYSQgJwG55mgxKp0y3-17" value="Cloud Scheduler" style="html=1;fillColor=#5184F3;strokeColor=none;verticalAlign=top;labelPosition=center;verticalLabelPosition=bottom;align=center;fontSize=11;fontStyle=1;fontColor=#999999;shape=mxgraph.gcp2.cloud_scheduler" vertex="1" parent="dRZYSQgJwG55mgxKp0y3-50">
          <mxGeometry x="274.89" y="23" width="30" height="34.5" as="geometry" />
        </mxCell>
        <mxCell id="dRZYSQgJwG55mgxKp0y3-53" value="" style="group" vertex="1" connectable="0" parent="1">
          <mxGeometry x="50" y="231" width="150" height="83" as="geometry" />
        </mxCell>
        <mxCell id="dRZYSQgJwG55mgxKp0y3-51" value="" style="shape=image;verticalLabelPosition=bottom;labelBackgroundColor=default;verticalAlign=top;aspect=fixed;imageAspect=0;image=https://mms.businesswire.com/media/20211116005663/en/927547/22/PlanetScale_logo.jpg;imageBorder=#B8B8B8;" vertex="1" parent="dRZYSQgJwG55mgxKp0y3-53">
          <mxGeometry width="150" height="75" as="geometry" />
        </mxCell>
        <mxCell id="dRZYSQgJwG55mgxKp0y3-52" value="" style="sketch=0;outlineConnect=0;fontColor=#232F3E;gradientColor=none;fillColor=#2E27AD;strokeColor=none;dashed=0;verticalLabelPosition=bottom;verticalAlign=top;align=center;html=1;fontSize=12;fontStyle=0;aspect=fixed;pointerEvents=1;shape=mxgraph.aws4.rds_mysql_instance;glass=0;" vertex="1" parent="dRZYSQgJwG55mgxKp0y3-53">
          <mxGeometry x="117.49285714285713" y="47.02542857142857" width="32.50714285714285" height="32.50714285714285" as="geometry" />
        </mxCell>
        <mxCell id="dRZYSQgJwG55mgxKp0y3-54" style="edgeStyle=orthogonalEdgeStyle;rounded=0;orthogonalLoop=1;jettySize=auto;html=1;exitX=0.175;exitY=0.5;exitDx=0;exitDy=0;exitPerimeter=0;entryX=0.25;entryY=1;entryDx=0;entryDy=0;fontSize=11;fontColor=#1C1C1C;fillColor=#dae8fc;strokeColor=#6c8ebf;" edge="1" parent="1" source="dRZYSQgJwG55mgxKp0y3-14" target="dRZYSQgJwG55mgxKp0y3-51">
          <mxGeometry relative="1" as="geometry" />
        </mxCell>
        <mxCell id="dRZYSQgJwG55mgxKp0y3-55" style="edgeStyle=orthogonalEdgeStyle;rounded=0;orthogonalLoop=1;jettySize=auto;html=1;fontSize=11;fontColor=#1C1C1C;entryX=0;entryY=0.5;entryDx=0;entryDy=0;startArrow=block;startFill=1;fillColor=#dae8fc;strokeColor=#6c8ebf;" edge="1" parent="1" source="dRZYSQgJwG55mgxKp0y3-51" target="dRZYSQgJwG55mgxKp0y3-36">
          <mxGeometry relative="1" as="geometry">
            <mxPoint x="170" y="310" as="targetPoint" />
          </mxGeometry>
        </mxCell>
        <mxCell id="dRZYSQgJwG55mgxKp0y3-67" value="" style="group" vertex="1" connectable="0" parent="1">
          <mxGeometry x="479.99999999999994" y="-22" width="186.19000000000005" height="50" as="geometry" />
        </mxCell>
        <mxCell id="dRZYSQgJwG55mgxKp0y3-61" value="" style="shape=image;verticalLabelPosition=bottom;labelBackgroundColor=default;verticalAlign=top;aspect=fixed;imageAspect=0;image=data:image/png,iVBORw0KGgoAAAANSUhEUgAAAgAAAAIACAYAAAD0eNT6AAAABGdBTUEAALGPC/xhBQAAACBjSFJNAAB6JgAAgIQAAPoAAACA6AAAdTAAAOpgAAA6mAAAF3CculE8AAAABmJLR0QA/wD/AP+gvaeTAAAAB3RJTUUH5AkXACYD2wgs/QAAemhJREFUeNrt3XV4VFf+BvD3zsTdiUAIECy4J2gS3CXBi9cp3W5X2m5/LdS2W4MWpy1uJUSguEWwBHcLECCBEOLuM/P7Y0Lb3TJDQmbmjryf5+HZfWiY+72TmXvfc8495wgKhUIBIiIiMikSsQsgIiIi3WMAICIiMkEMAERERCaIAYCIiMgEMQAQERGZIAYAIiIiE8QAQEREZIIYAIiIiEwQAwAREZEJYgAgIiIyQQwAREREJogBgIiIyAQxABAREZkgBgAiIiITxABARERkghgAiIiITBADABERkQliACAiIjJBDABEREQmiAGAiIjIBDEAEBERmSAGACIiIhPEAEBERGSCGACIiIhMEAMAERGRCWIAICIiMkEMAERERCaIAYCIiMgEMQAQERGZIAYAIiIiE8QAQEREZIIYAIiIiEwQAwAREZEJYgAgIiIyQQwAREREJogBgIiIyAQxABAREZkgBgAiIiITxABARERkghgAiIiITBADABERkQliACAiIjJBDABEREQmiAGAiIjIBDEAEBERmSAGACIiIhPEAEBERGSCGACIiIhMEAMAERGRCWIAICIiMkEMAERERCaIAYCIiMgEMQAQERGZIAYAIiIiE8QAQEREZIIYAIiIiEwQAwAREZEJYgAgIiIyQQwAREREJogBgIiIyAQxABAREZkgBgAiIiITxABARERkghgAiIiITBADABERkQliACAiIjJBDABEREQmiAGAiIjIBDEAEBERmSAGACIiIhPEAEBERGSCGACIiIhMkJnYBRCR6cjKysHRo2dw5859ODs7onfvbmjduhkEQRC7NCKTwwBARFpXUlKGvXvjsHTpBpw5cwllZaWQSs3h5+eDl14aixkzwtGkSUOxyyQyKYJCoVCIXQQRGSeZTI5Tpy5gyZIN2L37CIqLC6EceXza4pdDEKTo0KE1XnttKsaPHwpXV2exyyYyCQwARKQVd+48wM8//4KNG2OQnv4Yypu+qq5+OSwsLNG3b3e8+eZ0DB7cBzY21mKfApFRYwAgIo3KycnDtm17sHLlJly5cguAHLV73lgBQA57e0eMHNkfb775Enr06AQzM6nYp0RklBgAiEgjyssrcOjQcSxZsh4JCUmorKzAi000UgBQwNOzAaZMGY2XX56I1q39xT49IqPDAEBE9aJQKHD+/DUsW7YR0dH7UVCQh/8e539RcgACWrZshjlzJmLq1NHw9m4g9ukSGQ0GACJ6YQ8ePMK6dZFYu3Y7HjxIg/px/j9S1PLnAEAOqdQc3bq1x5tvTsOoUQPg6Ggv9qkTGTwGACKqs4KCIkRHH8CyZRtw/vxVKBQy1H6cXwErK2tUVFTW4d8BgBzW1jYYMKAX5s6djuDgQFhaWoj9VhAZLAYAIqq1ysoqHD16CosXr8OhQ8dRXl6GutzALSwsERIShGnTxuHKlZvYtCkGjx49b4bAHykDhIuLC8aNG4LXX5+KTp3aQCLhQkJEdcUAQES1cvVqMlas2ISIiN3Izs5B7W/aylkA7dq1whtvvIQJE4bD1dUJMpkcZ85cwooVm7Bz5yEUFOSj9s8OKIOAr28jTJ8+DrNmhaNpU1+x3yIig8IAQERqPX6ciY0bY/DTT7/gzp17NX9b+5u0t7cXpk8fh5dfnohmzRr/6afKyspx5MgJLF26EfHxiaioKEddehUEQYp27VritdemYPz44XB3dxH7LSMyCAwARPRMxcWl2L37CJYu3YCkpAuQyapQlxuznZ09Ro7sj3nzZqB7946QStX/29zcAkRH78fKlZtx4cI1yOXVdTqeubklevfuirlzp2PIkL6wtbUR+y0k0msMAET0X2QyGU6ePI8lS9Zj7944lJQUoy43YjMzc/Ts2QXz5s3EsGHBdV7RLzU1HRs2RGPduu24e/dBzd/WtsdBDjs7BwwfHoI335yGnj07w8yMW54QPQsDABH9Jjn5Hn76aSs2bdqBjIwnqNvDeUDLlv549dXJmDp1NBo0cHvhOhQK4MqVm/jxx62IiNiDrKysOtaiQIMGHpg0aSReeWUS2rRpIfZbS6R3GACICFlZufjll11YtWozrl27jbot36uAh4c7Jk8ehVdfnYKAAM2t2ldVVY3jx89i+fIN2LcvASUlRajbg4JA8+ZNMH36OMyZMxFeXh46f2+J9BUDAJEJKysrx8GDx7B48TocO3YaVVWVqEt3v42NDQYP7od582agd+9uMDfXTnd7cXEJ9uyJw/Llm3Dy5DlUV9etTkCCgQP7YOnST9CiRRPtv7FEBoABgMgEyeUKnDt3BUuXbsCOHQdRWJiP2res5ZBIzNCtW3vMnTsdY8YMhL29nU7qfvIkG9u27cZPP23F1avJqH1PBQDIMGvWJKxY8TkXECICAwCRybl//yHWrInAunVRSEt7iLqO8zdp4os5cyZixowwNGzoKco53LlzH2vXRmLTph1ITX1Uy38lh7e3Fw4e3Ig2bZqLUjeRPuHjsUQmIi+vEFFR+7B8+UZcvHi9zsv3Ojs7Izx8GN588yV06BAAQcTF9/z9/fDWW9Px6NETbNwYDblcXot/JUFmZjZOnDjLAEAEBgAio1dZWYm4uCQsXrwOR46c+MNCO7W5+cthaWmF0NCemDdvJkJDg0TvPi8tLcPevfFYunQ9EhMv1PLmr1RdXYnY2JOYPn0crKwsRT0PIrExABAZscuXb2L58k3Yvn0PcnNzoezqr92NXxCk6NChLd54YxrGjx8KZ2dHUc9FLpfj9OlLWLJkPX799TCKiwsBSOv4KgKSki7gwYNHaNmyqajnQyQ2BgAiI/ToUQY2bIjG6tXb/rCYTu27+xs29MGMGWGYM2cCmjRpJPbp4O7dB/j5523YsCEa6elPNw+q681f+R6kpz/B8eNnGQDI5DEAEBmRoqIS/PrrYSxduh6nT1+qw3K6yhu/vb0DRo8eiLfemo5u3dpDIqntE/bakZubj4iIvVixYiMuX76Juj31/2xVVRWIjT2Jl14aI/pwBpGYGACIjEB1dTVOnDiHJUvWY9++eJSWlqAu4/xmZhbo06cb5s2bicGD+8LGxkrU86moqMThwyewePE6xMcnorKyog7n8zzKYYDU1HQ0b+4n6nkSiYkBgMjA3bx5Fz/+uBVbtuzEkyeZqP04vwKAgNatW+C116Zg8uRR8PBwFfVcFAoFLl68jmXLNiIqah/y8/OguRv/UwIePnyMkyfPMQCQSWMAIDJQmZk52LJlJ378cStu3Lhd87e17+5v0MADU6eOxquvTtGL8fC0tMdYuzYSa9ZE4MGDVLz4OP/zCKisLEds7ElMnjwKFhbmYp86kSgYAIgMTGlpGfbvP4olS9bh+PGzdV4W18bGFsOGBWPevJno2bMLzMy0cZOtvcLCYsTEHMSyZRtw9uzlOqxPUB8CTp48j4cPM9C0qfgPORKJgQGAyEAop8FdxrJl67Fz52EUFRWgLuP8UqkZunfvjLfemoGRI/vD3t5W1POpqqrG0aOnsXjxWhw8eBzl5SVQtvh18eChgLS0dCQmnmcAIJPFAEBkAFJSUrF6dQTWr4/Co0fpqH33uHL53mbNmuDllydi2rRx8PFpIPbp4Nq121i5cjN++WUXsrOz63A+miKgoqIMsbEnMWHCcK1tYkSkz/ipJ9JjubkF2L5dOQ3u0qUbqNs2vXK4uLhiwoTheOONl9C+fSuxTwcZGVnYuHEHfvppC27fvlfzt2JNNRRw4sRZpKc/QePGPmK/NUQ6xwBApIcqKipx5MhJLFmyDnFxiXVevtfKyhr9+/fC22/PRHBwoOgPupWUlGL37ria5XvPQyarquW5aJOABw8eISnpAgMAmSQGACI9opwGdwMrVmxCZORe5OXloa7L93bq1B5vvjkNYWFD4OTkIOr5yGQyJCVdwJIl67F7dyxKSoqgu3H+5xFQXl6K2NiTCAsbKvrDkES6xgBApCfS0h5j/foorFkTgXv3Umv+tvbT+nx9G2LmzHDMmjUefn4NxT4d3L59Hz/99As2boxBRkYGdD/OXxsCjh07g8ePM9GokZfYxRDpFAMAkcgKC4uxY8fTaXBX6rx8r6OjI8aMGYS5c6ejS5d2kEhE3KcXQHZ2HrZt24UVKzbj2rVkaGL5Xu0RcP/+Q5w+fZEBgEwOAwCRSKqqqnHs2BksWbIOBw4cRVlZKeoyzm9ubom+fbvj7bdnYuDA3rC2Fnf53vLyChw8eAyLF6/D0aOnUFX1dH0Cfb35A4CAsrISxMYmYsyYwZBK9blWIs1iACASwfXrt7Fq1RZs3boLWVlZqMs4PyBBmzat8PrrUzFp0ki4uTmLei4KhQLnzl3F0qUbEBNzAIWF+dD/G/8fCTh69DQyMrL0Yookka4wABDpUEZGNjZv3oGfftqKW7fu1vxt7bv7vbw88dJLY/DKK5PQvHkTsU8H9+8/wtq127F27XakpT2Efo7zP4+AlJRUnDlzGT4+A8UuhkhnGACIdKCkpAx798ZhyZL1SEw8h+rqukyDk8PW1g7Dh4di3rwZCArqBKlU3Jtsfn4hoqP3Y9myjbhw4ZqOlu/VFgGlpcWIizuJUaP6i74FMpGuMAAQaZFMJsepUxewdOkG7Np1BMXFRajb8r3mCAzsinnzZmD48FDY2dmIej6VlVWIj0/C4sXrcPjwCVRUlNXhfPSZgISE03jyJAdeXu5iF0OkEwwARFpy584D/PzzNmzcGI309Meo2za9QPPmzfDKK5Pw0ktj4OXlIfbp4MqVW1i+fBMiInYjNze3DudjCATcvXsf585dwYgRoWIXQ6QTDABEGpaTk4+IiN1YsWIzrly5ibot36uAm5sbJk4cgddfn4q2bVuIfTpIT3+CDRui8fPP23D37v2avzWWG/9TAoqLixEXl4jhw0MgCOJOpSTSBQYAIg0pL6/A4cPHsXjxeiQkJKGysgJ1W77XBoMG9ca8eTPRr193mJuLu3xvcXEJfv31CJYuXY9Tpy7WYX0CwxUfn4TMzBw0aOAmdilEWscAQFRPCoUC589fw/LlGxEVtR8FBfmo6/K9Xbp0xNy50zB27GA4OtqLej7V1TKcPHkOixevw7598SgtLYb+LN+rTQJu376HCxeuYciQfmIXQ6R1DABE9ZCamv7bNLgHD9JQt3F+Bfz8fDFr1njMnBkOX19vsU8Ht26lYNWqLdiyZSeePMmEYU7re1ECioqKEBeXiMGD+4GjAGTsGACIXkBBQRFiYg5g2bINOHfuah2mwSlv/E5OThg3bgjmzp2GTp3aiD7mnJmZg61bd2HVqs24ceN2zd8ae4v/2eLjk5CdnQt3dxexSyHSKgYAojqorKzC0aOnsXjxOhw6dAzl5XWZBieHhYUlgoMDMW/eTAwY0AtWVpaink9ZWTn270/A4sXrcPz4WVRXP12+11QJuHkzBZcuXceAAb3FLoZIqxgAiGrp6tVkrFy5Gdu27UJ2dg7qunxvu3YBeOONqZgwYQRcXZ1EPRe5XI4zZ65g6dL12LnzEIqKCmAc8/nrS0BhYQFiY5MYAMjoMQAQPcfjx5nYuDEGP//8C27fvlfzt7Xv7vf29sK0aePwyisT0axZY7FPBykpaVi9ehvWr4/Co0fpMK1x/tpQID4+ETk5eXB1FXefBSJtYgAgUqG4uBS7d8di6dL1SEq6AJmsbsv32tnZY+TI/njrrRno0aOj6DvN5eUVYPv2vVi+fCMuXboB/d6mV0wS3LhxB5cv30JISKDYxRBpDQMA0f+QyWRITLyAJUvWYc+eOJSUFKMu4/xmZubo2bM75s2biaFDg2Fray3q+VRUVCI29iQWL16H2NhEVFaW1+F8TJGA/PwCxMUlMgCQUWMAIPqD5OR7+OmnX7BpUwwyMp6grsv3tmzpj1dfnYKpU0eLvpiMQgFcunQdy5dvQmTkXuTl5YI3/tqSIz4+Ebm5s+Hi4ih2MURawQBABODRoyeIjt6PVau24Nq1ZNR1+V53d3dMnjwKr702BQEB/mKfDh4+zMC6dZFYsyYC9+49AMf560qCq1eTce1aMvr06SZ2MURawQBAJi0vrwCrV2/Dhg3RuHnzDqqqnk6Dq113v7W1DYYM6Yd582agd+9uMDcX9ytVWFiMHTsOYdmyDTh79rJJLN+rHQLy8vIRF5fIAEBGS1AoFAqxiyASQ1lZOf75zy+xYsUmyGSV+HMLWdXiPHJIJGbo2rU93nprOkaPHggHBztRz6WqqhrHj5/B4sXrcODAUZSVlYAt/vqSITi4F2JiVsHJyUHsYog0jj0AZLIOHDiKdesiIZNV49k3y6fZWPivv2vSpDHmzJmAGTPC0LChl9ingevX72DVqs3YuvVXZGVlg939miLBlSu3cP36HfTs2VnsYog0jgGATFJJSSk2bIhCcXEhnn+zVAYBS0tLTJ06Bn/5yyy0b99K7FPAkyfZ2LRpB378cSuSk+/W/C27+zVHQE5OHuLjkxgAyCjxakEmKS4uCUeOnEDtvwIKSCQC7OxsRJ/WV1JShu3b92L8+Ll4773/IDn5DpStfu5eo3kyxMUloqCgSOxCiDSOzwCQySkuLsG0ae9ix469qFtXuQKAgFat/PHKK5MxZcooeHq666xumUyOU6cuYsmS9di9+0gtey+ofhRwd3fF7t1r0L17B7GLIdIo9gCQyYmNTaxj6/8pZQv75s1k/POf/0Z4+BvYuvVXFBWVaL3mO3ce4F//+gbh4W/gl192oLi4GLz564KArKxcxMcniV0IkcaxB4BMSlFRMV566a/49df9qP8NVAYbG1sMGtQPb701HX37doe5ublG683Jyce2bbuxcuVmXLlyE1y+VwwyDBkSioiIZbC3txW7GCKNYQAgk7Jjx0FMm/bXmhb0s8bMFfj9JlubMXXlz7u6umH8+GF4/fWX0L59awj1HI4vL6/AoUPHsWTJOiQknEJlZQV44xeLAg0auGPPnrXo0qWt2MUQaQyvKGQyCguLsXr1tpqx82ff/B0cHNCvXy84ONgDkOH3qYCqKKfc5eTkYuXKjRgz5hV89tkPePDg0QvVqFAocO7cVbz55keYNu1dHDqUgMrKp4sTkTgEZGbmICHhlNiFEGmUdMGCBQvELoJIF3bvjsX3369GZWU1VAWAceOG4uefv0KnTm2RmZmHR4+e1Kym97wmvfIp/Pz8fCQknEZCQhIEQYImTRrB2tqqVvWlpqbjhx/W4v33v0ZCwklUVDxt9fPpfvHJYG5ugVGjBsLCQrPDPERi4RAAmYSCgiJMmfI29u49DFWL/ri4OGPbtmUYMKAXACArKxcREbuxatWWFxh/l8PCwhL9+gVi7tzpGDSoj8ogUFBQhOjoA1i2bAPOn78KhUJWh+OQbijg5dUAe/euRceOAWIXQ6QR7AEgk7Br1xH88MMaVFWpb/3PnTvjt/X8bW2t0b17Bwwa1Bf29nZ48OARCgoKan7++T0CMpkMKSn3sHdvPG7dSoGXlwe8vRtAIlH+26qqKsTFJeL997/CkiXrkJb2EJzPr68ElJaWoXVrf/To0VHsYog0gj0AZPTy8wsxefI87N8fC1Wtf1dXF0RELEdoaNAzX0Mul+P8+WtYuXIToqP3/2Fr3do+KKiAl5cnpk4dg9mzJ6KqqgqrVm3Btm27kZOTA974DYEMo0cPwZYtP8DGRtzFoIg0gQGAjN62bbsxe/Y/UFpaimffZOWYPn08Vq36N6ysLNW+VkVFJeLiErFs2QYcOXICZWWlqMuwAKB8LkAmUyA19WHN3/PGbxgU8PHxxL5969GuXUuxiyGqNw40klF7ut1vaanqaX9ubm6YNWv8c2/+AGBpaYEhQ/ph06bvsWLFF+jRowukUgmUN/fnUX7d7t1LRWpqGtjqNzQCMjKycezYabELIdIIBgAyavv2xeP48TNQ/VFXYMSI/ggKqttmL46O9pgxIwxRUSvwxRf/RIsWzfC0q1+1pzd8CfjVM0wyWSViYxNRVlYudilE9carEBmt3Nx8rFkTgbKyEqhq/bu7u2PWrPGwtLR4oWP4+HjivfdeR0zMj3jnnTlo0MADyt6A/w0CbOkbBwGnT1/EvXsP6/9SRCJjACCjtXdvPE6cOAt1rf+RIwcgMLBjvY8VENAc33zzIbZvX45Jk0bD3t4OtVtIiAyLBI8fZ9b0KhEZNgYAMko5OXlYsyYC5eWqHvxTwMPDA7Nnj4eFxYu1/v+XmZkUffp0w88/f411675DaGifmteuzfMBZCiqqysRG3sS5eUVYpdCVC8MAGSU9uyJQ2LiOahr/Y8ePRDduml+i1dbW2uMGzcE27YtxaJFH6N9+zaQSPhVMx4CkpIuvPByz0T6glclMjrZ2bnPbf17ejbArFnjtbqsq5ubC958cxp27PgR48cPB4cDjIUE6elPcPz4WbELIaoXBgAyOrt2HUFS0nmob/0PQteu7XVST5MmjfDqq5Ph6OgAhgDjUFVVgdjYk6ioqBS7FKIXxgBARiUzMwdr125HRUUZVLX+vbw8MXNm+G9L/upC+/at0KJFUzAAGAsBSUnnkZaWLnYhRC+MAYCMyq5dh3Hq1EWoa/2PHTsYXbq002ldbm7OKpcZJkMk4OHDDJw4cU7sQoheGAMAGY0nT7Kxdu12VFaqav3L4e3thRkzdNv6fyokJAj29hwGMA4CKivLERubiMrKKrGLIXohDABkNH799RDOnLkE1R9rAePGDUHnzm1Fqa9TpzZo0cIPDADGQsDJk+fw8GGG2IUQvRAGADIKGRlZNa3/cqhq/TdsqGz9m5lJ6/ryGuHh4YqQkJ6ivk+kSQLS0tKRmHhe7EKIXggDABmFHTsO4uzZK1DX+g8LG4pOnQJErTMkJBB2dvZgL4AxEFBRUYbY2JOoqqoWuxiiOmMAIIP3+HEm1q2LRFWV6tZ/o0Y+mD49DFKpOK3/p7p0aQd//8ZgADAWAk6cOIv09CdiF0JUZwwAZPBiYg7g3LkrAFTd3AWEhw9Fhw7itv6Bp8MAQWAAMBYCHjx4hKSkC2IXQlRnDABk0B49eoJ16yJRXa1qQRY5fH0b1rT+xf+4C4KA4OBA2NpyGMA4CCgvL0VsbCKqq2ViF0NUJ+JfEYnqITp6Py5cuAp1Y//jxw9D+/atxC71N927d0DTpr5gADAWAo4dO43HjzPFLoSoThgAyGA9fJiB9esjUV2tah62HH5+jTB9ephebcajHAYIBAOAsRBw//5DnD59UexCiOpEf66KRHUUFbUPFy9eh7rW/4QJI9C2bQuxS/0vEokEISE9YWNjB4YAYyCgrKwEsbGJkMm49TMZDgYAMkhpaelYvz4KMpnq1n+TJr6YNm2sXrX+n+rRowOaNGkEBgBjIeDo0dPIyMgSuxCiWtO/KyNRLURG7sPlyzeg+iMswcSJIxEQoF+t/6caNHDjMIBREZCSkoqzZy+LXQhRrTEAkMF58OARNmxQ3/pv1qwxXnppLCQSoU6vrSsSiQShob1gY2MLhgBjIKC0tBixsSchl3MYgAwDAwAZnO3b9+Dy5ZtQ1/qfNGkkAgL8xS5VrR49OsLPj8MAxkNAQsJpPHmSI3YhRLXCAEAG5f79h9i4MRpyuaqlV+Xw9/fD1KljIAj62fp/ytPTDcHBHAYwHgLu3r1fsygVkf5jACCDEhGxG1evJkNd63/y5FFo1aqZ2KU+l3I2QBCsrGzAEGAMBBQXFyMuLhEKBX+fpP8YAMhgpKSkYePGGLWt/xYtmhhE6/+poKBO8PNrCAYA45GQcAqZmRwGIP3HAEAGY9u2Xbh2TXXrXxCkmDJlNFq0aCJ2qbXm6emOfv04DGA8BCQnp+DChWtiF0L0XAwAZBDu3n2ATZtioFCoWm9djpYtm2Ly5NEG0/oHAKlUiuDgQFhachjAOAgoKiqqGQYQuxYi9RgAyCD88ssu3LhxB+pb/2MMqvX/VK9eXdC4sTcYAIxHfHwSsrNzxS6DSC0GANJ7t2/fx+bNO9S2/lu1aobJk0eKXeoL8fLyQN++PcAAYCwE3LyZgkuXbohdCJFaDACk97Zu/RU3b96Futb/Sy+Nhb+/n9ilvhAzs6fDANZgCDAGAgoLCxAXlyh2IURqMQCQXrt1KwVbtqhv/QcENMfEiYbZ+n+qd++uaNTICwwAxkKBuLhE5OTkiV0IkUoMAKS3FAoFtm79FcnJKVD1UZVIzPDSS2PRrJmv2OXWi7d3A/Tp0x0MAMZCghs37uDy5VtiF0KkEgMA6a1bt1KwdetOKBSq1laXo02bFpg4cYTYpdabubkZgoMDYWFhBYYAYyAgP5/DAKTfGABILykUCmzevAPJyfegrvU/bdrYmm11DV+fPt3QsCGHAYyHHPHxicjNLRC7EKJnYgAgvXTjxh388ssuAKpb/23btsT48cPFLlVjfHw80atXVzAAGAsJrl27XbN4FZH+YQAgvfO09X/nzn2o+ohKpWaYPn1czTK6xsHCwhwhIYEwN7cEQ4AxEJCbm8/NgUhvMQCQ3rl+/fZzW//t2rU2qtb/U336dIePjycYAIyFHJWVVWIXQfRMDACkV+RyBTZujEFKSipUt/7NMX36OPj6eotdrsY1auSFnj27gAHAGChgb++Atm1bil0I0TMxAJBeuXYtGRERu6Gu9d+hQ2uEhw8Tu1StsLS0QEhIEMzMLMUuhepFGeBGjx6A3r27il0M0TMxAJDekMvl2LgxGvfuqW79m5mZY8aM8JpFc4xT377d4e3dAKpDEOk3OWxtbfHqq1Pxn/+8BwcHO7ELInomM7ELIHrqypVbiIjYA2Xr6Vk7+snRsWN7hIUNEbtUrfL19UZQUCekpqaKXQrVibLV36FDW/z9769g3LjBsLGxFrsoIpXYA0B6QSaTY8OGaDx4kAbVrX8LzJgRXvOQnPGysrJESEgQpFILsUuhWpPD0dEBc+fOwPbty/DSS2N48ye9xx4A0guXL99AZKS61r8MnTt3wLhxg8UuVSf69QuEt7cH0tIegTld38kRENAS8+f/BaNHD4SlJYMbGQZeWUh0MpkMGzZEIzVV1c1OAXNzS8ycOb5mbNz4NW7sje7dO4KzAfSZAhKJBMOG9cemTYswYcJw3vzJoDAAkOguXryByMi9UH2zk6NLl3YYM2aQ2KXqjLW1FUJDgyCVmotdCj2T8kG/d96ZjTVrvkanTm3ELoiozjgEQKKqrpZhw4ZIPHyYDtWtfyvMnDkeXl4eYperU8HBgfD09MCjR6reGxKHHK6urliw4B28/PIkWFmx1U+GiVcVEtXFi9cQFbUf6lr/3bq1x+jRA8UuVef8/BqiW7f24DCAPpHD29sLixZ9hDfeeIk3fzJoDAAkmurqaqxbF4VHjx5DVevfwsIKs2aNh6enu9jl6pyNjTVCQ3tCIuEwgH6Qo1mzJli27DNMmzYWUikvn2TY+Akm0Zw/fxUxMepb/927d8SoUabX+n8qODgQDRq4g70AYlPe/Jcv/xxjxpju55GMCwMAiaKqqhrr1kUiPV1169/S0hqzZo2Hh4er2OWKpmlTX3Tr1g5cFVBMcjRs6INFiz7CoEG9xS6GSGMYAEgU585dQUzMQTx7zj8AyNGjRyeMHDlA7FJFZWtrjZCQnhAEPq8rDjk8PNzx9dcfYOTI/mIXQ6RRvKqQzlVVVWHt2u3IyMjA81r/7u4uYpcrutDQQDRo4IaMjEyoDkykeQo4ODji88//jokTR4hdzJ+Ul1egvLwC1dUyyGTKPwAglUohlUphZiaFlZUlrKy4sRQ9GwMA6dyZM5exc+chqGv9BwV1xogRbHEBQNOmjdG5c1vs3XsYgFTsckyEAmZmZpg3bwZmzgyDRCJu8Covr0BWVi5u3LiDO3fuIzU1Hampj5CRkYXi4lKUlpahtLQMgPLhURsba9jZ2cDT0x2+vj7w9fWGv78fWrf2h7u7C0MBAWAAIB2rrFS2/p88eQJVrX8rKxvMnj0Bbm7OYperF+zsbNC/fy/s3RsndikmZdy4IXj33Zdhbi7OLIzi4lJcv34bCQmncPbsZVy8eB0ZGZkoLi6FXF71h59UFU5+f3BUIjGvCQQe6NgxAF27tke/fj0QENAcdnY2opwfiU9QKBR8vJh05vjxMwgLex2ZmdlQteZ/aGgfREQsh6urk9jl6o0LF65h6NCZePIkCxwG0DY5unXriI0bF6Fly6Y6PbJCocDdu6k4dOgY9u6Nw+nTF5GZmQNABuXv/emfF3r1P/yRwsPDFd27d8SwYSEYOLAPmjXzhSDws2VK2ANAOlNRUYm1a7cjMzMLqlr/1ta2mD17Am/+/8Pf3w8dOwbgwIE4cBhAm5QP/X366d90evOXyxW4efMutm3bhYiI3bh9+z5kskoovycCNPM7/+/wkJmZjd27D2Lfvng0b+6HCRNGYOLEkWjVqpnoQx6kGwwApDOnTl3Arl2HoW7sv1evrhg6NETsUvWOvb0t+vfvhQMHjopdilGTSMzw6qtTMHBgL50d8/79h1i9ehu2bPkVKSkPoJzyKYH2g54yWMhkMty8eRuffvoDNm3agSlTRmHOnInw82uos/eAxMFpgKQTFRWVWLNmO7KyVHX9/976d3FxFLtcvRQSEgR3d1dwUSBtkaNv3+54882XIJVqv5elpKQUmzbFIDz8DXzxxVKkpNyr+S9iXJaVx0xJuYcvvliK8PA3sGlTDEpKSkWohXSFAYB0IjHxPPbsOQJ1rf8+fbpjyJBgsUvVWy1bNkXHjgHgokDaoIC7uzvef/9NnWw6detWCt588yO89tq/cO7cJSgfxXqRy/Efx/XlNX/++Hd1JYFCocC5c5fw2mv/wptvfoRbt1K0/n6QODgEQFpXXl6BNWsikJ2dA1Vj/zY2dpgzZwKcnR3ELldvKYcBeuLQIQ4DaJ6A6dPHon//nlo9ilwux/79Cfj444U4d+5yzd/W9sb/3zd2icQcNjbWsLS0gJmZ9LdeC5lMhupqGSoqKlFaWvaHGQN1eYhQgtLSUmzYEIlr15Lx6afvYsiQfpBI2GY0JgwApHUnT57Dnj2xUNf679u3BwYN6id2qXovNLQn3Nxca8IUH9TSDDlatvTHnDmTYGamva7/iopKrFq1BV98sRSZmZmo/Y1f2aq3srKBh4cr2rRpgXbtWsHPryF8fb3h4eEKGxsb2NhYAQBKS8tRWlqKzMwcpKam4/79h7hy5SauXUtGZmYOystLofzsPO/4ys/XuXOXMGvWP/Dhh2/htdemwNKSOyAaCwYA0qqysnKsXh2B3NxcqGr929raY86cCXByshe7XL3XsmVTtG/fCrGxx8DZAJohlZph1qwJaN26mdaOUVxciu+++xHffPMjSkqKUbubvxwSiRkaN26Efv0CMWhQH3Tt2g6enh6wt7et0/GLikqQkZGJs2ev4ODBY0hISMKDB48gl1fXohYJMjMz8a9/fY28vHz87W+vcu0AI8EAQFp1/PhZ7NsXB3Wt/+DgQAwc2EfsUg2Cg4Md+vfvhdjYE2KXYiTk6NKlA6ZOHa21IxQWFmPBgu+xfPkGVFRU4Pk3XDnMzCzQvn0rTJkyGiNG9EfTpo3qtSCRvb0t7O2boHnzJggPH4qUlDTs3n0EW7bsxOXLN1Fd/XTKoSoSlJSU4Msvl6OgoBgLFrwDBwc7rb1npBsMAKQ1ZWXlWLMmAnl5eVDV+rezs8fs2RPg6MjWf22FhgbB1dUFOTm54DBA/ZibW2DWrPFo2NBTK69fVlaOL79chqVL16OqqhLqf1/Ksf2AgJZ49dUpCAsbqpW6zM3N0bJlU7Rs2RQTJ45EVNQ+/PjjFly/nlzzE6pqFFBRUYGlS9fD0tIcH3/8F1hbW2nlfSPd4BMdpDVHj57G/v3xUNf6DwnpiQEDuMVqXbRq5Y+2bVuCswHqS442bVpgxIhQrbx6VVUVFi9eix9+WFuLm78cjo4OmDt3BqKiVuIvf5mltVDyRw0beuIvf5mFyMiVmDt3BhwdHaD+cyWgqqoSP/ywFosXr0VVVVVtD0V6iAGAtKK0tAxr1mxDfn4eVM37t7d3wOzZE9iVWEdOTvY1T6vz61sfgiDF+PHD0bChl1Zef8uWX/Hll8tRVvb0oTtV5GjVqjlWrPgCCxf+H1q10t6zCKq0bt0MCxf+H1as+AKtWjXH80JAWVkpvvxyObZs+VXntZLm8ApCWpGQcAoHDhyD6o+YHKGhvdC/v+5WXDMmoaFBcHFxBhcFelFyNG3qi3HjBmvl1U+duojPPluMgoICqP4OKKf0DRzYD5s3/4DJk0fBwkK8J+wtLCwwefIobN78AwYO7Af1awlIUFBQgM8+W4xTpy6KVjPVDwMAaVxJSSlWr96GggLVrX8HB0fMmTOhzk8zk1JAQHO0afO8lhqpM2xYCFq0aKLx183IyMLHHy/E3bv3oO7mLwgSjB8/Aj/++B907txW7LfjN507t8WPP/4H48ePgCBIoC4E3L17Dx9/vBAZGVlil00vgAGANC4+PgmHDh2HutZ///69ERISJHapBsvZ2RGhoT3BhwBfhAIODg4YPjxE4wvbyOVyrFixCYcPq+v9AgABU6aMxpIln8DPz0fsN+RP/Px8sGTJJ5gyZTTUf8YkOHz4OJYv3wi5nGHU0DAAkEYVFytb/4WF+VDV+nd0dMKcORNhZ2cYrf/q6mo8fJiBW7dSkJmZA33ZQTskJAhOTk7gMEBdydGmTUt06dJO46+cmHgBq1dvg1wuU/NTCowaNRBfffU+GjRwE/vNUKlBAzd89dX7GDVqIP78Gft9VUFl6NmMPXvixC6Z6ogBgDQqLu4kDh8+AXWt/4ED+yA4uIfYpdZKamo6/vnP/6B//ykIDp6IoUNnYOHCn1FYWCR2aWjXriVat+YwQN1JMXhwH7i5OWv0VYuKSvD996vx6FE61H3+AwM745tv/gUfH+0/5V9fPj6e+OabfyEwsDN+/5z9b7AXkJ2dhfnzFyElJU3skqkOGABIY4qKSrB6dQSKigqguvXvjNmzJ8DWVv9XEsvMzME773yKRYt+RnLyXWRkZOH8+cv44IOv8c03P6KqqlrU+lxcnGpmA3AYoPYUcHV10srCU/v3J2Dfvniom/bq7e2Fzz77u1aePdCWFi2a4LPP/g5vby+o7m2S4sKFa9iyZYfY5VIdMACQxhw5cqJmhTrVrZ/Bg/ugXz/9b/1XVlZh4cKfsXPnwZq/keDp/ulVVco13RMTz4tdJkJCguDo6AgOA9SWHC1bNkOrVk01+qqFhcVYvz4SJSVFUBV+zc0t8e67L2t9wyFt6N+/J95992VYWFiq+Sk5Nm3ageTke7V+XRIXAwBpRGFhMdas2YaiokKougA6Oblg9uyJsLGxFrvc54qO3o+VKzfXPNj0v+cjQVZWFiIidkMmk73Iy2tMhw6tauaNMwDUVvfuHeDs7KjR14yLS8TRo6eg7qn/0NCemDlzPATB8HpsBEHAxIkj0KRJI6gecpLg1q0Urg1gQBgASCMOHz6OuLhEqLsADhnSD336dBe71Oe6dOnGH+Zwq14Wde/eeNy+/UDUWl1dnbmWQq0pYGlpg+7dO2r0JlxeXoFffvlVbfh1dXXFu+++DFdXJ7HfhBdWXS1HZeXzVv6TIzp6Hx4+fCx2uVQLDABUbwUFRVi9OgLFxaq7P52dnTFnzoTftizVV7m5+fjkk+9r1kVXvznK/fsPsXv3EbFLRnBwIBwcHMBegOdRwMPDFZ07t9HoqyYnp+DYsTNQHRYVGDlygEEMfalz69ZdZGerWtvjKQE3b6bg0CFuVmUIGACo3g4dUm4vqq71P2xYCHr16ip2qWrJZDIsXboeu3YdQW0erFMoqhEdvR/Z2bmi1t2xYwBatGgKBoDnUaBlyybw8vLQ6KseOnQc6elPoGrDK1dXV0yfPg6WluKt8qcJSUkXUFSkKuQ/JaCqqhw7dhxASUmp2CXTczAAUL3k5xdi9eoItQ8/ubi4YPbsCXq/c9ju3bFYvHg9qqurULsn6yW4ePE64uNPiVq3u7tLzaJApJ4CLVo01ehe9oWFxThwIAEKhaoZIXKEhAShR49OYp98vRQUFNU841CbKacSnD59CXfvpopdNj0HAwDVy8GDR5/78NPw4aHo2bOL2KWqdfPmXXzyyffIyclB7b8WAsrKShAZuRfl5RWi1h8SEgh7e3uwF0A1QTBD8+Z+Gl3978GDh7hy5RZUtf4tLKwwYkR/vR/6ep5bt1LUnOf/EpCVlVMzLEL6jAGAXlhenrL1X1paDFWtfzc3V8yePQFWVpZ1fXmdKSwsxmefLcGFC1dR96+EBHFxibh06aao59C5c1v4+/uBAUAVBezsbDU+//78+WvIzc1XecwmTRqhb1/DHvsHlMt7P3/8/3cyWRWOHz8jejAm9RgA6IXt3x+PY8dOQ33rvz+CgjqLXapKCoUCP/64BZGRe/FiC+oIyMzMRnT0flGXCP59GIABQBU7O1s0a9ZYY68nl8tx7twVVFaWQ1UADgzsjIYNG4h96vWSk5OHXbuOqBnmeBYBFy5cVxOOSB8wANALyc0twJo1ESgrK4Gqi5+7uxtmz56g1w8/HTp0HN999zMqKyvw4ivqKbBr12GkpqaLdh6CICA0NAh2dhwGeDYFnJwc4OTkoLFXLCoqwbVrySr/u0Rijq5d28Pc3Fzsk6+XY8fO4MKFa6jb7UIZjLk0sH5jAKAXsm9fHE6cOAt1rf+RIwegR4+OYpeqUkpKGubPX4SMDFVPcNeWBMnJ92qWgRVPly7talq4DAB/poC7u6tGw2hxcWlN6FO18JWDxqcc6lpFRSWiovarechXFQGFhcVqAxKJjwGA6iwnJ/+5rX8PD3fMmjVeb1v/JSVl+PLLZUhKOg9NfA1kskpERu5DQYF4mwR5eLhyGEANd3cXWFho7vOYkZGJ/HzVi/+4uDihceOGYp92vZw7d/U5W3urJpNVsAdAzzEAUJ3t3RuLkyfPQV3rf9SogejevaPYpaq0bl0kNm/eqcFXlOD06Yui7g8gCAJCQgJha8thgD9TwN3dRaOBNDU1HaWlZSqP16iRl0anHOpaRUUl1qyJwJMnT/Ciz8c8fpxZi9UDSSwMAFQn2dl5WLMmAuXlpVDV8mnQoAFmzRoPCwv9HPs8evQ0vvpqBcrKVJ3DixBQVFSI7dv3irpLYLduHdC0qS8YAP7MyckBUqnmLnl5eQWoqlK9ZkTDhl6wttbf2S/Pk5h4Hjt3HkJ9viMZGZmcCaDHGACoTnbvPlLTylXd+h89eiC6dWsvdqnP9PBhBubPX4S0tEfQ/MdfwMGDR3Hz5h3Rzs/Dww0hIYFgAPgzTT+MV1paDplM1cI4Cjg62sPMTD9D8POUlJRh1aotyM7OxosHAAHZ2XmoqKgU+3RIBQYAqrWsrFysXRuBiooyqGr9e3p6Ytas8Xr55HN5eQW+/noV4uPVLVtcHxI8fJiBnTsPi3aOEomA4OBA2NjYgiHgv5mZSTX6eqWlZZDLVe8GaWNjDYnE8Hb+A5S7YdZ2SWx1yssra3bUJH3EAEC1tmvXYZw6dRHqWv9jxw5Cly7txC71mbZu/RVr10ZAuzdGOaKj9yMjI0u08+zRoxP8/Bpp+TwNjUTjobSyshLqlsbV1yGw57lz5z4WLvwZJSWqFviqvcpKBgB9xgBAtZKZmYO1a7eraf3L4e3thZkzw2FubiZ2uX9y+vQlfPHFUhQX1/+ipp6Aa9eSa56cFoenJ4cB/kzQeA+AckaB6kuoIT78VlFRicWL1+HixevQxO2huroacjk/h/qKAYBqZefOQzh9+iJUf2QEjB07GJ07txW71D958iQb8+cvwt2796H9j7yAyspyREXtU/OEuHZJJBIEBwfB2prDAL+T1zywpzm2ttaQSFSHCuUQgWG9/7/8sgvr1kVBU58bS0tLjT54SZrF3ww915MnWVi3bruaJU/l8PFRtv7NzPSr9V9VVYVFi1bj4MGj0N3HXYJjx07j7Nkrop13YGAnNG7sAwaApxQoLtbs9rQ2NtY1N7dnvccCCgqKanaWNAyJiefx2WeLUVSkam2DurOzs4FUqtmeF9IcBgB6rh07DuHMmctQ1/oPCxuCjh31b9WzqKj9WLlys47HIQXk5uYhMnKfaOOfXl7u6NevBxgAfldSUqrR/RqcnBzUPlfw8OFjlJUZxhS41NR0fPjhtxruJVPAzs5G7xoF9DsGAFLr8eNMrFu3HVVVqlv/DRt6Y/r0cI2PsdbXpUs38Omni1FQUADtjvs/2969saKthCaVShESEgQrKxswBACAgOLiUlRXy+r/UjV8fb1hY2Ot8nhpaY813uugDdnZefjgg68RF5cITd8SPDzcYGWln6uBEgMAPceOHQdx7twVqGv9h4cPQ8eOrcUu9b/k5uZjwYLvceNGMsT5mEuQkpJWM5VKHD17duEwwB8UFhahulpzizR5enrUbC707CGA3Nx8PHjwUOzTfs57UoyPPvoOv/yyC5r/nChXQ7S2thL7NEkFBgBSKT39SU3rX9VOeXL4+vpg+vRxejXOJ5PJsGTJeo3MY64PhaIakZF7kZOTJ8rxvbw8avaiZwAABKSnZ2q0S97Ozga+vt5QFQDy8wtx/vw1sU9cpeLiUnz++VKsXh1Rs56Bpr8rZmjUyFvs0yQ1GABIpejoAzUXMFU3dwHh4cPRvr1+tf537TqCJUvWQSarhpgBAJDg4sXrSEg4LcrRzcykCAkJhKWlNRgClIG2pKREY69nb2+LNm1aqPzvcnkVzp69rPHZB5qQl1eA//u/b7F48VpUVVVC898TBezsbNGiRROxT5XUYACgZ3r0KAPr10eiulrVMp5yNG7cqKb1rz8fo5s37+KTT35ATk4uxL35A4CA0tJiREbuFW051F69uqpppZoSAUVFJXj8WHMLNEkkEnTp0g4WFlZQ1QuQlHQeDx8+Efvk/0tGRhb+9rcvsGzZBlRUqOrdqy/l5ksBAf5iny6poT9XbtIrUVH7cfHiNagb+58wYTjatWspdqm/KSgowief/ICLF69Cfz7aEhw5chKXL98U5eheXh7o06c7GACAsrJyPHz4WKOv2blzG7i4OKn4rwLu3UvD0aOnxD7131y7lozXX/8/rFsXWfM8hLZCsgKtW/vD3d1V7FMmNfTlKkl6JC3tcU3rX1XXpRxNmvhi2rRxkEj04yOkUCiwatVWREXth/gt/z8SkJmZhZiYA6Ic3dzcDCEhQWpaqaZCQGlpGe7eTdXoqzZu3LAmBD9ruqdyUajdu4+gtLRc1LOXy+XYvTsWL730V+zcub9mOqQ2vycSdO/e0aC3QzYF+nH1Jr0SGbkXly7dgOqPhwQTJoxQO/6pawcOHMPChT+peWBRTArs3HkIaWmabX3WVu/eXdGokRdMOwAAgAxXryZrdIleBwc7DB7cD4Kgaq67BHFxiTh16oJoZ52Tk49vvvkRc+a8p6PeMQWcnZ1qlqMmfcYAQP8lNTUdGzZEQyZT3fpv2tQX06aN1ZudzlJSUjF//iI8eZIJ/fxIS5CcnIK9e+NEObq3dwP07t0NDAACrly5ifz8Qo2+6sCBveHt3QCqegFycnKwYUO0zp8DkcvlSEg4henT38VHH32HzExdfT/kaNu2hV4ND9Kz6ePVkkS0ffseXLmivvU/adJIBAQ0F7tUAMrV3T7/fClOn74Aff44V1dXIjJyHwoLi3R+bAsLc4SEBMHcnMMAaWnpePDgkUZftUWLpujTR13AErBr12EkJCTp7Ezv33+ITz75AZMnv429e4/UzETQ1fdDisGD+8HZ2VFn50svRn+vmKRz9+8/rGn9q1osRQ5/fz9MnToWgqAfrf+1a7dj69ZfxS6jFiQ4ffoiEhMvinL0Pn26oWFDT5h6ACgoKNL4A5lWVpaYNGkU7O1VLwqUk5ODhQtXIycnX6tnmJ6eiR9+WIsxY17F558vwePHGVBe5nX1fZWjcWMfjB49QEfHo/pgAKDfRETswdWrt/C81n/r1s3ELhUAEB+fhP/8ZyXKy1VtUaxPBBQWFmD79j0aXY2utho29ESvXl1g2gEAqKqqQFLSBY3/DkJCgmoWXVK194OA2NiTWLduu0b3IwAAuVyBlJRULF26AePGvYa///0LXLp0rWYnQt1f4ocODUarVpz+ZwgYAAgAcO9eGjZtioZcrrr137x5E0ydOkYvWv9paY8xf/4iPHqUDsP5GAs4cOAobt5M0fmRLSwsEBISBDMzS7HfBJEJOHHirEbXAwCUDwPOmBEOW1t7qOoFqKqqwMKFP+PIkRMaOWZhYTFOnjyP9977D4YPn4133vkUp06dr9nvQIzvhALu7u6YPHmU3u0LQs/GbZoIALBt225cu6Zu3XwJpkwZhZYtm4pdKsrKyvHll8tx9OhpGM7NHwAkePjwMXbuPIS2bXU/g6JPn+7w8WmABw/SYFjvmyYJePDgIc6cuVwzM0Jzhgzph6FDgxEZuRvP7pGSID39MT766Dv4+vrUeZU8uVyO/PxC3Lx5F/HxpxAfn4QLF64iOzsXytAhgdi/17CwoQgM7CRqDVR7DACEu3dTsWlTTM164M+6gMjRsqU/Jk8erRet/82bd2L9+igoL3ri11M3ckRH78ecORPg6emu0yP7+nojKKgzHjzQ7Fx4wyKgtLQECQlJGDNmoEbXsbC3t8Vf/zoHiYnn1fRMSZCUdB7/+Me/sXz55/DxafDM16qoqERZWTlKSspw//5DXLlyE1eu3MLFi9dx61ZKzf4ST7+vAsT/HihXBn311UmwsDCv/8uRTjAAEH75ZReuX78NVa0HQZBiypQxetH6T0w8j88/X4LS0hKI3dp5MQKuXk3GoUPHMW3aWJ0e2dJSOQwQGblXo9viGh4BCQmn8Phxlsob8IsKDOyEOXMm4vPPF9eMwT/7+Lt2HYZUKkV4+DAACpSWlqO8vBylpeXIzs7Do0cZePToCdLTnyA7OxeFhcWQyZ6u2f/0j/50s0ul5pgzZyI6dAgQuxSqA0Gh6SdSyKDcuXMfo0a9rGbbXDlat26BnTt/RvPmfqLWmpGRhWnT3sXhw0dhmDf/p2QYPXoItmz5Qc1+8tpx61YKBg6chrS0hzDs97A+FLC0tMTq1V9h6tQxGn/1jIwszJjxNxw8GI/f3+NntdCVdQCATCaHTCaDQiGD8kFC4Q//Th9a+OrIMXBgX2za9D08PLj0ryEx1SsA1di69VfcvHkX6lr/U6eOEf3mX1lZha+/XoXDh4/D8D+2Ehw7dhpnz17R+ZEbN/apGaM15dwvoKKiDFFR+1FSUqbxV/f0dMenn76LZs2a4L9v5s+qowIVFRWorq6umR0ggbJjVlrzR5dT+F6EHF5envjggzd58zdAhn4lpXpITr6HLVt21rQ6nkWO1q39MWnSSLFLRUTEHvz88y8wjhuXgNzcPERF7YNcLq//y9WBlZUlQkKCIJWa+jitBMeOncHFi9e18uo9enTERx+9DUdHR6j/zOp7614dBaytbfDee6+jXz8u+2uIGABMlEIBbN26E7dupUDVx0AikeKll8aiWbPGotZ67txVfPLJDygqKoLhXiz/bM+eWI1vTlMbwcE94OXlAdVz1k2BgOzsHMTEHFAzVl8/U6aMwnvvvQELCwsYR3D9IwUEQYKXX56IV16ZpDfLglPdMACYqFu37j639R8Q0AITJ4rb+s/OzsX8+Ytw547qoGKYJEhJScPu3Ud0fmQ/v4bo3r0jjO+mVFcKxMQcqHkAVvPMzZUPxrVv3xrGGLbGjBmEDz98S+fPsZDmGNMVlWpJoVBgy5adSE6+B9WtfzNMmzYWTZs2Eq3O6upqLFy4Gvv2xcEYP6oKRTUiI/fVTOnSHWtrK4SGBkEi4TBASkoqNm6M1tpQjIeHKyZNGgkzM2PqBVBg2LBQLFz4f2jQwE3sYqgejO+qSs918+bdmvXzVV30lLt5TZgwQtQ6Y2IOYsWKTTofJ9cdCS5evIaEhNM6P3JwcFDNOgTGclN6UXJs27YbV67c0toR5syZgJkzx8PMzAyG/X4rACgweHA/LF48H35+DcUuiOqJAcDEKBQKbN68A3fu3If61v84Ub/gV67cwoIFi5Cfnw9jGvf/b8pFabZv36PzrWKbNGmIbt3awxi7putGggcPHmLdukjIZNpZG8HJyQFff/0+3n57FqysrGCY77kCEokU48ePwIoVn4v+XBBpBgOAibl+/Q5++WUX1LX+27VrhfHjh4tWY15eARYs+B7Xr6tbmthYSBAbexKXLt3Q6VFtbKwRGtoTgsC1wADlUtgnTpzT2us7Ozvi00/fxUcfvQ1nZ2cYVgiQw8rKCm+9NR3Ll3+KJk3EGxYkzTL2qyv9gVyuwKZNMbh79wFU/eqlUnPMmBGGxo19RKpRjiVL1mPnzkMw3pb/HwnIzMxCTMwBnR85ODgQDRpwGAAQ8PhxBr777mfk5xdq7Si2ttb45z9fxU8/fYl27Z4+GKjv770cjRo1xFdfvY9///ufcHNzEbsg0iAGABNy/Xoytm3bDXWt//btWyM8fKhoNe7adQSLF6+DTFYN0wgASjt3HkJqarpOj9msmS+6dm0Hw2qNaouAAwcSsHXrLq0exczMDGFhQ7F58w+YOHGUHg8JyCGRSDBwYD9s2fI93n57Jmxt+bS/sWEAMBFyuRwbN8bg3r3nt/4bNfIWpcabN+9i/vxFyMnJgSnd/AEJbt++h0OHjun0qLa2NggNDeIwAADlqnzlWLJkndamBf5Ru3Yt8dNPX2LZss/QoUObmr/VhyCgfNCvaVM/fP7537Bx40L07t1N7KJISxgATMTVq8mIiNgN1V2OcnTsGICwMHFa/4WFRfjkkx9w6dI1mOLHsrq6ErGxiTp/GDAkJKhmCVd974rWBQlu3LiN//xnJYqKSrR+NHt7O8yePR6RkSvwwQdvomlTv5r/IkYQkAOQw8PDDa+99hKio1figw/e5DQ/I2d6V1oTJJPJsWFDFO7fV70PvJmZBWbMCEfDhp46r0+hUGDlyi2IitoH02r5/5EE8fGJuHYtWadH9fdvjM6d20I/Wp/6ISJiN3766Rfoap80f//G+Pzzv+PXX3/Gv/41Fy1b+sPMTArldr/arEFRcwygceNGeOutmYiJWYXFi+ejQ4fWOjl3Ehf7/kzAlSs3sX37Xii/8M+6wcrRqVMbhIUNEaW+/fuP4rvvfkJVVSVMN5MKSE9/gh07DtbckHXDzs4WoaE9sW9fvNhvgJ5QDgV8++2PaN++FQYM6KWTo0okAtq0aY7PP/8bZs+egMOHj2PXriM4ffoSsrNzoVA8fSamPnsHKP7wRwJnZyd06NAagwf3xbBhIQgIaF4TPMhUMAAYOZlMhg0bopCaqnr7VzMzC8ycGQ5vb83ujV4bd++mYv78hcjMzILp3vwB5UVZjp07D+HVVyejYUMvnR356TBAZmY2TLcH5o8kePw4Ax9/vBB+fg3h76+7Oe+CIKBZM180azYFU6aMxo0bd5CYeB4nT57H+fNXkZWVg+LiUshkfxwqUvU7U/z2v4JgDltbW7i7u6Bt25bo2rUd+vXrgfbtW8PZ2UGsN5pEJih01c9Fojh//irGjHlVzf7vMvTo0RUxMatqNojRneLiEsydOx8bNkTCdG88iv/6/xYWFli58t+YNWu8ziooKipGePibNfvXswX4OwXCw4dj2bJPRd/qtry8ApmZOUhJScWtWym4c+c+0tMzkZ2di+zsPJSUlEImk0Emk0MqlcLBwQ6OjvZwcXGCr683/PwaolmzxmjVqhk8Pd1ga2sj9ptLeoA9AEasulqG9eujkJb2CM+++Stgbm6FmTPDdX7zB4DVqyNqFiUyJb93wf55fFdAZWU5IiP3Ijx8KOzt7XRSkb29HUJDe+LgQd3OQjAE0dH74e7ugq++eh/29rai1WFlZQlfX2/4+nojOFi59W5FReVvf2QyGRQKBRQKBQRBgJmZGczNzWBhYQEbGyux30bSUwwARuzixeuIjt4HdWP/Xbu2w5gxg3Re25EjJ/HVVytRWVkO0+j6V974Gzb0gY9PA5w9e1nF0rMSnDx5HmfOXEZoaE+dVRcSEgQ3NxdkZ5vaFEx1BMjlMqxevQ0eHq744IM3YWlpIXZRv7G0tNCresjwmMKV1yQpW/+RePjwMVS1/i0srDBr1viaTWF0JzU1HR9/vBCPH2fAND6Cctja2mLixFHYvn0Zli79FN7eHnj2k/cC8vPzEBW1X2tr0z9Lq1ZN0aFDK3A2wP8SUFlZie+++xlLlqzX+TRNIm0yhauvSTp//iqio/dD3bz/bt06YNSogTqtq7S0DJ99tgQnT56F8X/85JBKJejZsxt+/vkrrF79FQIDO6FDh9YYMKAP1E3x2r8/HsnJ93VWqYODPUJDe8H4fycvQkBxcTE++eR7LFq0GuXlFWIXRKQR/LYboaqqaqxbF4n0dHWtf2vMmjVe5wt9rF8fjU2bYsR+i7RM2d3frJkfPv/879i+fRkmTRrx24NX5uZmCA8fBnt7Rzw7BEhw714a9uyJ1WnVoaFBcHV1ARcFehYBxcUl+PzzJfj2259QVlYudkFE9cYAYITOnbuCHTsOQPVYrhw9enTEqFEDdFrX0aOn8e9/L0N5eRmMc5xZubCKs7MTXn11CqKiVuL999945vTKnj07q92OV6GoRkzMfmRl5eqs+latmqFt25bgMIAqAkpKSvHll8vw6adLtLpxEJEuMAAYmaetf+X4+rNusgpYWlpj1qwJcHfX3dSmR4+U86ofPlQ1I8HQyWFhYYHBg0OwadP3WLx4gdrV1JycHBAWNhRSqaqHuCS4ePE6EhKSdHYGTk4ONQvfGOPvR1MElJaW4dtvf8S8eQtw//4jsQsiemH8phuZM2cuY+fOg1DX+g8M7IyRI0N1VlN5eQX+/e/lSEg4BeP7yClby23btsb333+MLVt+wLBhwbV6OnvIkGC0aNEEqh4GLC0tRlTUPp2OOYeGBsHFxRkcBlBHQHV1FTZtisbs2f/A2bOXxS6I6IUY29XYpFVWVmHduu3IyHgCVa1/KysbzJ49Qaf7em/evBPr1kXCuG4qypX7PD0b4B//eA0xMSvxxhsvwcXFqdav0KRJQwwfHgrVYU2CuLhEXL58U2dnFRDQHG3atACHAZ5HuSRvXNwJTJ/+N2zduoszBMjgMAAYkTNnLmHnzkNQ1/oPCuqC4cNDdFbTyZPn8dlnS1BaWgLjGfeXw8bGBuPHj0BExDJ8+eU/4O/vV+dXEQQBY8cOgbu7G54djgQ8eZKFmJgDOtuYxsnJAf379wQvDbUlwY0byXj99X/hvff+g9TUdLELIqo1fsuNRGVlJdas2Y7MzEw8r/Xv6uqsk5oyMrIwf/4iPHiQCuP4qMkhkUgQGNgFP/30Jdas+Rp9+nSDVPriy+d26hSA4OAeUN3iVmDXrsM6vbGEhvaEs7MTjKvHRpskKCwswg8/rMXUqX/BgQNHUV1dLXZRRM9lDFdlApCUdBG7dh2GutZ/r15dMWxYsE7qqaioxH/+sxKHDx+H4X/MlNP6mjRpjE8/fReRkcsxZcpo2NnVf2lYa2srhIUNhZWVDVRNCbx1KwUHDhzV2dm2adMCAQH+4DBAXSi/d8ePn8ZLL/0V//jHl7h1K0XsoojUMvQrM0F5s127djuysrKgqvVvbW2LOXMm1mmMuj62bduN1au3wbBbkcpxficnR8yZMwlRUSvx4Ydz4ePjqdGjBAcH1cwYePYNt7q6AlFR+1BQUKSTs3ZxcaxZFMhYhmx0SYLs7Bx8//1qjBv3OpYu3YDs7DyxiyJ6JgYAI5CYeB67dx+ButZ/797dMGRIP53Uc+bMZXzyyQ8oLi6C4d5E5DA3t8DAgX2xadMiLF36CTp1CtDKkRo0cMOYMYMhCKq25pDg1KkLSEq6oLOzDw0NgpOTEww7wIlF+YDg9eu38Le/fY6JE9/C5s07kZPDIED6hQHAwJWXV2DNmghkZ6vay10BGxs7zJkzEc7OjlqvJzMzBx9/vAgpKfdhmB8v5Q2vTZtWWLTo/7Bly2IMHx4KKytLrR515MgB8PX1gaopgQUFBYiK2qezseV27VqhVatm4DBAfUhQWVmJ2NhjePnl9xAe/ibWro3EkyfZYhdGBMAwr9D0BydPnsfevXFQ1/rv06c7Bg/uq/Vaqqqq8O23P+LAgQQY3kdL2d3foIE7/va3VxAdvRJz506Hm5tuHphs2bLJc39HBw8exc2buhlXdnV1qpkNYKg9OPpCACBFeXk54uNP4I03PsTYsa/h669X4cqVW5w6SKIytKs0/UFZmbL1n5OjagtXBWxtla1/JycHrdezffs+rFq1BQqFobUaldP6wsKGIyJiGf7zn/dqFujRHTMzM4SFDYWjo+r9AVJT02se9NSNkJCeauqhulEGgYqKCiQmnsH773+FYcNm4eWX30dk5F48epTBmQOkc4JCVxOMSeMOHz6BiRPnIjc3D88OADIMGzYAW7YshqOjvVZruXDhGiZNehvJyXdgOLlSDonEDF27tse8eTMwevRA2NvX/8n+F1VYWISJE9/C/v2xAJ41tVCG7t0749dfV+tkE6fs7DwMGzYLZ85cgOH8Tg2JHE8f0G3a1BeBgZ3Qu3dX9OjRCY0aecHOzkbsAsnImdX/JUgMZWXlWLNmG3Jzc6Fqxz9bW3vMnj1R6zf/7Ow8fPzxIgO6+Sun9fn5+WL27AmYOTMcjRp5iV0UHBzsMW7cUBw5cgJVVc9qDUpw+fJNxMUlYtKkkVqvx83NGf3796wJAKR5yu9KWVkZrl27iWvXbmDDhmh4erqhffvWaNeuJQICmiMgwB+NGnnDzs4GVlaWkEgM4TtGhoABwEAdO3YG+/cnQN3Yf0hIEAYO7K3VOqqrq7Fo0eqa5xD0/cKkvPE7Ojpi3LgheOut6ejUqQ0EQX/GuQcN6oOWLZvh6tUb+PP7KaC8vBTbt+/FqFEDYGNjrfV6QkKCsGzZRhQVGfKMDn0n4Ol7W1VVibS0R0hLe4g9ew7BwsIaDg528PFpgKZNG8HLqwG8vDzg5eUBT093ODjYwcrKElZWlrC2toSFhQXkcgWqq6tRWVmJoqISFBQUoaSkFE5ODmjfvjVcXZ3EPmHSEwwABqi0tAxr1mxDXl4eVLX+7ewcMGfORDg42Gm1lpiYg1i+fCPkchn0+wahnNbXt28P/OUvMzFwYB+tP9n/Inx9fTBy5ABcvapq/X8Jjh07hYsXr6Nnzy5ar6dTpwA0b+6H8+cvQ79/v8bi9zAAAJWVFcjOrkB2djYuXboKZYiVwMzMAlZWljA3N4NUKoFEIoFUKq3pHVBALldALpejulqGqqoqVFfLYGFhjk6d2uD//m8eQkODxD5R0gMMAAbo6NHTNSvDqW79h4b2RP/+vbRax+XLN7FgwffIz8+H/rb+FQAEtG7dAq+/PhWTJ4+Cu7vuNkKqK0EAxo4dhDVrIvDkybOWdRaQlZWD6Oj9CAzspPXuYHd3V4SG9sT585fEfmtMlPA//6tUXV2N4uKq//lZhYp/q1RaCsTFHUdGRha2bVuKdu1ain1yJDJ9vWqTCiUlZVi9ehvy81U9+KeAvb0j5syZqNUH2nJz8zF//iJcv34L+vkxUk7r8/Bww1//OgcxMavw9tsz9frm/1S7dq1qWmiq9wfYvTsW9+8/1Ek9oaFBsLNzAGcD6Bvhf/5I/ueP8Iw/Uty4kYyNG6MhlxvabB3SNH28cpMaCQlJOHToGFT/6uQYMKCXVrv4ZDIZFi9eh1271K0+KCY5rK2tMXbsUGzbthRff/0+WrZsKnZRtWZlZYnw8GGwsbGDqimBd+7cx7598Tqpp3PntvD3bwwGAONx4MAxLkhEDACGpLi4FKtXb0NBQT5Utf4dHBwxe/ZEjWxUo8rOnYexZMl6yGTV0K8AIIcgCOjatSNWrvwC69Z9i+DgQJiZGd5IV9++3dGpUxuo6gWQySoRHb0feXkFWq/Fw8O1JlAyABgHAXfvPsC5c1fELoRExgBgQOLjE5+zu54cAwf2QUhIoNZquHbtNhYs+L5m+qG+3PyV3f2NGzfC/Pl/QVTUCkyfPk7rD0Bqk5ubC8aOHQKJxFzFT0hw5swlnDhxTuu1CIKA4OAg2NragyHAGAgoKSlGbGwiuAyMaWMAMBBFRSVYvXobCgsLoKr17+johNmzJ8DWVjsLiOTlFWDBgu9x5cp16MdHR3njd3BwwIwZ4xEZuQIff/w2fH29xS5MI0aMCEWTJg2han+AoqJCREXtQ2VlVV1fus66dWuPpk19wQBgPBISTiEzM0fsMkhE+nAVp1qIjT2JI0dOQF3rf9CgvujXTzutf5lMjmXLNmLHjoPQj5a/HGZm5ggJ6YX167/DihWfo2vXdno1p7++/P0bY8iQYDU/IeDw4eO4fv221mtp0MCNwwBGRUBy8j2cP39V7EJIRAwABqCoqBhr1mxDUVEhVLX+nZycMWfORNjaamdxmN27Y/H992tQXV0JcQOAcjGfVq2a45tvPsAvvyzBmDEDYW1tJWJN2iGVShEWNhTOzs5Q9TDgw4eP8euvh7Rey9NhANUPJpJhEVBcXMRhABPHAGAADh8+gdjYRKj+dSkweHA/9OnTTSvHv3nzLhYsWFSz6ZBYHxlld7+7uxv+8pfZiI5ehXfemQ0PD1eR6tGNrl3bo1evrlA9JVCOnTsPIT39idZr6d69A5o0aQQGAOMRH5+ErKxcscsgkTAA6LnCwmKsXr0NxcWqW//Ozs6YM2eCVpaGLSgowoIFP+DixasQ7+Mih5WVFUaPHoxfflmMb775F1q3biZSLbplb2+LsLChsLCwwrNvvAKuXUvGkSMntV6Lp6cbgoMDwQBgLAQkJ6fg4sXrYhdCImEA0HOHDh1DfHwS1LX+hw4NRu/emm/9y+VyrFixCdHR+yBOt79yWl+XLh2wfPnnWL/+O4SG9oS5ueFN66uPAQN6IyCgOVQFgIqKMkRG7kVxcalW65BIJAgJCYK1tS0YAoyBgMLCQsTFJYpdCImEAUCPFRQUYfXqbSgpUbURiwIuLi6YPXuCVsbA9+1LwMKFq1FVpetxf2V3f6NGDfHRR/MQFbUCs2aFa31XQ33VsKEnRo8eCNVfVwmOHz+jk3ndgYEd4efXEAwAxiMuLgnZ2Xlil0EiYADQYwcOHEVCwimoa/0PGxZSM0asWcnJ9zB//iJkZWVBtx8TOezt7TFtWhgiI5dj/vx30Lixjw6Pr59GjRoEb+8GUNULkJubi+jo/ZDJtLu8q6enO/r16wEGAGMh4ObNO7h0icMApogBQE/l5xdizZptKC0thqrWv6urK2bPnqDxXe0KC4vx6aeLce7cZejuIyKHmZkZ+vULwrp132Llyn+je/cOkEiMZ1pffbRp0xwDBvSC6ocBgb1743D37gOt1iGVShESEgQrKxswBBgDAQUFHAYwVQwAemr//gQcO3YG6lr/w4eHIiios0aPK5crsGrVFmzfvkdHZ6qc1teypT+++up9bNu2FOPGDYaNjfFN66sPS0sLhIcPU7MpjwQpKanYuzdO67UEBXWu6ZVhADAOcsTFJSEnJ1/sQkjHGAD0UF5eAdasiVDb+ndzc9NK6//gwaP47rufUFlZAe2O+yvH+d3cXPDWWzMRHb0S7747Bw0auGnxmIatV6+u6NKlHVT1AsjlVYiO3q/1C7mXlwf69u0OBgBjIcH167dx5cpNsQshHWMA0EP79sXj+HH1rf+RI/sjMLCTRo97584DzJ+/qGYfem1+NJTT+kaMGIitW5dg4cIPa55yJ3VcXJwwbtwQSKWq9wc4f/4qjh07rdU6zMyUwwCWltZgCDAGAvLzCzgMYIIYAPRMbm4+1qyJQFlZCVS1/t3d3TFnziRYWlpo7LhFRSX47LMlOH36IrT3sVBO6+vUqR2WLv0UGzcuwoABvWBubl7/lzYRw4YFo1mzxlC1P0BJSREiI/eioqJSq3X07NmlZs8FBgDjoBwGyM3V/u6SpD8YAPTM8eNnkZR0Aep+NRKJgFu37qKoqEQjx1QoFPj551+wbdsuLZ2Vsru/YUMffPjhXERHr8ScORPg5GSa0/rqo2lTXwwfHqrmJySIjT2Jq1dvabUOb+8G6NOHwwDGQ4Jr127h2jXtfm5IvzAA6Jnr12+jpETV2D8ACHjyJAvz5s3HrFl/x9Gjp1FdLavXMQ8fPoFvvvkRFRXl0Py4vxz29naYOnUcIiOX45NP/lozj5xehEQiwdixQ+Dq6gpVUwIfP86s2bRJe8zNzRASEqhmhUIyLAJyc/MRF5ckdiGkQwwAeka5mc/zfi0CSktLERW1BxMnzsUHH3yF27fvvdDxUlJS8fHHi/D4cUYtjlsXcpiZSdGnTyDWrPkGP/74b/To0RESCT9y9dW5c9uah/BU7w/w66+HkJb2WKt19OrVDY0aeYEBwFjIEReXiPz8QrELIR3h1VjP9OrVteai+rxWvQBAgoyMJ/j22x8xbtzrWL58Y52eAC8pKcUXXyxDUtI5aO6joJzW17x5M3z55XuIiFiK8PChWtmnwFTZ2lojLGwYLC1VzcUXcOPGXRw6dEyrdfj4NKhZgpoBwDhIcOXKTZ1sL036QbpgwYIFYhdBv/PwcIWtrQ1OnbpUMw3w+b0BAJCZmYXDh0/g/PmrcHFxgq+vD8zMpCr/lUKhwMqVW7Bo0WpUV1ej/l3/yhu/q6srZs0aj2+//RfGjBkEOztbsd9So+Th4YojR04gPT0Df/7dCZDLq1BVJcPIkQM0+rDoH0mlUhQUFGHv3gTIZDKIu0001Z+AsrJyNG3qW9PDRMaOAUDPSCQSdOrUBgEBzfHoUSYePcqAXF6bi6sAmUyGu3fvY9++BKSmpsPX1xuenu7P/Om4uET87W9fIC8vD/Vv/cthaWmFIUOC8fXXH+D116fCy8tD7LfSqNnZ2SIrK6dmm+hnEZCdnYfevbuiaVNfrdXh4GCHHTsOIj8/HwwAxkAGQZBi9OiBGl9jhPQPA4AekkgkaNmyKYYODYaHhyvu33+E3Nynm3Wou8gKAASUl5fj3LkrOHToOEpLy9G0aWPY2//eEr9//yHmzVuA69dvoX43fzkAAR07tsH8+X/B//3fPLRt2wJSqbQer0m15ezsgN27Y1FYWIBn9QKUl5fB1tYOgwf309qzF7a2Nrhw4TouX74OjigaAwFFRSUYNKgPGjb0FLsY0jIGAD1mZ2eLnj27ICSkJwRBQEpKGsrKnm75+vwgkJeXh/j4U0hMPA9bWxs0bdoI1dUyfPjhtzVPib9oi03Z3e/j44W33pqBr756HwMG9IK1NVsMuuTi4ogbN+7iwoUrePbNV4GcnHwMGdIP7u4uWqlBKpUiP78Q+/YlQC7X7kZEpAsCSkvL4O/vh969Nb/JGOkXBgAD4OHhioED+6BLl7bIzS1Aamo6ZLIq1GZYQKFQIC3tIfbvT8Dt2/dx5sxlrFkTgaqq2vz7Z5HDzs4OYWHD8O23H2L69HFwcXES+y0ySVKpFBYW5ti1KxYVFc9aullAQUERGjf20cqOkU/Z29siJuYQCgrywWEAYyCDRGKG0aMHau35EdIPgkKh4CO8BiQvrwDbt+/F8uUbcOnSDSi74WvT9ar8NQuCFAqFsuu+buSQSs0RFNQJ8+bNxPDhoTVTFklM+fmFCA9/A0eOHAXwrKEXGYKCumHnzp/g7u6qlRoqKioxa9Y/sHVrjIoayLAo4OHhhj171qBr1/ZiF0NaxEE7A+Ps7IhXX52MqKhVeP/9N+Ht7QVlCHhejlNOG1Tmvbrc/JXd/f7+TfDvf/8DERHLMGHCcN789YSTkwPCwobCzExVS02CixevIz5eewu8WFpaICQkSE0NZFgEZGXlIj7+lNiFkJYxABioZs188fnnf0dExHJMnDgKtra2ULdXfN1b/Mrle11cnPH66y8hKmol/vnP1/h0vx4aMqQfmjdvAlX7A5SVlSAqah/Kyiq0VkPfvj3g7d0A6j+DZCgUimrExp5EcbFmlhsn/cQAYMCkUgl69eqCn3/+Gj/99B8EBXWtedq7vhdhOSwtLTF0aCg2b/4BP/wwH+3btxL7dEkFP7+GGDFiAFSHPAni4pJw+fINrdXQuLE3AgM7g4sCGQsJLly4huTk+2IXQlrEAGAE7OxsMHnyKGzfvgKfffZ3NG3qh6dd90q1bf0rg0P79gH44Yf52Lz5ewwZ0hcWFtytT58JgoCxYwfB3d0NqlYGzMzMQkzMAWjrkR8rK0uEhARCKuUwgHEQ8ORJNhISOAxgzBgAjIiPTwP8619vIipqJV5+eTKcnBxRu+cDlN39Xl6eeO+9NxAdvRKvvTYFzs6OYp8S1VLHjgEIDg6E6t4fBXbtOowHDx5prYbg4EB4ebmDwwDG4ekwQElJaf1fjPQSA4AR6tgxAEuXfopNm77HwIH9YG5uDnUbx9jY2GDixFHYvn05vvji7zX7zZMhsba2Qnj4MFhb2+LZgU+C5OR7OHDgqNZqaNzYBz16dAKHAYyFBOfOXcGdOw/ELoS0hAHASFlaWmD48FBs2bIYCxd+hICAlnja0v99eECGhg19sGTJJ1i9+iv06tUFUik/EoYqODgQ7du3hqqwV11dgaiofSgoKNLK8a2trRASEgSJhENGxkE5DHD06GmxCyEt4UJARs7Gxhrdu3dA//49odwrPgtyuRzW1tbo2rUDFi36COHhQznObwRsbW2Qk5OPI0fU7w8QGNgJ/v5+WqshJuYAioqKwUWBDJ9CUQ1LSyuMGjWgpieRjAkXAjIhVVXVuHPnPu7eTYWtrQ3atGkODw/tLA5D4rh+/TaGD5+F+/dT8ewOPjlefnkKli//HObmZho/fmlpGaZOfQc7duwDFwUyBsolv/ftW4d27VqKXQxpGPt7TYi5uRlat/bHiBGhCAkJ5M3fCLVo0RSDB/dT+zMHDx7DzZt3tXJ8GxvrmmEAzYcLEoOAjIwsHDt2RuxCSAsYAIiMiJmZFGFhQ+Hk5ARVDwOmpj7Crl2HtVZDSEgQGjRwBx8GNA4yWSViY0+irKxc7FJIwxgAiIxMjx4daxblUTXzQ4YdOw4iIyNLK8dv2rQRunRpB04HNBYCTp++iHv30sQuhDSMAYDIyDg42CEsbCjMzS2hqhfgypWbiItLrOtL14qtrQ1CQ3tCEDgMYBwkePw4k8MARogBgMgIDRrUB61a+UPVyoDl5aXYvn0vSkvLtHL8358x4TCAMaiuVg4DlJdrbz8J0j0GACIj5OvrjVGj1O8PcOzYaVy4cE0rx/f390Pnzm3BYQBjIeDUqYu4f197K0mS7jEAEBmpMWMGwdPTA6p6AbKzsxEdvR9yueZv0nZ2ymEATgU0FhI8evQEJ05wGMCYMAAQGam2bVvW3IRV3+D37InV2sNdoaFBHAYwItXVFThy5CQqKirFLoU0hAGAyEhZWVkiPHwYbG3toOphwDt3HmDfvnitHL958ybo2LENOAxgLAQkJV1AaiqHAYwFAwCREevTpzs6dVI9Fi+TVSIqaj/y8go0fmx7e1uEhgaBwwDGQsDDhxk4ceKc2IWQhjAAEBkxNzdnjBs3RM0GPRKcPXsZx4+f1crxQ0N7ws3NBRwGMAYCqqrKceTISVRWchjAGDAAEBm54cND0aRJIzy7F0BAcXEhoqL2obKySuPHbtmyKTp0UL1DIRkaAYmJ55GW9ljsQkgDGACIjFyzZr4YOjREzU8IOHz4OK5fv63xYzs42NU8iMhLjXEQkJaWjpMnOQxgDPitJDJyUqkUYWFD4OKiqitegkePMrBz5yGtHD80NAiurhwGMA4CKivLERubiKoqzfcYkW4xABCZgK5d26FXr65Q3RUvx86dB/Ho0RONH7t1a/+arWQ5DGAcBJw4cRYPH2aIXQjVEwMAkQmws7NFWNhQWFhYQ9XCQNeu3caRI8c1fmxHR3v0789hAOMhIDU1HYmJF8QuhOqJ30giEzFgQC+0adMcqgJAZWUZIiP3obi4ROPHDgnpCRcXZ3AYwBgIqKgoQ2zsSVRVVYtdDNUDAwCRifDx8cSoUQOh+msvwYkTZ3H27BWNHzsgwB9t2rQAhwGMhYDjx88gPV3zQ0akOwwARCZkzJhB8PHxhKopgbm5uYiO3g+ZTLM3amdnRw4DGBUBDx48QlIShwEMGb+NRCYkIKA5BgzoBXVd8fv2xeHOnfsaP3ZISBCcnZ3AYQBjoNxSOjY2EdXVMrGLoRfEAEBkQiwszBEWNgx2dg5QNSUwJSUNe/fGafzYbdu2QECAPzgMYCwEHDt2Go8fZ4pdCL0gBgAiE9O7d1d07doOqm7EcnkVoqP3IycnT6PHdXFxqlkUSBD7LSCNEHD//kOcPn1R7ELoBTEAEJkYZ2dHjBs3FFKphYqfkODChas4evS0xo8dEhIER0cncBjAGAgoKytBbGyixp8ZId1gACAyQcOGBcPfvzFUPQxYUlKMyMh9Gt/7vX37Vmjduhk4DGAsBBw9ehoZGRwGMEQMAEQmqEmTRhg+PFTNT0gQG3sSV67c0uhxXV2dOQxgVASkpKTizJnLYhdCL4ABgMgESSQSjB07BG5urlC1MFBGxhPs2HEACg331oeG9oSjoyM4DGAMBJSWFiM2NhFyOXt1DA0DAJGJ6ty5Dfr27QHV3fEK/PrrYTx8mK7R43bo0BotWjQFA4CxEHD06Ck8eZItdiFURwwARCbKxsYaYWFDYWVlA1W9ADdv3sXBg8c0elw3t6fDAGQcBNy580ArK0iSdjEAEJmw0NCeaNtW1U59AqqqyhEZuReFhcUaPm4Q7O1VrUVAhkX50KhyGIC/T0PCAEBkwjw93TF27GAIgpmKn5AgKemCxud6d+rUBi1aNAEDgPFISEhCZiaHAQwJAwCRiRs5cgAaNfKCql6A/Px8REXt1+iSr+7uLggJCQIDgLEQcPv2fZw/f03sQqgOGACITFyrVs0wcGAftT+zf38CkpNTNHrc0NAgNUsSk2ERUFxchLi4k1BoetoIaQ0DAJGJMzc3Q3j4MDg4qN4f4MGDh9i9+4hGj9u5c9uaxYh4wzAW8fGnkJWVK3YZVEsMAESEwMBO6N69I1RNCVQoqhETcwCZmTkaO6aHhyuHAYyKgOTkFFy4cF3sQqiWGACICE5ODggPHwYzM0sVPyHBpUs3EB+fpLFjCoKA0NCesLW1B0OAMRBQWFiIuLiTYhdCtcQAQEQAgMGD+9Y8mf/shwHLykoQGbkXZWXlGjtm167t0KyZLxgAjEd8fBKyszkMYAgYAIgIANC4sQ9GjhwA1ev0S5CQkIRLl25o7JgeHm4IDuYwgPFQLh518aLmPiOkPQwARARA2SU/duxgeHi4Q9XKgJmZ2YiJOaCxJ70lEgGhoUGwsbEDQ4AxEFBQUIC4uESxC6FaYAAgot+0b98KwcGBULc/wK5dR/DgwSONHbNbtw5o0qQRGACMhQLx8UnIyckTuxB6DgYAIvqNtbUVwsOHwdraFqqmBN6+nYL9+xM0dkxPT7ea0MEAYBwkuH79tsa3kibNYwAgov/Sr18PdOgQAFW9ANXVlYiK2of8/EKNHE8ikSAkJEhN6CDDIiA/vwCxsRwG0HcMAET0Xzw8XJ+7P8Dp0xeRmHheY8cMDOwIP7+GYAAwFnLExyciN7dA7EJIDQYAIvqTkSP719yQnz0lsLCwAFFR+1BVVa2R43l6uqNfvx5gADAWEly9moyrVzkMoM8YAIjoT5o3b4LBg/up+QkBBw8ew40bdzRyPKlUipCQIFhZ2YAhwBgIyMvL1+jCUaR5DABE9CdmZlKEhQ2Fk5MTVD0MmJaWjl27DmvsmEFBndG4sQ8YAIyFHHFxiRp7VoQ0jwGAiJ6pe/cOCArqAtVTAuXYseMgMjKyNHI8Ly8P9O3LYQDjIcGVKzdx/fptsQshFRgAiOiZHBzsEBY2FObmVlC1MNDVq7cQG6uZtd/NzKQICQmEpaU1GAKMgYCcnHwuCqTHGACISKVBg/qgdetmUBUAystLERm5FyUlZRo5Xs+eXeDr6w0GAGMhQ1xcIgoKisQuhJ6BAYCIVGrUyAujRg2Euv0Bjh07jQsXrmrkeN7eDdCnT3cwABgLCS5duokbN+6KXQg9AwMAEak1evQgeHk1gKpegOzsHERH74dcLq/rS/+JubkZQkKCYGHBYQDjICA7O5ezAfQUAwARqdWuXUuEhvaE6ocBgT174pCSkqaR4/Xq1QWNGnmBAcBYyBAXdxKFhcViF0L/gwGAiNSytLRAePgw2NraQ9WUwLt372PfvjiNHM/HxxO9e3cFA4CxkODixeu4dStF7ELofzAAENFz9enTDZ07t4GqXgCZrApRUfs1svSrhYU5QkKC1Mw+IMMiICuLwwD6iAGAiJ7L1dUZ48YNhURiruInJDh37gpOnDijkeP17t0NDRt6ggHAOCgU1UhIOIXi4hKxS6E/YAAgoloZNiwETZv6QtX+AMXFhYiM3IfKysp6H6tRIy/06sVhAOMh4NatFBQVMQDoEwYAIqqVZs0aY9iwYDU/IeDIkeO4dq3+K78phwECYW5uKfZpk4Y4ONjB3Nys/i9EGsMAQES1IpVKMG7cULi4uEDVw4CPHj3Bzp0HNXK8Pn26w9u7AdTNPiDDERISCCcnR7HLoD9gACCiWuvSpR169+4GdfsD7Nx5CI8eZdT7WL6+3ujZsws4DGDIFAAU6N+/D15//SWYmUnFLoj+gAGAiGrNzs4GYWFD1SzUI+D69ds4fPhEvY9laWmBkJAgmJlZiH3aVGcKAHK4u7vhnXfm4Oefv4K/f2Oxi6L/wQBARHUyYEAvtGnTAqoCQGVlOSIj92rkga++fbvXrELIYQDDIYe1tTXGjh2KbduW4OuvP4Cfn4/YRdEzMAAQUZ14ezfAmDEDofryIcGJE2dx9uzleh+rcWMfBAV1AocBDIEcEokE3bt3xqpV/8a6dd/WrOfAB//0FQMAEdXZqFEDa+bpP3tKYF5eHqKj90Mmk9XrOFZWlggJCYJUymEA/aUc52/SpDE++eSviIpajmnTxsLBwU7swug5GACIqM4CAppjwIDeUNcy37cvHnfuPKj3sfr16wEvL3dwGEDfKADI4OzshFdemYLo6JX48MO30LChl9iFUS0xABBRnVlYmCMsbBjs7R2gakrgvXtp2LMntt7H8vNriB49OAygX+SwtLTEkCGh2Lz5eyxZsgAdOwZAEOr/yqQ7DABE9EJ69eqCrl3bQ1XLXC6vQnT0fmRn59XrONbWVggJCVKzDDHpjhyCIKBDhzb44Yf52Lz5BwwdGgxLSw7RGCIGACJ6Ic7Ojhg3bqia8XkJLly4hqNHT9X7WMHBPeDp6Q72AohFOa3Px8cbH3zwJqKjV+G116bAxYUL+xgyBgAiemFDhwbD398Pqh4GLC0tRmTkPpSXV9TrOE2aNEK3bh3A5wDEIIe9vT2mTh2HyMgV+Oyzd9G0aSOxiyINYAAgohfWpEkjjBgRquYnJIiLO4krV27V6zg2NtYIDQ2CIHBKme7IYWZmhn79emLdum/x44//RmBgR0gkvG0YC/4mieiFSSQCxo4dAjc3N6haGCgjIxM7dhyAop6998HBgWjQQNVxSHOU0/patWqOb775ABERSzFu3GDY2FiLXRhpGAMAEdVLp04B6NevB1R3zyvw66+HkZaWXq/jNGvmq/ahQ6ov5Ti/h4c73nnnZcTErMI778yGh4er2IWRljAAEFG92NhYIyxsKKysbKCqF+DWrbs4ePBovY5ja2vDYQCtkcPGxgZhYcMQEbEU33zzPlq1aiZ2UaRlDABEVG8hIT3Rrl0rqHoYsKqqApGR+1BYWFTP4wTVtEg5DKAZyuV7AwO74Mcfv8Tatd+iX78eMDNjyDIFDABEVG+enm4YO3awmta5BElJF3Dq1KV6HcffvzE6d24LDgPUl3Kcv2lTP3z22d8QGbkcU6eOhr29rdiFkQ4xABCRRowcOQCNGnlDVS9AQUE+oqL2obq6+oWPYWdni9DQngC4r/yLUS7f6+LijNdem4ro6JX417/ehI+Pp9iFkQgYAIhII1q2bIrBg/uq/ZkDBxKQnHyvXsfhMMCLUi7fO2zYAGze/D1++GE+OnRoLXZRJCIGACLSCHNzM4SFDYWjoyNU7Q/w4MEj7Np1pF7HadHCDx07BoDDALWlXL63U6d2WLLkE2za9D2GDOnH5XuJAYCINCcwsBO6d+8IVTdnhaIaMTEH8ORJ9gsfw97ejsMAtaKc1teokQ8+/PAtREWtxCuvTIKzs4PYhZGeYAAgIo1xdLRHePhQmJlZqvgJCS5fvoH4+KR6HSckJAhubi7gMMCzKG/8Dg72mDYtHJGRK/DJJ++gSZOGYhdGeoYBgIg0atCgvmjZsilUPQxYVlaCyMi9KCsrf+FjtGrVtGb8msMA/00Oc3NzhIT0wvr132HVqi/QvXsHLt9Lz8RPBRFpVOPGPhg5sj8AVZvDS5CQcAoXL15/4WM4ONjXDAPwEqak7AkJCGiJb7/9ENu2LcWYMYNgbW0ldmGkx/jtISKNEgQBY8YMRoMGqrbvFZCVlY2YmANQ1GODgNDQILi6mvowgLK7v0EDD7z77suIjl6Jt9+eCXd3F7ELIwPAAEBEGte+fWsEBwdB3f4Au3cfwf37D1/4GK1aNUO7di1husMActja2iA8fAQiIpbiq6/erxl6IaodBgAi0jhra0uEhw+FjY0dVE0JvH37HvbvT3jhYzg5OZjoMIAcUqkEQUFd8dNP/8HatV+jb9/uMDPjrAiqG1P75hCRjvTrF4gOHVTP16+urkRU1D7k5xe+8DFCQ3vCxcUZpjEMoFy+19+/CT7//B+IjFyOyZNHwc6Oy/fSi2EAICKtcHd3wbhx6vcHOH36EhITz7/wMQIC/NGmTQsY9zCAcpzf1dUZb7wxDVFRK/H++6/D27uB2IWRgWMAICKtGTGiP5o0aQRVUwKLigrx449bcf/+oxd6fWdnR4SGBsF4L2VyWFlZYcSIAdiyZTG+//5jtG/fSuyiyEgY67eGiPRA8+Z+GDKkn5qfkODXXw9h/Pg3sHnzTpSUlNb5GKGhPeHsrGr5YUOlXL63c+f2WLr0U2zcuAiDBvWBhYW52IWREREU9ZmHQ0T0HEeOnER4+OvIzy+A6rUB5LC1tcPo0QPx17/OQZcu7SAIQq1ePzc3HyNHvoyTJ0/D8JcHVo7z+/o2xMyZ4Zg1awL8/HzELoqMFHsAiEirundvj549u0D9OL0EJSUl2LIlBuHhb+DLL5cjIyOrVq/v4uJUMxugdoFBPynH+R0dHTBjxnhERq7A/Pnv8OZPWsUAQERaZW9vh/Hjh8PCwgrqu+kFKHcMTMPHHy/ExIlvYefOQ6ioqHzuMUJDg+Do6ATDHAaQw9zcAv3798GGDQuxYsXn6NatPSQSQw40ZAg4BEBEWpednYeZM/+GPXsOQdnuqM3NTQ5HR0dMnDgS8+bNQNu2LVX+ZE5OHkaMmIOkpHMwnHaNHIAEbdq0wOuvT8WkSSPh5uYsdlFkQqQLFixYIHYRRGTcbGys0blzWzx6lIm7d1Mhl1fj+SFAQEVFBc6du4IjR05CoVDA398PNjZWz3z9lJRUHD9+uhavKzblOL+npydef30qvv76fQwdGgwbG2uxCyMTwx4AItKZvLwCbN68A8uWbcDNm3dq/rZ2vQHm5pbo378n3n33FYSEBMLM7L/XFzh8+ATCwl5HYWFRLV9TDMqHHYcPD8W8eTMQFNQJUqmhP7hIhooBgIh07tq121iyZB22bduF/Px81K7bXtlydnd3w7Rp4/DGG9Pg79/4t/+anZ2LYcNm4cyZi7V8PV2SQyo1R2BgJ8ybNwPDh4fCzs5G7KLIxHEIgIh0zsPDFQMH9kG7dq3w+HEWHj58DIVCBvUtdwGAgNLSUiQmXsDRo6dgYWGBZs0aw9LSAjY21rhzJxUnTpyB/vQAKNtXzZs3xT/+8To+//xvCAzsxPn8pBfYA0BEosrIyMK6dZFYtWoz7t9PxdMb/fPJYW1tg2HDQvDuuy+jZ88uOHToOMLC3kBRkdjDAMreCjc3V0ycOBKvvz4Vbdu2ELEeoj9jACAi0SkUwPnzV/D992sQE3MAJSXFqMuwgI+PN15+eRJGjhyA11//F86evVTLf68NclhZWWPgwD54++2Z6Nu3O1v8pJcYAIhIb5SUlOHXXw/h++9X48yZyzXDArW5kcshkZihW7cOqKyswoULV6H7HgA5BEGKzp3bYu7c6Rg3bjAcHe11/yYS1RIDABHpndTUdPz44xasWROBx48zUJdhAUGQQrdXNWUvROPGjTBr1njMmhUOX1+u4Ef6jwGAiPSSTCbHyZPnsHDhz9i/Px7l5WWofbe+Llr/yhu/o6MTxo0bjLlzp6Nz5za13sOASGwMAESk1woKihARsQdLlqzFlSu3oLzxPn8RIe2Sw8LCEv369cC8eTMxcGBvWFlZiv1WEdUJAwARGYTk5HtYvnwDNm3agZycHDx/WEAbIUC5fG/bti3xxhtTMXHiCLi6cvleMkwMAERkMKqqqhAbm4iFC39CXFwiqqoqoXpYQJMBQNnd7+XliWnTxuGVVybC399P7LeDqF4YAIjI4GRn52HjxmisWLERt2/fq/nb/73hayoAyGFnZ4cRI/pj3rwZ6NGjE6RSfVtpkKjuGACIyGBdvnwTixevxfbte1BYWIg/9wbUJwQol+/t2bMz5s2bgWHDQmBry+V7yXgwABCRQSsvr8DevXFYtGg1Tp48V7PT4NMg8CIBQHlJbNGiKV55ZTJeemkMPD3dxT5NIo1jACAio5Ce/gSrV0fgp5+2Ii3tIX5/SLC2IeD3zYYmTRqJ116bijZtmot9WkRawwBAREZDoVDg9OlLWLRoNXbtOozS0hIAtdluV7mvwKBBffH22zPQp093mJub1eLfERkuBgAiMjrFxaWIidmP779fg/Pnr0H12gHKJYS7dGmHuXOnYezYwXBwsBO7fCKdYAAgIqN1714aPv10MTZsiIJcLsfvIUDZ3e/n54vZsydg5swwNGrkLXa5RDrFAEBERi0nJw8ff7wIW7bsRH5+AQABbm4uGD16IN58cxo6dQrg8r1kkhgAiMjolZWV4+TJ87hw4RokEgm6d++Abt3aw9LSQuzSiETDAEBERGSCuJwVERGRCWIAICIiMkEMAERERCaIAYCIiMgEMQAQERGZIAYAIiIiE8QAQEREZIIYAIiIiEwQAwAREZEJYgAgIiIyQQwAREREJogBgIiIyAQxABAREZkgBgAiIiITxABARERkghgAiIiITBADABERkQliACAiIjJBDABEREQmiAGAiIjIBDEAEBERmSAGACIiIhPEAEBERGSCGACIiIhMEAMAERGRCWIAICIiMkEMAERERCaIAYCIiMgEMQAQERGZIAYAIiIiE8QAQEREZIIYAIiIiEwQAwAREZEJYgAgIiIyQQwAREREJogBgIiIyAQxABAREZkgBgAiIiITxABARERkghgAiIiITBADABERkQliACAiIjJBDABEREQmiAGAiIjIBDEAEBERmSAGACIiIhPEAEBERGSCGACIiIhMEAMAERGRCWIAICIiMkEMAERERCaIAYCIiMgEMQAQERGZIAYAIiIiE8QAQEREZIIYAIiIiEwQAwAREZEJYgAgIiIyQQwAREREJogBgIiIyAQxABAREZkgBgAiIiITxABARERkghgAiIiITBADABERkQliACAiIjJBDABEREQmiAGAiIjIBDEAEBERmSAGACIiIhPEAEBERGSCGACIiIhM0P8DCYIY72q6Jc4AAAAldEVYdGRhdGU6Y3JlYXRlADIwMjAtMDktMjNUMDA6Mzc6MTArMDA6MDCYv6L8AAAAJXRFWHRkYXRlOm1vZGlmeQAyMDIwLTA4LTE0VDA4OjE1OjQ1KzAwOjAwjCGiuwAAAABJRU5ErkJggg==;" vertex="1" parent="dRZYSQgJwG55mgxKp0y3-67">
          <mxGeometry width="50" height="50" as="geometry" />
        </mxCell>
        <mxCell id="dRZYSQgJwG55mgxKp0y3-64" value="" style="shape=image;verticalLabelPosition=bottom;labelBackgroundColor=default;verticalAlign=top;aspect=fixed;imageAspect=0;image=data:image/png,iVBORw0KGgoAAAANSUhEUgAAAZ8AAAB5CAMAAADRVtyNAAAAY1BMVEX///9h2vtW2PtU2PvZ9f76/v/z/P9q3Pve9v5j2/v5/v973/zL8v7i+P7r+v75/f+z7P2V5fyG4vzD8P6o6f2f5/zR8/7E8P2w6/3u+/9y3vuO4/y77v2i6Px+4Pua5fw+1Pr5GxyLAAARQ0lEQVR4nO1dCbejKrM9glOOQ5yiiZrk/P9f+VnFICAk3u7Y76112Ove7k6csDY1UBTk68vDw8PDw8PDw8PDw8PDw8PD4xcgHi71NNXdEL8/9zZ0cO4lPx/fLg9AdA8ICRYsfzb561OHZj33+o/a98sRJihwDnqqnEoUXwP1VJIU/7KdvxShKnIm9tl+ZhWYpwaeoKNx42qTjGNCufzpaJF7KtSMsHPZh+jft/h3oQGpkyn9iqIorUbBQWeedxdHxrlYTv1K2YX1/0WbfxF60APSys9M7EBDqZ5WcOUh9apZM1xK03/X1t+IZqMsacY1RYnkBvYVfWikPeHb6d+085eiBB1IjC/zE9JBJW0XyuIGI/aOTvDtjiGTx5+iWpgglflt3DBCGvaRmTw6fZvndXD16wGTx19hAsHftt9XbAz6WJQjZvZO8VESJfBzOb6VvxbfySL50XYk5FHC+Zbgv07WkY7NOnp8Dje3AsQs1E6QHpLZvQxEFyc/BDoMEB4QR7YgamS2gLiCtCvw63MIh6GgdsfCUIshqdPFAD9+BHQceuj/vfPw8w09X7Pn51DkIN/QdTQemf48nB5m8Pwcipf8RKNwPw/X9Z6fY9G/GmDuiA+8fTsWr+KDC+anLxOxprMZfHxwLF7E1xXlGR60cnSwnuTj62OB/FjLCNis6ngWUYKdBcxgW9JDHp9BfHLMENyY78GMaMkSPLYMQuLzO4fCmX/TdIbpUmY5zeffDgZOz22/RrtFZWCHM6WWGCGG0/wM94GAqgK6cS05xmz39QvM9GwHSgVxp+88PoEWJGzGZjE6HJicixDLP7LANlVavU4Pefw1YACkWagyDVskI0iSE6EAQk4jSyU0bZiqFQg1aFVp3tPjgwhEgPCd5vM0JgGlMm2wxULYwls95ykoVeTDt8OBM2xh+xwJJS+IMWhaTh7vLc6x+vqdQ3HFUMBFDUE4jwU+PDgU57xO7MJPkvHRTPXlcr9fnvXUZGPiOvPZb+p6PD6BvjlRU1ceUNAT0PkrMuZ8ls8dKtKUGTpFSDL5GO7TKO5EIyeZuryMeCDd2K/BY48llCiHrknUy2nQvcvCxX2oIS1u/1rvYnjuZlVZunz5X1KIEdzlg62yIW10r/KMuaxmHIg6mluqtdrfca15o6B5nccOf6iBIHnMR1FkndNKoQmbucZs+XKPE+05szEEsYfWLIWj6PuEJihlkVu7IQP2uYQvXrVIRA/EMdFTLkoJaPZqJihU9U2y6pi3+EukozXqTwmz3Toer95YIp5+BD/gdA/kJ56kQMk1jJiYucZgHsdar4jAGW/yZB/wbR9fUd9JXSRPdzE28gOei2sPv2hX1/1viJ6EWN8hZY80rMMufualK/0bfq5UGKSaWdHrmkRji01eJARSPEG5jr1YXnNpE3e4Dfyc8lB6ob6tcTneNvv3twAzbEu2C34MC7eLH0hTCn7ogfbtxirfF8lUohuhV2FthhDaNZXNUBPtZNkXyys3c6RxNB350dWLabKz+ORP8Y4fQ2V38ROs/ERpmh41ZcxbqK8whRQCZtHQvWiqey7yvFR9+A0m9HDiAe2VGuhVbAkXsVdq2/hh5fkfnx9/x49hIf4rPwei536n0sImzEIvWvONsleqRdLnaXETNLkoEsQA7/TFykf00p+446bTGiZY+SmPmKB4y49+9P8PPylb1ZMZDhJn2QK2mkdpevQUkRmhylQQ2sCKzYxT4wEFq6m3aoSVHxTO3XL23+AlP+PdXPG0m5+PNdABFGlAt+JAK9PH+hzcWSwVRomvJaQsTv7GiaPt1OkTjyaWrmbnBx6tTW9U02N8NNeNCqbX6ZGNWXM3UxXnoX6M2ePJVTkecrAHY54Pm6QG8JOwGFSxcJnBT3htjCf1Axge0i73XMQQ9QugqfkC7f7L53UDlrRrsvExzfunXx5Ij6WroMgnHAit2ehMoUcrIWUrVvFPiyFrXau67fxkmv6UjYgyqD7arQIRwy9/q53/u5ORY4CWuaRiexO60SHkh1k5Jf7W+enUJ3FbP1J+S0LjdXwa/yyfVekXP8sR8baZfJN65wJQDJ7t40GZ+lyf1xlZ69VLFPKIdZDhWtW9w//kQgx69QNfiiTTfvS5Xp8Q5YoLv+OmS3EgP99sVeZaVKbys95PfdLaVWEGWY5/asNQLpZT3PZK12YRuz/eYAxsS00Rs+gy8s3j7aSClO0kGmsvPL3bg2YrP7Vqa5DZYJrb9gILlGUYHAE95HEd8qFDUVFheXBvDZJVbXsFwcKC5lszgWon09Rsll0w+8ZdqNRPhR+24Fl9Epr7S4Ov3Cz3VPkJDT+33JYw1w7rqcnp0rYtSzfvSddht3dMdko2ZORw3fCz2oCSh2kOh4kvuZ31tvGDvlqYVKw1nlgLvuENxcgVw35BSQ93F2E9JGxFDNnJUmNon3VQJfgpNAun8INGQ/R2DHaFoVZed80fJNroGmrZWcMGeJM788ExVLFbawcNzK9C2SezLOvQ9LFRH8WNs3VbzrjLXjWC/JTR+fsba07OcXhly/hFnxi1Onygjgv5pBk7MNNcVCgHaTygVXh98Y4flvoQL7vycw5kcgSQM3OICJT8geRnuY0ihFr0lW/dfjYvV1BJ4HjFFUwwlVDqc2yTcevZ7LPrZqgIG0Mq82/cf4s6h1Q5rsZ9o5B9/6On0wKZYM+058QiB/OeH2br+ZNXfvIltlAuhPGgEAk8lFO18oPZZHH2mYhKwopoz8cD7xUILGHiTOeDzQ5Wv2vjhxpnO+sSI2rrMbb8NSGNJHky1HsJBNlNirl7qAcewnpiKKAw2gRjDcTt4Ee1cCs/4Xx/qPHTqPFDtvnRRvEtg2gvXqZ6nEUz3GtIJdCEuWhkDui0fmHhZy0z/cbPtkEOAovuN1m8LT80uSivsaoFvwtxBIiNsPoD0atTxMvt4Ee1cOb4Z8UiaKrww4eACj85XbvpQzQLZKmtaQfH9L7IttrkY4yDWkA2msJUc20seHA6s8H6JJavmxbUDUaxiRbVlNQMOMBcbXKtcX8JhCCUeFbDHn4UC5fZI9G4fypdxs7P+SR9P3QnFsz1ZseCV3tfhYZF7o6J64iry5obvWzjN0nHWRxzPGkMAsusAcYHQuVwlyzNR23Uy4gCb0VeXZoTG32y4HhydLiX/Iz8FUsZzpr8yCcFb/kBMfHQZenhXEKzKTp4kx2bROAL2ws5ejH+kRIrttZoE3s7wvrBHsgb8TWYW6o4qX7TIRSWz/MYyMBC8tM4mrCLH2ZPIPrS+ImrLKDKk97wA49ifX71VZXtTZyeZQW7zhp0rdG0pHkynrI6/HXoatVGNom8Nejm+AceoOQCczlwV/DDxD/IHA4lj2pU+LFlmF6PfyQ/OHgCflV+ZvVJbfKWH+migCjuCzvbm7hKOlQ4icToOgOSVrd+MzuAfC/MD0za7JyCAk+2OHaTn0ifzQD9yfrcAD6ArbQkQXaZw5jlm4V9s+rPTn6EhVP4uepP2sHPzM3aIhRhm0AP6s2b7JicYCaebF8Jh/EtM2lSgoWmQOvICVfWkVJMGhlgKTRbzfwmf8AUrVAO2wsfsF3JmgeW/NQO/7OTHzZifyr8YIYyaeWTdvADHyAsOK0mfd4VrtnAElybmIdlnSKWmF7HQOm67bK62SU/C3vfybgTz6pSW7S/ze9c1TQLjPUsC8W+tgO3RPCzPEzrIeWcFyC3vfwwC1c8JD/waupeHDv4wSClBO2XTeld00/vwSY4yairEPb5iWuMGnhVCUXbqc6GszRAzHeO081/zxi1l+RY8m+j2ltOhrWKqr6AXhEH+gEc/WIj14QXw0zZROJuftAUwNIZxs9ZSxexNMlbfpbXWl5hiXakhUH/rFr+29yXOwsgZ14dMqkGaBISUIo/GKJ0uFZDqsaGo/BSGKapelzw/Sys2mPlJyWK5Xwao818kTYoVGmkR6A3MSnGxpGGx6e7+RHi4PxgXko5jJuj8NY5+flCG3BSVSYzbFS3vIm7Zk1Hz7cYp5PsKLE0M9/ELV6OajVrRO9HojDo5Eim2/LXnWLhCj2rCtOc2A+gF5O1++FQjffyWrPHcANs2c3lyjb8sESV4AfzHmsLv9UR2GkdLBv8QJIUBj9rxDromU7MC+4uw+Rbi8JevNwMtaunZ9J/MZRCLnlTLqtAozkTd21cgb51/gc9H28Hykr2Ggi/kRbwjoqbYbtusz6g736SifMiNW2pYssP30aA3STSM/wP1dyP6z8NflC/l/8UDwm3TESXirLgvy1ia09iNEqe4Td3+Gsz1C65AVpArsk9N3DnsJZTwuYOvwqs/IRKQeQZ+b3iKQXMjnE/hiNZxkLEPZwI23B7mSdKIlTW8qGZHoaNG9zywzeO5iTD2/HOF+Un9kZco3HOr82r87Z+FPuVJjR05GSGkDoKX6QFHDjLgtzF9T/zQImiUF7u6b5e7VJoaU59LRepEPtOJMqtt/NUqsvDDBQJHk2D89mUeyNWEz4+r920sEMSNe02gQaRbJrGNa3Ah9tLXGM+zMIPly7jp9SfNF5WfeLL2ODdTX4GRaM5WireBPsTfVnyaUHcCR1iWYzVz9f25AwHni/H/LW8nOlO9zLHZOeHKQ23UaWs2wdZyOekAR+Rwx8X7J3S/StlEkT+aASrI9suw7Dxg8lEYSR7ojzpjk3mAWKcSEXb1F+rwwTxsspPwpDgDwr8zvOorQPO6jwshbxcJb4reWXYTplyOaFZ+yYDiOtLts5pwGUnQpL5SFk6hNZKoHubKAv02a8LJJT+yO5aNPyYWtaTLqcQ+mMaW1hfsvGu0IAfIcFy4s8nT5BGsBzipN8ecEvIGEL9tRrmfT1/6M9mTMnHJku7Ln+4P1F6SVSKoNc86uGCPc9accJyA/e2fugLVpfo8fKxGt24b69VG0bmt3M1D/Y6mKgfqqo1jt3CPvyjje2XJ13tT4qXW/6XvQTKvHXcaTfCp7n4l39Mprqbh15iqLp60k9Zr7gcvZrsN4NlW4MtzAys7RT4316x5fEhoFbc69fbUliooTSoOxJ8vnraQwOE5+Dy43CuF49P3+xSAa57CZ9qzL9Hzl8H8PgQMOSXaa/4lobV88lnu7W1vIjkeZnD9KZVklpiMo+PoddzGuuXC2vFuhi+wGHcJqzDmk0fHRwIu4RxilQtAcUxMt3WHJJgT2mXxx/DYaHYdm8y2mcTAdtyg9IHCMcCFytZPDyrPhBZDFx0uhZHKaA+QDgUMYQCtrksdEG8GDli2mQbCQeB3wDuSNzsVR5fopQF86aTe9oOzOOexRMef4YX+8fXIiRg+/zbK1L8/vHHonDzI/b1Z9Vnjk0k/O8vHAuY4XAVzcdK2mB0lNdVnp9DgcUwrgHmTWZ6nC6m9fwcite/nxUKgpwexvNzLN78/hybPX4xheD5ORYwU+/e3KQV+uOsyvH+51i8+v1TuVPci030rsQxcPX4CNzjU7GEji9VclWMwEE/Pj0MZ1d+h+2rAMrBJhsc2+69rMby+HvgDhwW0Re83itki5ShusxSJhSbe/R5fBhYQrB1/6KwHzkpWKmrpcZ79vM/ByOlFgPHNyklGc8a3NhWcLQxswj2ldoeHwRWxOsKxNdnqyXf/JfSjVCvNdcLeXwcbLW+usEoLx3Wh0ViYVeifIu1JdS9YsHjExhVMsqO1ypuNiktBW1Bx6e9GbN+9vRg4KLlgCZ1d5lkQbYtpSN25yV0nO5dzdea+l83OxqVkLtMV9PJKvWikQkFce4Bu/N7mKjWVTeoHo17fdZD3/blmF+38DAQyrVAi148X6bTwnrd3/b175V4fBD9ZQwoTcbu/T4kcd6NCaWncbMTtceRiM77969fzj30B4o8PDw8PDw8PDw8PDw8PDw8PAT+BwPKuNEVtLdKAAAAAElFTkSuQmCC;" vertex="1" parent="dRZYSQgJwG55mgxKp0y3-67">
          <mxGeometry x="49.00000000000006" y="5" width="137.19" height="40" as="geometry" />
        </mxCell>
        <mxCell id="dRZYSQgJwG55mgxKp0y3-72" style="edgeStyle=orthogonalEdgeStyle;rounded=0;orthogonalLoop=1;jettySize=auto;html=1;entryX=0.5;entryY=0;entryDx=0;entryDy=0;fontSize=11;fontColor=#1C1C1C;startArrow=none;startFill=0;fillColor=#dae8fc;strokeColor=#6c8ebf;" edge="1" parent="1" source="dRZYSQgJwG55mgxKp0y3-71" target="dRZYSQgJwG55mgxKp0y3-36">
          <mxGeometry relative="1" as="geometry" />
        </mxCell>
        <mxCell id="dRZYSQgJwG55mgxKp0y3-71" value="" style="shape=image;verticalLabelPosition=bottom;labelBackgroundColor=default;verticalAlign=top;aspect=fixed;imageAspect=0;image=data:image/png,iVBORw0KGgoAAAANSUhEUgAAAkMAAADICAYAAADr0eWpAAAAGXRFWHRTb2Z0d2FyZQBBZG9iZSBJbWFnZVJlYWR5ccllPAAAJY9JREFUeNrsnV1oHNcVx0chNIVCs4EmrQgla3CqVqHqOqRJUwe8KW6LQ12voTKkedD6oXbylPVDSdsXSw+F4DysDaWpnZSVwbUTO2ApAZvWxlqDTfQgI8lFivNBrBAS2RZFG+iL86LOX71K1s7u7N6Z2d2Z2d8PBn9IK83cuR//e8655zgOAAAAAAAAAAAAAAAAAAAAAAAAAAAAAAAAAAAAAAAAAAAAAAAAAAAAAAAAAAAAAAAAAAAAAAAAAAAAAAAAAAAAAAAAAAAAAAAAAAAAAAAAAAAAAAAAAAAAAAAAAAAAQETpoQlaz8rKStr9I/1Fo/f0lGkVAAAAxFBSBE5W/y6Xy5uWlpaczz//PP3BBx+kq7+3Uqk4MzMzq39PpVJOJpO55Wfdfffdzv33378qkJ544omF3t7ej9y/LuhCOAEAACCGoiB8pF6yi4uLP7pw4UL6k08+yX700UerAkeXxE7YSDCl0+nVP9evX7+wYcOGhf7+/vPSXe4144qkCm8GAAAAMdRS8XP58uVNk5OT2bfffju1Jnw6yZpVKZvNOq44mvn1r38tYbQqkBBHAAAAEFQA5dyreOTIkav5fH4lnU6v6L+jfuVyuZVisbgyOzt70r3/gnHfAQAAADQlgDLuVTp48OCyREUcxI/XlclkVoaHh1euXLky7T5X3r1SvGUAAAC4XQClZEE5derUqgUolUrFXgTVE0ayGH366acl93mzvHkAAIDadE3MkKxAi4uLz7/++uv5AwcOOAsLC235vYrvqYV+f7vuwRV9zrPPPrvw2GOPjbj/HCO+CAAAoIvEkKwi8/Pze1955ZXs6OhoaCe/dNJL15rYUUDzzZs3K1VH49dQ1HWtX6og7S/cWGtH85eXlyXaUmun1Nz/D1WYPf3005Vdu3YdcP+5H1EEAACQcBE0Nzc3IVeYE9DlJFeaYooUjzM+Pq54nJIJVs62Ki7H/GwFdQ9PuCiuqVAorLq/gj6PgsP18/SziSsCAABABHme0pIQMaIhG4FnSyswWnFAYZx6QxQBAAAkSwSlJRJkvQkigCQOTNBxLgbPrNNwhQsXLkzLauRXGGWz2RUFlEto0ZMAAADiKYSGJWL8nAyTEIiTAPISgxJGk5OTvk/JSQzKqmaSTgIAAEAMBEBWi78EjWMZAyTBkNR8PBIzEncu1tYitY3cgxKY9DAAAIDoLvbKFVS0dYlJGOgzxgqU6ZJ2GpYLzFYwKlBb7jesRAAAANFb4DOyBtmcqqoKFC51a7kKWcD8iCKJR6xEAAAA0VnQC3LhOPYunyKnpfyLIn2vcSmmaUEAAIDOLOCpa9eunbSpH1blDmMBryMsjx8/vtxsTJGEpb4/zkHmAAAAcV20V91izS7aVVaMLK3XWGTaxl7pCD9uMwAAgPYt1nnF+jh2losCLWcvOCUgm3Wd6ftkqVOAtYTU2iWX5Ozs7EnyFQEAAISzQBdkhXCazI9z48aNCVxigdt8WILGT46i6ktpC0y+It4HAACAz0W51Ew5DS3a5pQY1qDw2j4ji0/QGmh6N1NTU8sczQcAALBEQc/NLMTkwWm5KCo2a5nzEkTmHXGSDwAAoInFNyVXVzNCSFYjc1KMRba17yTnt8xJtWgl4BoAAKAJIbS0tNSUa8bkDcrTam17N6tusyCCyATBAwAAQBAhVHVaDLdY+9/RcBAxpAB3Uh0AAADUoZkYoarYE4RQB9BxeSdg7BCuMgAAAJ9CqCpQmvigDnH8+PGJIGLIWTUuIYYAAABuQaeVGpXXkBCSCw0hhBgCAABImhDKN8ojhBCKlnANIoSUsZqaZgAAAF8urNlGlecRQpF7ZzmbIrlO7ROAvEsAAACVZ9CJMK+FUwVZEULR49SpU1cdn8HTqmNGCwIAAELIFTcqBup1RJuMxZF+f3k/1iFjFUrTggAA0PU0OjlWVcsKIRTTd+jUyBROgkwAAID/WxVyjepcmYKr5BGKgSBq9C4lbMkUDgAA8KUQahgnNDw8zGmjmIlbuTwliqotRTo1JhGkGCGELQAAgEHFV73ihEyphmFaKp5CV9YfvT9z5YgPAgAAuHWxLHgF3erkGCeNAAAAILFWg0buscnJyasETAMAAEAikcXHyz1m4oSytBQAAAAkDsWOeJXbUNAtcUIAAACQWBplK1ZiRVoJAAAAEoksPjpi7Xi7xzh2DQAAAIkUQiklT3Q8To+ZCugAAAAAiRRDRQmeemJI7jNOjwEAAEBShVC6VCo1Sq6Yp6UAAAAgSvSE9YNUs6q/vz9fqVRqfn1ubq780EMPPUmTAyR2Q5St86VKT0/PDC0EkKjxrtjfmp4ed7yXu1IMySo0Ojp6defOnTW/XigUnGKx+GQcG8iiDdQpAgeGJ7mN/A6sNsBibd/XJXw2lcvlzHvvvZdZXFxMLSwsOLpuJ51Or17uZqly7733zmSz2fPuf8+4bT5GW/rr9906T9BmHd3oZN3xvumTTz5Jf/DBB2kZPmZmvjptplIpJ5PJOA888IDzjW98ozw4OKhv0pgvu++gknQxVFy3bl2h1kSohnEny/J99933ZMI7S94Vg6VabdAs7iLh7N27d0M3LswTLiMjI9lO/G4NXPXTRx99dMH9e7m3t1cDdyzKA7dDAig3Pz8/9K9//Ss7Pj7uuBOjr5+ltlZf37Ztm/Pwww+PDQwMjLttPdqN7eqn3w8NDTnuXNPTrX2RNmvbmM9dv359yB3r2dOnT6c03ut5fppZ2zTet2zZMtPX13fY/a/RxM2vjU6QdUum6bm5uQnHI7dSM5cydsvd2I0D7/jx44HbL6xL8W3q03oX3V54Vs+vdlB7KFlqK9vbFPtN0++9L82p3dwnabPWrucahyql5VVXNMileUTxxYmbX1WM1WuSVNX6blgwzGALfBlhyQQXgUviVO/VDNpUl02KqyJIz+9VVifMSydRNUkaUZSi37Ow02btFUFaf7xOhLdiflXprkSIIq9s0yrJ0Q1WIXWisDqQElZ246m7KIqh6kX6zJkzslzkumRiHJYoaZcIqtXe2plqo0W/Z2GnzVo+3nOa39olgmqJomKxGO9NkISOVw0y4zpKPI3Kj9hes7OzJ5ngoncZl+9wgifFjErleGWQd9rsrpRlOcmuMxZ22qyT1iBZZVrlDnN8uM8mJyevxrJChYlv6eq8Qo0EYYBFN80EF73LWDtLCezH+U5ag7x2jcYql6Xfs7DTZuFtfKampjpmDfK6jJWoEKfGTOmm6z3QkSNHrnZDp/IShE4AN0GSLRBxFkNJFER6lrAFfYuscnn6PQs7bRbOxifqc2xsDhOpQesFTnfLYt7oJF2Qy7jemOCiLYhivzhrwmnVKbEWtXmx2/s9Yog2C7JuR33j41S5zYybPNpxRF5HybvFzeMlCEOa+LNMcNG9zHHwTFzbPE5CKKlWORZ22gwh5C2IlpaWpiMriCR0vFxk3RI4feXKlWmnhbES3ZRzKI5iSO/I9AGEUPsFUaFb+z1iiDbrBiFULYjasRbe6fNz2cOHD9f8grL59vf3H+6CzpXes2dPy6wCyvT51ltvKQp9D5mQo4ne0R/+8IeMJpo4ZVCWC3v79u35Wqn048Do6KiyWCvKstKtmasBLMZ7dv/+/SWNmziieeqpp57Km/G+J1Ji6PLly9vqTaRKe+7SDTWHnh8ba+1jHjt2LLVr1y7ltmHCjyjqA6dPn94bl3eknCKuiN8bZt9Vqn1dqj2muev2ry8vL2feeeed1XT+YQkwd3J3fvCDH0gQzVBXDqD+pv3EiRMn3TEf2s+UwUPj3R1/lXvuuecrY+/zzz9frV2m8e63ZE8tQbRz586C+zyzrdoA+RJD586dq5t87mc/+1lX1HT6xz/+kQtSh6wZ1JFUCwoxVH9QjoyMzNy8eTNQf9Nirdo7fgXCoUOH0nGwDsnv7k6MJQmJMATQ008/Xdm6detYb2/vuNOgCKOJIcxev359m9vWOfe9OUHHzwsvvJB66KGHZD7fwGgA+Cru+lFyN9SB421UaPn5559fXd9VS9CM9wWvuWbv3r1Z96/b3Dkn99e//jUVVBjJsvX4449rA+T5u9u6s6yXpEm+vS7JLZTz43/1U7KjW4LR/cQBmGzd2ZDeaV4Jv/zG0cQhUaYSrAXNI6Q210lHtZffoMa11P9hZL01c85wN/V7YoZosybHWSFoAlWNz6q6gakg8+v7779/NWiCR81fkYlJNkdba95ooVDoioXbT24hdcr//Oc/Vx1yDkVSDK0t0n4Di02isFSEJ8ZckABKTUKmRMZwmO2tnxe0rl+cNwws7LRZi8Z7OmjaFzOuimHOaxJF2gQF2ZRFJqHz+Ph43RNU5mtJ72SeySYd72PYeT/KuBsSWEZBDFVbUGwtFlGvKRekZIzEoU7NtUpwKD2BrHJ+rUSR2i2ysNNmEdmw+xUc+pwpi5Ft0XhPKX9QEKuVyUrfuc2nfrnXLi5pCdHqKVs/loO1o4HaXTvkHIq0GFI/12CzvZ+o9n/1Wb8Tj8R7O461qs2VT8SvmzKuY4SFnTZrhVXIr7W1auOTasN9+s5833GPiSabepYNszAlvqq3Cln6NOvlTBsW/Sj2pOccipIYMu+pYLswm2dIjFXItG+pjfPLauFIv4IojtYhFnbaLCpWoU4kOAyS/8h4W0K71zssvz9bLyJcp0tcyglX3Jk33njDOrfQb3/7W+VHWDuqdNgVR9a/2+QcSjnQLkZt35OOlEbRKrRv3z7r+9JJvaNHj466/XZnu+5Vp9G+/e1v7zxz5syMO5lbf/6ll17KxjkjOEAYVqFDhw7llQPNBo23v/zlLzPf+ta3nmznaXCdwC2VSqNGP1jx8ssva5LId6ShzYmZrq2l5ceqo++/3X1iYoD8nJrJJ7Vto2YZEl7xcXHZfXqVzfHqs7KAdkp8+3VTxjFrO1YO2izsNcpP7J05HNGxzZxiiPxYs8LUHVaWoX//+98Zj51kOekd7cSJE9aK21gXbsnI/cwzz4zZ7nyVdMrkHII2ETR/URR2ia+88oq1WNy7d6+zcePGnZ3KF6bfu3nz5u3uAmb1ubWs7fRc6Fb85L/L5/PO4ODgzk7m7rn33nu3Hzp0yHq+cUVcOixrsJUYUlbJWv+vhEy9vb2zCVfcuaNHj1rvlN1JfaFGhlxfrjItbN2QugBCI2ebSFLusUKhMNLprM7u7y/v2rVrVHOLDUqe2Q2xiwA11qjM2bNnrQaMNuX79u0rV4VxdGq8V1xBtsfWXWbmt1CMBHdYNHS2Xip9M2ElOiX+9evXh2wXFrWLrEA1XvzMjh07rFW4+f3PM+zbgzJTx/n+L168OGS7S3zppZe0O9sfhft3N1gjslLZjpHFxcVt9F7oQqzXKHfjI6vMzijcvOKH3A2/1YQla7CsYW0VQ1rb602sRs0lVgwphuHYsWPWDW6sPwdqfW3Lli2HbXe9av+wXjw03mW9/fbbVpbADRs2zESpz7q7RCsxp/64efPmA1EppyOzfT6fH7V1KZ87dy5LD4Zu480338zahnHI+hqJ0haG9evXj9h6TaamptJheEysxFA9y9Ddd9/tJLweWf7AgQPWH/rNb34z49HRRv24ymQGxQ3QehYXF60L8X7zm9+M0hjI2NYCUu0hJyJWoSpGFNPQickRIE5MT09bbX40rnp7ew9H6RlkHXLXTStxZua5wBugpsWQuzg8UO9r999/fznJncyPu0G77I0bNx722vVKLNnei4rV4QZoLXIJ2x5PlfUim82ej9BjZG0rxEexyLKfcWKemyP20FVzlu3mx8SzRm7ttj1gZMb7j9omhi5cuFB3p9XX11dJcCfLvPrqq9YTq9lle5oWJJZsXWXin//8Z56cQ61735cuXTppe5Ipaq7iy5cv/8hGzClw2lSjjhzuOBm3mRzNooAYgm4iY7thd0VHVI0Y47aB1CdOnAg83psWQ3fddVfd2cidRJN8kszaXVK1y27UO8f8uMqMyw5XWQt2V64QmnB3TNZCc8uWLZVOn8io5t1337V6hognTS3bTo5elmyABJKyEUPa/Licj+KDyFpl7q9pwkh427QYsvVHJoVDhw7lbIPSmt1l+3WVySx48eJFTpWFI4BWj2KrDMTIyMjEI488kvKTvXXr1q1jUXou25NwDzzwgBOlQMqgk6OXJRsgaZTL5U22a5QT4UNPtodR6qX9seHOoD8gySfJlPF5+/bt1laCZlxka8hV5nbMjG18h8qCKEg0qgtYO9BOSALG1qVVjfv5VbeKrb+9Gln3ohaIuLi4aNVvox7357avFCquYYAaLC0tWX2/wjM6nUvMi69//eta19pqgLkzpJ+TyJihy5cvb/PjIvvlL385ahGIOjo0NFS0FUMKpC4Wi1Jde7pZDAURQmHx+9//vhzFQMQkcc8992iAZJv9/ijWiQOA5vjFL36h0Ju2hoI05SZTUKltcFbckdXl3LlzvnILubvYpgNRJZoUX2StPkNMNgX+kRjr7+8foSWiRRhmcwCIB7LsB61T2WzMUKrbxJB0jZ/cQn4CaRVfZBsTId544w1yDnUQmZpN0rIyrQEA0Lm52Anooboj6E3YZoeNC6dPn37eVgCqLdzF0U8g7djQkH15FUoPdJbXXnttobe3dw8tET36+/sRqADx5W5bMRQ0BiqwGJJFI2k7Y7kFVQ3X9nNe5Te88OsqE6+//jo5hzrAwYMHK4899tj2pGRe90qdEQXm5+ez9DqAUNe5yI75MPIGtV0MJRE/pRhEnQr1TSFXmW0uFXH48OohpjxvrX2USiVZAPdE+TTG+vXrF2y+P8qpMxS/Z5vuAKCbeOKJJ6zGe9QTk3biAARiqIZafuutt3J+cs3UqlBvwdjTTz9tPeObnENDvLn2CaF8Pr9TNXSifJ9f+9rXrCZHuYSDBiC2EOvUE4ODgzP0VugWent7P7Id704I9bxatQbbHoAIwy1+R1g3n6B+lTt27Jj185hikgf8/lK5W/wm7jM5hyg/0EIkds+cOVNx3/OTURdCfsRAWMUOW4Hi4mzyQJlgyo/otdBFLNgcwpEYUsmeqK7Btp6ZMEqCBRZDSasDND8/P+QnAV+DCvXNqvtxP+U5lHPIBetQi5DQfe+998qbN29eF6P4uI9s6t5pcrx48WIkg/HPnTtnJdKinl0XoAXM2J5IVuqYKBoylN/PxhKsjWoYJcFwk1Wh2IQTJ05Y744bVahvFh3J19F828/Jpefed543GC6K4Tp16tRCqVTaft999z0Zs2Bp63peUbQwKnWEUkjYiiHSHUA3ofjFxx9/3Gp+imK8qcSZbX6/sOoqNiuGZvzkwYmjEcBYWawtB9Ikirnwcd3SsH5dZUePHk2Rcyg46ufFYtGZm5srT0xM7HzqqafWRakAaysnR/V9HR6I0nPMz89bH2bYvHkzViHoOn7yk59YCQJZX5RCJmKPUbDN77dp06ZQNj9NlePQjjgKZQ9ajdsxhvwkl9RkXS6XS35+p/ILuSLmnjWrg3GV5W0XAH3/9evX5Sob65bBL4ucEaKB0MkrBRwPDg7q5auSczkJNd/M5Ni0QJaF8dChQ0rVMBKF59dmYefOnVmbz8hkvnHjxnEHoMsYGBg4786JOZs1bN++fUrcm49CHKSsQu78Y53fz93Altt6o64YWtH93n65je8+w0oh7h1JE6+7sNZ8xlZe7ov8SvsdP3582c/PKhaLK3ENZnefecL2ebNZGdYiewIqCn06r/5l06aumFi5cePGRBTu/8qVK9O2fUJjOE6HCfz0ezMXdy20Wd3xni4UCtbrxpkzZ5ajsG58/PHHRekJm3sPU380HTNkqkZ/BaPiYn+abHFxcciPiywotY7GDw4OjvrJ7G3Mi3kH4P+MPffcc1auMlmHdu3ale30Bsf9/cPPPvustajZsWPHQpTzPwG0Cllz3TFj3fd/97vfpdz1r9hpY8Tf//73gq1V6PnnV718oXhDmhZDpmp0Pe6Ocydayy3Uqd9vAlfTVf912M+pMnMiiFNlsDY5rqZrsBXWcrkeOnRob6csLJoYR0ZG9tqe6pTbdMuWLQd489Ct9PX1HbA9OKF1409/+pNMqvkOjffU2bNnT/oJxVHlhrBc+qGcJutE6uyQyb388ssds26Z+KBc1SI2o2zWfn7Wq6++Ss4h+ILe3t4DfoT1Cy+8kLp06dJEu83n6ruuEPM1Mf7xj3+UFWyUtw5dvAEa9ZO8V14R9yq1O+xA84u7gZ8YHBz0ldtvYGCg/Zsfma2dOn678fHx6Th3ID+xCWFfFy5cmL6tvYuK37D9OfqMPhu3d0DMUOuYm5ub8NMn1ZfUL2+zWrZUCE1NTS376fcmdqDUDf2emCHarNFabRt7s3YdPHhwuV2baQmhpaWlab/3atbt0LCyDNUzt0e5rlETLyT9t7/9reP3H5arbO1EEBIA1ujv7x8pFAq++tKvfvWrzKVLl6ZbPUEqLYTbbyc2b96c8lOHzFiFRnjbAM5+Mx6s2b17d2p0dHS61S4zzSeyCD344IMZPye4ZRXq6+vb0ynRkNVOvJZCUwR7XF0zsqL4VaZhXmZne4tF59SpU1f9/CxXRK10yv+LZSiaXLt27aQfi4tz60nF4VaNwXqnVZ3mT2QOx/G9YOWgzVplHaq3XjtNnsr89NNPS61wk+twhk5M+52P9Dlj7e6cBaXe0XOzKMUy4d+RI0euOh0WQmuXuZdbOrRfoTY7O3sSMQTV4/fFF19cDtI/1d4yTYfV5hLsk5OTV22P/99+adPQTSklEEO0WTOY0ItAG3Rz7D4f0njPSsRosx7kvvQuO2588dq9xXFnJgEX9MWEed2eI8Vv3oiqnXwaMQTVO7Igu8XqfqpJzc8kKdGyJoLCyOtlrNKx7QMs7LRZC8d7JojFtXqeNRuOgp9Nh9ZZzRe6lyDWaafFVuA7bb65v7+/7NSpbF0ulzfFrbOoGrZtpudWonsplUo6Gr+axkBHBl11P7N//35rFaycQ+5CIWvdfmQAmP60/8aNG9u+973vZf3E5axhTp5k3Y1E9uDBg0Vlulb2W9NvF6qPuhpxrwk0Oz8/v8nty1nVRLIpxFgPUzplf7fVIVOMhREELWdwcPBwFLIT02a+xvuMssm7a/NeP8XHq9Z2XWl3vBWHhoaKExMTqnu4mqnfvSrVeb3MBlxX5vr165vGx8ez27dvT4Wxzipm+bXXXlNB9JaIoR6bb1aGyO9+97s1IzHdSbGye/fue2KkmlPuxLy8Z499DFZYZSBq8cwzzyw8+OCD66p38+vWrSv6CTJzd98L7kK1Li67vR07dljt8JVPwx2YT1KU067fnz179urPf/7zUN1KGhO6JFCqD1qo3+qS+AkiwGpNjG7/nvn+97+/Ie5WDtt+3+b+MtKqxYc2aw/KKB90A1Rr/Gmsr437NfQ7NNbXxn3I773iCs0NkSiVJPN2vRgWY65Ox2hRyPuNVWhn2YsgrrI4lSbATdbWvp/REVonIu5hP5eO4Mc1Tihov2/nFcXwB9rMfgOk+KGgLqpOXmbNzUZqEq3n5ze+vHxcJqEgwWXtDk72e68m51ApqYsCYijYZqBUKsVyYmxnLhQWdsRQEtosSA4vJxqxtNHTFl47Sh3Fi8vO2K+1xSzA+Tbfb8GvFcu8L8QQJEIQJUkIsbDTZgiimAohYawisV54/WZ37tQzyswpM2FcxBtiCEEU9qXxao75JqrUDAs7bYYg8nSN5aM8eRbqxQ3FJUZFCZ/8vqBOWb+8RKgTMbceYih2gigjoRHVCVJWUVMWJHE191jYabNObK6VLyxofq9Wbny0Rkd+bveKG4pDXawguYWM2Mt26L59B3ybJFVpxBB49K+0Jsgw8hA5IZvJlT07CcHSLOy0WZQEkTb2fsNFWrnxMYld07EYwF5Zm00JicgSxMJye4bodndev64yU+qjEOX3ghiKzCQ5rH7WaSuR+qzZHeaT3N4s7LRZp40Dsgp3uiSV5huzaR+O1QBWviHHOyNsJqIv3regiILVK4iQi7pIRQxFy0qk3CRhZIj2Oym2qi4SCztiCDH01XVxrT5gJzZBVRntM3GcLOu6mqLsKvOKd2p0RUHkaZfs140R9XguxFAkx8tqLSH1nVZPkmsiSCIsibFBLOy0WRw2QdqEaBy2w1KkecW4xHKxHsReR+w76U7yIkhuIfPZjit4v8nytNhEOfUBYijaokh9R6fOwg661KbKHJcvxSlpKws7bZY0MVQtimTQ0LgMu3an5g95Z0wcYKTm7jv9fnDr1q1ju3fvztf62tmzZ9WYuZ6enrEoveD5+fmKO5DKfj6/cePGw51+Brc9K1evXj3gPoOvOnB33HFHZN0Ojz/++Iz7XFafuffee/VHxYFW9zuNmbI7hva4u7nc5cuXt01OTmbffvvtlFLv29QZUwkVpfH/6U9/WnniiSfGent7xzVPuHNJV7atn37fZhaidkM//vGPz9NmLR3vun/VqdqjdVw1PM+dO5edmppKa6zb1DnTWNe1adMm5+GHHx4bGBgYd/97TGtZ5J47yG5x+/btE/UKsLnKb+w73/nOdpYSgMRajOTO0pVWoealpSXnrrvuSk1PT3/h5tqwYcPMzZs3K319fRV3Ipw1C8VMdXFHAIjFeE+b8Z5xN0Q/evfdd1Ma7x9++GHms88+W/2eRx99dOG///3vgjaqppirRE858ePd61RZHI5zAwAAAARVisP1Aq3Mce5hWgkAAACSLIbSsgA53nWEUrQUAAAAJBav3DfmtE+BVgIAAIDEokBqr+RsUU/2BwAAABCY8fHxuvl74lI1HQAAAMA3jTIjyzpE7BAAAAAkGuMO87IODdNKAAAAkFgaWYc4WQYAAACJx8s6pLxDUa6NBQAAABCYRtYhk5U6S0sBAABAYrly5YpnZXjzdQAAAIBkIstPoVCoK4YIpgYAAIDEc+3atZOpVKquICoWiyum4jUAAABA8lDNshdffHG5nhiSUMJdBgAAAEkXRAWvYOpMJiPrUJGWAgAAgMTSKJia02UAAACQaBQXpPggL0F0/PhxJWNM01qJeu9pWQYVKO9eOVoEAAC6fWEc9nKXrcUPkZ06Me87XyqVVpNs6p/5fH7lxo0bE7QMAAB0NXNzcxNep8sUP0R26kQIoYyEkFM7PmyYFgIAgG5eJNNyhzke7rJcLseCGXMh5PWOx8fHOT0IAABdv1jmvJIxOsalIjcLrRW7d5u6cOHCtJf1T4V6aSkAAGDRXFkpymXiJYhMQkYEUYKEkK7Z2dmTtBYAAICLgmkbLZyKOyFDdTyE0NLS0nQjgSurEO8TAADA0pLAApoMIYTrEwAAoPZCmmkUUF0liLK0WDyFEEHxAAAADQSRCaptxmWGZSFmQoh0CQAAAM0trPlGGaqdL8t2IIgiIITk4lxLqOglhK5du0bANAAAQLOCSHEljQSRiT2hsGvn3lNmampquVGsl4SQLEdkFAcAAGiBIFJZD7leWGjb/n5ycmkihAAAACIgiLTgylVDcde2vZdhuSmbeS8IIQAAgBAEUTMxRLJQmGr3VERv3btIKe7Hq8guQggAAKBFgqhWsc9al8p7KI6IRTj0d5A9derU1UaB0g6nxgAAAFq2GK/mIWoUo+Lc6jYjQWM4bV9sxi3mfBnUjhACAABolSCanJy82owgcr48fj9My/lu76xEZaP8Qbe1d4GWAwAAaO0C3VSCP6fKSiQBRdZquzb++OOPm7YGSZyazODEawEAALRxwS4qPqiZxdoxsUQK/uXEWcN2zZ85c2a5mdggB5ckAABA5xfuZuOIHGPB0Mk0uc4IsP5KW2bff//9q82cFHOq4oPI8QQAAND5RTx95cqVaZtFXFYP49bpelEkETQ3NzfRTD4n56tusTw9EAAAIDqL+nCzMS6Iov9nkLYVQY7J+C3xibsRAAAgmgt8xtZKtCaKlMfIuHwyCW6flE57KV+QrQiqdjHS0wAAAKK/6A9L3DQbS1S94CvQ2lg+8kmxFskVJqEnK1izp/Cqr1wutyIrEtYgAACAeAmA9I0bNyZsTpw5t52SqrIW5eImjGTh0om7I0eOrFqBbIWhYyxmOllGbBAAAEC8RZH1KSmnhmVELqLZ2VkdzS9E0UJiXGC5oALIIcAcAAAgsaIor1iZIKLIMRYjWZskOIzVqNCJOCMJsjXxM+EisSbRFuTZJJ4UhG6eK02vAQCAbqUn6aLo9OnTe/ft25cul8uBf146nXZcgbX654YNG2bcPxcGBgZm3S/NuFfFvRZ6enoWAtxv1vxVf9594sSJzPLycuadd95JzczMOGE9Qz6fd3bt2jXa29s7EuR+AQAAEEMxEkUffPDB3j//+c/p0dHR0H++BJLIZDJOKvV/T5PE0s2bNyuNPvvJJ59kP/vss9W/S/BUKpUv/gwT3dtzzz1XkQhy/3kAEQQAANCFyPKiMh1yMzVbgiLul+KJ5DI0Lj5iggAAAOCLGJxhFXUNEnwc1UuxTgqKNvFAWd44AAAAeAmjW46lx9VipGDxqlNweaxAAAAA4FcYDasyu4RF0NNorbwk2iTeVLw2rvmRAAAAokAPTVBXGElYZN1r05tvvpn98MMPM+fPn3cWFhZWA5zbiYKyFQCt65FHHln44Q9/ODMwMHDe/VK5p6dnhrcFAACAGGqXQJI4Up6hB3TsXX+fn59PSSDpWjsJFkTwiLXTaTWO789wCgwAAAAxFFWR5BihtOaqkmBKe32ur6+vYoTOGmXzp0RPhZYFAAAAAAAAAAAAAAAAAAAAAAAAAAAAAAAAAAAAAAAAAAAAAAAAAAAAAAAAAAAAAAAAAAAAAAAAAABojv8JMACuBRLAv/PY+wAAAABJRU5ErkJggg==;" vertex="1" parent="1">
          <mxGeometry x="351" y="80" width="202.65" height="70" as="geometry" />
        </mxCell>
        <mxCell id="dRZYSQgJwG55mgxKp0y3-73" value="" style="edgeStyle=orthogonalEdgeStyle;rounded=0;orthogonalLoop=1;jettySize=auto;html=1;fontSize=11;fontColor=#1C1C1C;startArrow=none;startFill=0;exitX=1;exitY=1;exitDx=0;exitDy=0;fillColor=#dae8fc;strokeColor=#6c8ebf;" edge="1" parent="1" source="dRZYSQgJwG55mgxKp0y3-57">
          <mxGeometry relative="1" as="geometry">
            <mxPoint x="386.5" y="40" as="sourcePoint" />
            <mxPoint x="452.4000000000001" y="80" as="targetPoint" />
          </mxGeometry>
        </mxCell>
        <mxCell id="dRZYSQgJwG55mgxKp0y3-74" style="edgeStyle=orthogonalEdgeStyle;rounded=0;orthogonalLoop=1;jettySize=auto;html=1;entryX=0.5;entryY=0;entryDx=0;entryDy=0;fontSize=11;fontColor=#1C1C1C;startArrow=none;startFill=0;fillColor=#dae8fc;strokeColor=#6c8ebf;" edge="1" parent="1" source="dRZYSQgJwG55mgxKp0y3-64" target="dRZYSQgJwG55mgxKp0y3-71">
          <mxGeometry relative="1" as="geometry" />
        </mxCell>
        <mxCell id="dRZYSQgJwG55mgxKp0y3-75" style="edgeStyle=orthogonalEdgeStyle;rounded=0;orthogonalLoop=1;jettySize=auto;html=1;entryX=0;entryY=0;entryDx=0;entryDy=0;fontSize=11;fontColor=#1C1C1C;startArrow=none;startFill=0;fillColor=#dae8fc;strokeColor=#6c8ebf;" edge="1" parent="1" source="dRZYSQgJwG55mgxKp0y3-6" target="dRZYSQgJwG55mgxKp0y3-65">
          <mxGeometry relative="1" as="geometry" />
        </mxCell>
        <mxCell id="dRZYSQgJwG55mgxKp0y3-76" style="edgeStyle=orthogonalEdgeStyle;rounded=0;orthogonalLoop=1;jettySize=auto;html=1;fontSize=11;fontColor=#1C1C1C;startArrow=none;startFill=0;fillColor=#dae8fc;strokeColor=#6c8ebf;" edge="1" parent="1" source="dRZYSQgJwG55mgxKp0y3-5" target="dRZYSQgJwG55mgxKp0y3-64">
          <mxGeometry relative="1" as="geometry" />
        </mxCell>
        <mxCell id="dRZYSQgJwG55mgxKp0y3-77" value="" style="group" vertex="1" connectable="0" parent="1">
          <mxGeometry x="209.14000000000001" y="-77" width="192.71" height="100" as="geometry" />
        </mxCell>
        <mxCell id="dRZYSQgJwG55mgxKp0y3-66" value="" style="group" vertex="1" connectable="0" parent="dRZYSQgJwG55mgxKp0y3-77">
          <mxGeometry x="85.85999999999999" width="106.85" height="100" as="geometry" />
        </mxCell>
        <mxCell id="dRZYSQgJwG55mgxKp0y3-65" value="" style="shape=image;verticalLabelPosition=bottom;labelBackgroundColor=default;verticalAlign=top;aspect=fixed;imageAspect=0;image=https://i.gzn.jp/img/2020/12/22/cloudflare-pages/00.png;" vertex="1" parent="dRZYSQgJwG55mgxKp0y3-66">
          <mxGeometry y="40" width="106.85" height="60" as="geometry" />
        </mxCell>
        <mxCell id="dRZYSQgJwG55mgxKp0y3-57" value="" style="shape=image;verticalLabelPosition=bottom;labelBackgroundColor=default;verticalAlign=top;aspect=fixed;imageAspect=0;image=https://blog.umigame.tech/wp-content/uploads/2021/01/nextjs-3.png;" vertex="1" parent="dRZYSQgJwG55mgxKp0y3-77">
          <mxGeometry y="47" width="85.86" height="53" as="geometry" />
        </mxCell>
      </root>
    </mxGraphModel>
  </diagram>
</mxfile>
